<?xml version="1.0" standalone="no"?>
<!DOCTYPE svg PUBLIC "-//W3C//DTD SVG 20010904//EN"
 "http://www.w3.org/TR/2001/REC-SVG-20010904/DTD/svg10.dtd">
<svg version="1.0" xmlns="http://www.w3.org/2000/svg"
 width="300.000000pt" height="262.000000pt" viewBox="0 0 300.000000 262.000000"
 preserveAspectRatio="xMidYMid meet">
<metadata>
Created by potrace 1.10, written by Peter Selinger 2001-2011
</metadata>
<g transform="translate(0.000000,262.000000) scale(0.100000,-0.100000)"
fill="#000000" stroke="none">
<path d="M2071 2603 l-1 -23 410 0 410 0 -1 23 c-1 16 -2 18 -6 5 -4 -17 -32
-18 -403 -18 -371 0 -399 1 -403 18 -4 13 -5 11 -6 -5z"/>
<path d="M2108 2613 c6 -2 18 -2 25 0 6 3 1 5 -13 5 -14 0 -19 -2 -12 -5z"/>
<path d="M2213 2613 c9 -2 23 -2 30 0 6 3 -1 5 -18 5 -16 0 -22 -2 -12 -5z"/>
<path d="M2313 2613 c9 -2 23 -2 30 0 6 3 -1 5 -18 5 -16 0 -22 -2 -12 -5z"/>
<path d="M210 2535 c-8 -9 -8 -15 -2 -15 6 0 17 -2 24 -5 9 -4 14 2 15 15 2
24 -19 26 -37 5z"/>
<path d="M264 2538 c-4 -6 -6 -36 -5 -65 1 -29 -1 -62 -4 -74 -6 -19 -8 -19
-19 -4 -11 15 -13 15 -25 1 -12 -14 -9 -17 18 -22 31 -6 31 -7 31 -68 0 -33
-4 -56 -8 -51 -6 9 -15 10 -47 6 -5 -1 -3 -6 5 -11 11 -7 11 -10 2 -10 -7 0
-10 -5 -7 -10 4 -7 13 -7 26 0 27 15 29 5 26 -144 -1 -95 -5 -130 -15 -132 -7
-1 -8 0 -2 3 18 8 11 20 -12 19 -12 -1 -22 -8 -24 -18 -2 -14 5 -18 27 -18 29
0 29 -1 29 -55 0 -53 -1 -55 -26 -55 -24 0 -25 -2 -13 -17 8 -10 9 -14 2 -10
-6 4 -14 3 -18 -3 -4 -6 5 -10 19 -10 20 0 24 4 20 18 -5 16 -5 16 6 0 15 -24
9 -141 -8 -144 -7 -1 -8 0 -2 3 15 7 12 23 -5 23 -8 0 -15 -9 -15 -20 0 -13 7
-20 20 -20 18 0 20 -7 20 -55 0 -30 -3 -54 -7 -54 -22 4 -33 -3 -33 -20 0 -13
6 -18 18 -16 9 2 19 4 22 4 3 1 281 1 618 1 l612 0 -2 517 -3 518 -607 3
c-462 2 -608 -1 -614 -10z m1206 -508 l0 -510 -600 0 -600 0 0 510 0 509 600
1 600 0 0 -510z"/>
<path d="M1111 2504 c0 -11 3 -14 6 -6 3 7 2 16 -1 19 -3 4 -6 -2 -5 -13z"/>
<path d="M662 2440 c0 -32 3 -38 13 -30 9 8 15 8 20 0 3 -6 11 -8 16 -4 5 3 7
10 3 15 -3 5 -9 7 -14 4 -4 -3 -13 2 -20 10 -13 15 -8 19 23 16 9 -1 17 3 17
9 0 7 -7 10 -15 7 -8 -4 -17 -2 -20 3 -13 22 -24 8 -23 -30z"/>
<path d="M730 2460 c0 -19 3 -21 12 -12 9 9 9 15 0 24 -9 9 -12 7 -12 -12z"/>
<path d="M778 2473 c-10 -2 -18 -9 -18 -15 0 -5 6 -8 14 -5 8 3 17 1 20 -6 2
-7 5 -3 5 8 1 17 3 17 11 5 8 -13 10 -12 10 3 0 17 -9 19 -42 10z"/>
<path d="M951 2471 c-7 -5 -22 -6 -32 -4 -12 3 -19 0 -19 -9 0 -14 37 -17 58
-4 7 4 12 3 12 -3 0 -7 8 -7 25 -1 14 5 25 6 25 2 0 -12 164 -6 168 6 2 8 -18
10 -62 8 -36 -2 -66 1 -66 6 0 5 -5 6 -12 2 -15 -9 -60 -10 -74 -1 -5 3 -16 2
-23 -2z"/>
<path d="M830 2457 c0 -7 11 -13 25 -13 14 0 25 5 25 11 0 6 -11 12 -25 13
-15 1 -25 -3 -25 -11z"/>
<path d="M540 2430 c0 -5 5 -10 10 -10 6 0 10 5 10 10 0 6 -4 10 -10 10 -5 0
-10 -4 -10 -10z"/>
<path d="M730 2415 c0 -12 10 -15 45 -13 25 2 45 8 45 14 0 13 -53 14 -62 0
-5 -7 -8 -7 -8 2 0 6 -4 12 -10 12 -5 0 -10 -7 -10 -15z"/>
<path d="M830 2416 c0 -6 11 -13 25 -14 14 -1 25 4 25 11 0 6 -11 13 -25 13
-14 1 -25 -3 -25 -10z"/>
<path d="M900 2412 c0 -10 32 -12 145 -10 89 2 145 7 145 13 0 10 -146 12
-156 2 -3 -3 -12 -3 -19 -1 -7 3 -36 6 -64 7 -36 1 -51 -2 -51 -11z"/>
<path d="M1110 2338 l0 -53 -75 3 c-75 4 -76 4 -82 33 -3 16 -10 26 -15 23 -5
-3 -7 -8 -4 -11 3 -3 1 -14 -5 -24 -8 -16 -22 -19 -78 -19 -63 0 -69 -2 -79
-25 -7 -14 -12 -59 -12 -100 0 -49 -4 -75 -12 -79 -10 -5 -10 -7 0 -12 6 -3
12 -12 12 -19 0 -7 -6 -15 -12 -18 -7 -2 -10 -8 -6 -12 19 -20 28 13 28 99 0
91 13 156 31 156 5 0 9 -6 9 -12 0 -10 2 -10 9 0 5 9 24 13 54 11 25 -2 52 2
59 9 9 7 18 8 24 2 5 -5 38 -10 74 -12 77 -4 77 -5 79 -145 1 -64 -3 -93 -11
-96 -10 -4 -10 -6 0 -6 6 -1 12 -10 12 -20 0 -11 -6 -22 -12 -25 -10 -5 -10
-7 0 -12 14 -7 16 -31 3 -36 -5 -1 -3 -9 5 -16 12 -11 14 -5 14 38 0 27 5 50
10 50 6 0 10 5 10 11 0 5 -4 7 -10 4 -9 -6 -14 134 -10 303 1 34 -1 62 -4 62
-3 0 -6 -24 -6 -52z"/>
<path d="M763 2330 c0 -30 2 -43 4 -27 2 15 2 39 0 55 -2 15 -4 2 -4 -28z"/>
<path d="M495 2350 c3 -5 8 -10 11 -10 2 0 4 5 4 10 0 6 -5 10 -11 10 -5 0 -7
-4 -4 -10z"/>
<path d="M540 2340 c0 -5 5 -10 10 -10 6 0 10 5 10 10 0 6 -4 10 -10 10 -5 0
-10 -4 -10 -10z"/>
<path d="M346 2295 c-3 -8 -1 -15 4 -15 6 0 10 7 10 15 0 8 -2 15 -4 15 -2 0
-6 -7 -10 -15z"/>
<path d="M840 2250 c0 -5 5 -10 10 -10 6 0 10 5 10 10 0 6 -4 10 -10 10 -5 0
-10 -4 -10 -10z"/>
<path d="M840 2210 c0 -5 5 -10 10 -10 6 0 10 5 10 10 0 6 -4 10 -10 10 -5 0
-10 -4 -10 -10z"/>
<path d="M350 2202 c0 -8 111 -80 155 -100 17 -8 25 -16 17 -19 -13 -5 -7 -23
9 -23 6 0 7 5 3 12 -5 8 -2 9 10 5 10 -4 21 -7 24 -7 4 0 0 -5 -8 -11 -12 -8
-10 -9 7 -4 18 5 22 3 17 -9 -3 -9 -1 -16 5 -16 6 0 11 5 11 12 0 6 6 4 13 -7
8 -10 19 -15 25 -11 7 4 12 3 12 -3 0 -5 14 -12 30 -16 17 -4 30 -11 30 -16 0
-6 4 -8 9 -4 6 3 40 -2 77 -11 50 -13 63 -19 48 -24 -10 -4 -22 -2 -26 4 -5 7
-8 5 -8 -5 0 -24 24 -30 49 -12 27 18 51 10 51 -17 0 -13 -4 -18 -11 -15 -6 4
-8 13 -5 21 4 11 2 11 -14 2 -14 -9 -16 -14 -7 -20 7 -4 12 -11 12 -16 0 -8
30 -42 38 -42 2 0 4 7 4 15 0 8 -9 15 -21 15 -16 1 -13 4 13 15 41 18 39 19
44 -2 4 -17 5 -17 6 -1 1 22 -35 44 -42 25 -3 -7 -6 -5 -6 6 -1 9 1 17 4 17
12 0 230 -74 235 -79 3 -3 10 -6 15 -7 23 -1 65 -17 61 -23 -3 -4 15 -6 40 -6
24 1 44 -3 44 -8 0 -5 9 -7 20 -4 10 3 21 0 24 -7 2 -6 5 -4 5 5 1 11 -15 19
-61 27 -34 6 -64 15 -67 19 -3 4 -17 9 -31 10 -14 1 -38 7 -55 13 l-30 11 25
19 c13 10 28 16 32 14 4 -3 8 0 8 5 0 6 -7 11 -15 11 -8 0 -15 -4 -15 -8 0 -4
-13 -16 -30 -25 -19 -12 -30 -14 -30 -6 0 6 -6 9 -14 6 -16 -6 -30 19 -20 35
3 5 -3 18 -15 29 -12 11 -21 15 -21 10 0 -6 8 -14 17 -19 15 -9 15 -11 1 -26
-18 -17 -33 -22 -23 -7 3 5 -4 12 -15 16 -11 3 -20 11 -20 17 0 5 6 8 13 5 10
-4 13 2 9 19 -6 32 -24 26 -28 -10 -4 -37 -8 -40 -41 -32 -21 6 -24 9 -12 17
12 7 12 9 -1 9 -9 1 -5 6 10 14 24 14 24 14 -14 13 -21 -1 -34 -3 -27 -5 20
-7 12 -32 -11 -32 -19 0 -20 2 -8 10 13 8 13 10 -2 10 -11 0 -15 5 -12 15 4 8
1 15 -6 15 -6 0 -8 -4 -5 -10 3 -5 2 -10 -4 -10 -5 0 -12 8 -14 18 -4 13 -5
12 -6 -5 -1 -20 -4 -21 -30 -12 -15 5 -32 9 -37 8 -5 -1 -16 0 -24 4 -8 3 -32
11 -53 17 -22 7 -34 16 -31 22 4 7 2 8 -5 4 -12 -8 -88 32 -223 115 -43 26
-78 45 -78 41z m507 -228 c-3 -3 -12 -4 -19 -1 -8 3 -5 6 6 6 11 1 17 -2 13
-5z m150 -40 c-3 -3 -12 -4 -19 -1 -8 3 -5 6 6 6 11 1 17 -2 13 -5z"/>
<path d="M460 2200 c0 -5 5 -10 10 -10 6 0 10 5 10 10 0 6 -4 10 -10 10 -5 0
-10 -4 -10 -10z"/>
<path d="M595 2190 c-3 -5 -1 -10 4 -10 6 0 11 5 11 10 0 6 -2 10 -4 10 -3 0
-8 -4 -11 -10z"/>
<path d="M810 2184 c0 -8 6 -11 15 -8 8 4 15 1 15 -5 0 -6 5 -11 10 -11 21 0
9 28 -15 32 -17 4 -25 1 -25 -8z"/>
<path d="M890 2180 c0 -5 5 -10 10 -10 6 0 10 5 10 10 0 6 -4 10 -10 10 -5 0
-10 -4 -10 -10z"/>
<path d="M350 2155 c0 -7 83 -46 88 -41 2 3 -15 14 -39 25 -46 23 -49 24 -49
16z"/>
<path d="M495 2150 c-3 -5 -1 -10 4 -10 6 0 11 5 11 10 0 6 -2 10 -4 10 -3 0
-8 -4 -11 -10z"/>
<path d="M790 2151 c0 -9 24 -21 41 -21 5 0 9 4 9 10 0 5 -7 7 -15 4 -8 -4
-15 -1 -15 5 0 6 -4 11 -10 11 -5 0 -10 -4 -10 -9z"/>
<path d="M710 2140 c0 -5 5 -10 11 -10 5 0 7 5 4 10 -3 6 -8 10 -11 10 -2 0
-4 -4 -4 -10z"/>
<path d="M895 2136 c-6 -14 -4 -21 4 -24 11 -4 11 -6 0 -13 -7 -4 -10 -11 -6
-16 5 -4 11 -3 15 3 4 6 14 14 22 17 12 4 12 6 -2 6 -9 1 -18 11 -21 24 -3 21
-4 21 -12 3z"/>
<path d="M940 2140 c0 -5 5 -10 10 -10 6 0 10 5 10 10 0 6 -4 10 -10 10 -5 0
-10 -4 -10 -10z"/>
<path d="M625 2130 c-3 -5 1 -10 10 -10 9 0 13 5 10 10 -3 6 -8 10 -10 10 -2
0 -7 -4 -10 -10z"/>
<path d="M1020 2130 c0 -5 5 -10 10 -10 6 0 10 5 10 10 0 6 -4 10 -10 10 -5 0
-10 -4 -10 -10z"/>
<path d="M986 2114 c-9 -24 -7 -27 9 -10 17 17 19 26 6 26 -5 0 -12 -7 -15
-16z"/>
<path d="M455 2100 c3 -5 8 -10 11 -10 2 0 4 5 4 10 0 6 -5 10 -11 10 -5 0 -7
-4 -4 -10z"/>
<path d="M831 2097 c0 -10 -5 -15 -11 -12 -5 3 -10 1 -10 -4 0 -6 -7 -11 -15
-11 -8 0 -15 -4 -15 -8 0 -5 7 -9 15 -9 8 0 15 5 15 10 0 5 10 7 21 4 13 -4
28 1 37 10 15 14 14 15 -5 9 -16 -5 -23 -2 -26 11 -4 17 -5 17 -6 0z"/>
<path d="M480 2090 c0 -5 5 -10 11 -10 5 0 7 5 4 10 -3 6 -8 10 -11 10 -2 0
-4 -4 -4 -10z"/>
<path d="M645 2090 c-3 -5 -1 -10 4 -10 6 0 11 5 11 10 0 6 -2 10 -4 10 -3 0
-8 -4 -11 -10z"/>
<path d="M710 2080 c0 -5 5 -10 10 -10 6 0 10 5 10 10 0 6 -4 10 -10 10 -5 0
-10 -4 -10 -10z"/>
<path d="M925 2080 c-3 -5 -1 -10 4 -10 6 0 11 5 11 10 0 6 -2 10 -4 10 -3 0
-8 -4 -11 -10z"/>
<path d="M960 2067 c0 -15 4 -27 9 -27 6 0 8 10 6 21 -6 33 -15 36 -15 6z"/>
<path d="M447 2060 c-3 -11 -1 -20 4 -20 5 0 9 9 9 20 0 11 -2 20 -4 20 -2 0
-6 -9 -9 -20z"/>
<path d="M690 2045 c0 -8 5 -15 10 -15 6 0 10 7 10 15 0 8 -4 15 -10 15 -5 0
-10 -7 -10 -15z"/>
<path d="M890 2051 c0 -5 7 -12 16 -15 24 -9 28 -7 14 9 -14 17 -30 20 -30 6z"/>
<path d="M825 2040 c-3 -5 -1 -10 4 -10 6 0 11 5 11 10 0 6 -2 10 -4 10 -3 0
-8 -4 -11 -10z"/>
<path d="M547 2020 c-3 -11 -1 -20 4 -20 5 0 9 9 9 20 0 11 -2 20 -4 20 -2 0
-6 -9 -9 -20z"/>
<path d="M790 2030 c0 -5 5 -10 10 -10 6 0 10 5 10 10 0 6 -4 10 -10 10 -5 0
-10 -4 -10 -10z"/>
<path d="M940 2020 c0 -5 5 -10 10 -10 6 0 10 5 10 10 0 6 -4 10 -10 10 -5 0
-10 -4 -10 -10z"/>
<path d="M1032 2018 c2 -5 8 -9 13 -9 5 0 11 4 13 9 1 5 -4 9 -13 9 -9 0 -14
-4 -13 -9z"/>
<path d="M584 2008 c3 -15 26 -23 26 -8 0 6 -4 9 -9 6 -5 -4 -12 -1 -14 4 -3
6 -4 5 -3 -2z"/>
<path d="M1175 2000 c3 -5 8 -10 11 -10 2 0 4 5 4 10 0 6 -5 10 -11 10 -5 0
-7 -4 -4 -10z"/>
<path d="M1330 1985 c7 -8 17 -12 22 -9 6 4 5 10 -3 15 -22 14 -33 10 -19 -6z"/>
<path d="M1130 1980 c0 -5 7 -10 15 -10 8 0 15 5 15 10 0 6 -7 10 -15 10 -8 0
-15 -4 -15 -10z"/>
<path d="M580 1960 c0 -5 5 -10 11 -10 5 0 7 5 4 10 -3 6 -8 10 -11 10 -2 0
-4 -4 -4 -10z"/>
<path d="M760 1871 c0 -54 -3 -114 -7 -132 -7 -33 -7 -33 -14 -9 l-7 25 -1
-27 -1 -28 -80 0 c-61 0 -81 -4 -88 -16 -8 -14 -10 -14 -21 0 -10 12 -33 16
-92 16 -75 0 -79 1 -93 28 -13 23 -15 24 -16 7 0 -36 20 -45 100 -45 78 0 100
-9 100 -42 0 -10 5 -18 10 -18 6 0 10 8 10 19 0 31 21 39 112 43 l87 3 3 -40
c2 -22 5 40 6 138 1 97 0 177 -3 177 -3 0 -5 -44 -5 -99z"/>
<path d="M950 1960 c0 -5 5 -10 10 -10 6 0 10 5 10 10 0 6 -4 10 -10 10 -5 0
-10 -4 -10 -10z"/>
<path d="M1240 1944 c0 -8 5 -12 10 -9 6 4 8 11 5 16 -9 14 -15 11 -15 -7z"/>
<path d="M1300 1950 c-8 -5 -11 -12 -7 -16 4 -4 13 -2 19 4 15 15 7 24 -12 12z"/>
<path d="M1355 1921 c-3 -5 -1 -12 5 -16 5 -3 10 1 10 9 0 18 -6 21 -15 7z"/>
<path d="M634 1905 c-10 -8 -14 -14 -9 -15 15 0 40 18 34 24 -3 3 -14 -1 -25
-9z"/>
<path d="M790 1910 c0 -5 7 -10 15 -10 8 0 15 5 15 10 0 6 -7 10 -15 10 -8 0
-15 -4 -15 -10z"/>
<path d="M990 1897 c0 -8 7 -18 16 -21 11 -4 14 -1 12 11 -4 21 -28 30 -28 10z"/>
<path d="M530 1890 c0 -5 5 -10 11 -10 5 0 7 5 4 10 -3 6 -8 10 -11 10 -2 0
-4 -4 -4 -10z"/>
<path d="M1166 1888 c7 -12 44 -10 44 2 0 5 -11 9 -24 8 -14 -1 -22 -6 -20
-10z"/>
<path d="M811 1859 c-1 -15 6 -29 14 -33 18 -7 20 10 3 18 -7 3 -1 3 13 0 15
-3 30 -1 33 5 5 7 -4 11 -23 11 -16 0 -32 6 -34 13 -3 6 -6 0 -6 -14z"/>
<path d="M1031 1864 c0 -11 3 -14 6 -6 3 7 2 16 -1 19 -3 4 -6 -2 -5 -13z"/>
<path d="M610 1860 c0 -5 5 -10 10 -10 6 0 10 5 10 10 0 6 -4 10 -10 10 -5 0
-10 -4 -10 -10z"/>
<path d="M1111 1839 c-1 -26 -7 -39 -23 -48 l-23 -11 23 6 c17 4 22 1 22 -15
0 -12 -6 -21 -14 -21 -8 0 -18 -5 -22 -11 -4 -7 0 -9 14 -5 21 7 21 3 25 -101
l3 -108 2 116 c2 109 3 117 25 128 l22 12 -22 -5 c-20 -3 -23 0 -23 25 0 16 5
29 10 29 6 0 10 5 10 11 0 5 -4 8 -9 4 -5 -3 -12 3 -14 12 -3 10 -5 2 -6 -18z"/>
<path d="M950 1850 c13 -9 7 -14 -12 -11 -5 0 -8 -9 -8 -20 0 -18 -2 -19 -15
-9 -20 17 -31 5 -13 -14 13 -12 18 -11 41 14 31 33 34 50 10 50 -15 0 -16 -2
-3 -10z"/>
<path d="M990 1845 c0 -8 4 -15 9 -15 5 0 11 7 15 15 3 9 0 15 -9 15 -8 0 -15
-7 -15 -15z"/>
<path d="M695 1840 c3 -5 8 -10 11 -10 2 0 4 5 4 10 0 6 -5 10 -11 10 -5 0 -7
-4 -4 -10z"/>
<path d="M630 1836 c0 -2 7 -9 15 -16 9 -7 15 -8 15 -2 0 5 -7 12 -15 16 -8 3
-15 4 -15 2z"/>
<path d="M1040 1836 c0 -2 7 -6 15 -10 8 -3 15 -1 15 4 0 6 -7 10 -15 10 -8 0
-15 -2 -15 -4z"/>
<path d="M1161 1832 c-1 -18 28 -27 42 -12 10 10 7 12 -10 7 -12 -2 -24 0 -27
7 -3 7 -5 7 -5 -2z"/>
<path d="M860 1819 c0 -5 5 -7 10 -4 6 3 10 8 10 11 0 2 -4 4 -10 4 -5 0 -10
-5 -10 -11z"/>
<path d="M792 1803 c3 -18 26 -42 41 -43 4 0 6 10 6 23 -1 17 -2 18 -6 4 -6
-22 -23 -12 -23 14 0 10 -5 19 -10 19 -6 0 -10 -8 -8 -17z"/>
<path d="M1010 1810 c0 -5 5 -10 11 -10 5 0 7 5 4 10 -3 6 -8 10 -11 10 -2 0
-4 -4 -4 -10z"/>
<path d="M1040 1810 c0 -6 7 -10 15 -10 8 0 15 2 15 4 0 2 -7 6 -15 10 -8 3
-15 1 -15 -4z"/>
<path d="M1201 1801 c-10 -6 -9 -10 5 -15 20 -8 25 -4 16 11 -4 7 -13 9 -21 4z"/>
<path d="M860 1775 c0 -14 4 -25 9 -25 4 0 6 11 3 25 -2 14 -6 25 -8 25 -2 0
-4 -11 -4 -25z"/>
<path d="M1255 1780 c-3 -5 1 -10 10 -10 9 0 13 5 10 10 -3 6 -8 10 -10 10 -2
0 -7 -4 -10 -10z"/>
<path d="M795 1750 c-3 -5 -1 -10 4 -10 6 0 11 5 11 10 0 6 -2 10 -4 10 -3 0
-8 -4 -11 -10z"/>
<path d="M1252 1744 c-7 -8 -8 -14 -3 -14 10 0 25 19 20 25 -2 1 -10 -3 -17
-11z"/>
<path d="M979 1728 c-6 -21 -5 -38 2 -38 5 0 9 9 9 20 0 16 -7 28 -11 18z"/>
<path d="M1175 1720 c-3 -5 -1 -10 4 -10 6 0 11 5 11 10 0 6 -2 10 -4 10 -3 0
-8 -4 -11 -10z"/>
<path d="M1133 1695 c0 -14 5 -25 12 -25 8 0 11 8 8 20 -8 30 -20 33 -20 5z"/>
<path d="M1300 1710 c-8 -5 -12 -12 -9 -15 4 -3 12 1 19 10 14 17 11 19 -10 5z"/>
<path d="M1229 1697 c-8 -24 -5 -38 8 -33 8 3 17 6 19 6 11 0 2 19 -11 24 -8
3 -15 4 -16 3z"/>
<path d="M1290 1640 c0 -5 5 -10 11 -10 5 0 7 5 4 10 -3 6 -8 10 -11 10 -2 0
-4 -4 -4 -10z"/>
<path d="M317 1599 c-3 -13 -1 -19 6 -16 15 5 22 37 9 37 -5 0 -12 -9 -15 -21z"/>
<path d="M390 1601 c0 -12 5 -21 10 -21 6 0 10 6 10 14 0 8 -4 18 -10 21 -5 3
-10 -3 -10 -14z"/>
<path d="M420 1598 c0 -16 15 -19 37 -5 6 4 14 1 16 -5 3 -7 6 -4 6 7 1 16 -5
20 -29 20 -21 0 -30 -5 -30 -17z"/>
<path d="M490 1605 c0 -16 6 -21 25 -21 14 0 25 5 25 12 0 7 -8 11 -17 10 -10
-2 -21 2 -25 8 -5 6 -8 3 -8 -9z"/>
<path d="M707 1613 c-4 -6 -22 -9 -42 -8 -21 2 -35 -2 -35 -9 0 -7 34 -11 105
-12 96 0 105 1 105 18 0 13 -4 17 -12 11 -17 -11 -101 -10 -109 1 -4 4 -9 4
-12 -1z"/>
<path d="M1161 1604 c0 -11 3 -14 6 -6 3 7 2 16 -1 19 -3 4 -6 -2 -5 -13z"/>
<path d="M350 1600 c0 -5 5 -10 10 -10 6 0 10 5 10 10 0 6 -4 10 -10 10 -5 0
-10 -4 -10 -10z"/>
<path d="M550 1595 c0 -18 12 -19 27 -4 8 8 13 8 17 0 10 -16 26 -13 26 4 0
10 -11 15 -35 15 -24 0 -35 -5 -35 -15z"/>
<path d="M761 1554 c0 -11 3 -14 6 -6 3 7 2 16 -1 19 -3 4 -6 -2 -5 -13z"/>
<path d="M1240 1540 c0 -5 5 -10 10 -10 6 0 10 5 10 10 0 6 -4 10 -10 10 -5 0
-10 -4 -10 -10z"/>
<path d="M1640 2529 c0 -10 5 -19 11 -19 5 0 7 6 3 13 -6 9 -4 9 7 1 21 -17
48 -14 42 5 -4 14 -4 14 6 1 6 -8 11 -52 11 -97 0 -86 -1 -87 -46 -84 -28 3
-40 -26 -15 -34 11 -3 23 -5 27 -4 30 5 34 -3 34 -81 0 -85 1 -83 -53 -82 -23
1 -26 -2 -17 -13 8 -10 8 -14 -2 -18 -7 -3 6 -6 30 -6 l42 -1 0 -82 c0 -46 -5
-90 -11 -98 -10 -13 -10 -13 -6 0 4 12 -3 16 -29 17 -19 0 -34 -4 -34 -9 0 -5
6 -6 13 -2 8 5 8 2 -2 -9 -12 -15 -10 -17 28 -17 l41 0 0 -84 c0 -81 -1 -85
-21 -81 -12 3 -28 1 -35 -3 -19 -11 -2 -32 29 -34 27 -2 27 -2 27 -86 0 -53
-4 -81 -10 -77 -12 8 -24 -20 -15 -35 3 -6 10 -8 15 -5 5 3 279 5 610 5 l600
0 0 520 0 520 -640 0 c-627 -1 -640 -1 -640 -21z m50 1 c0 -5 -2 -10 -4 -10
-3 0 -8 5 -11 10 -3 6 -1 10 4 10 6 0 11 -4 11 -10z m1220 -500 l0 -510 -591
2 -591 3 1 98 c0 53 0 281 1 506 l0 409 590 1 590 1 0 -510z m-1220 300 c0 -5
-4 -10 -10 -10 -5 0 -10 5 -10 10 0 6 5 10 10 10 6 0 10 -4 10 -10z m0 -200
c0 -5 -4 -10 -10 -10 -5 0 -10 5 -10 10 0 6 5 10 10 10 6 0 10 -4 10 -10z"/>
<path d="M2214 2320 c0 -113 2 -159 3 -102 2 56 2 148 0 205 -1 56 -3 10 -3
-103z"/>
<path d="M2552 2360 c-1 -113 -6 -170 -14 -178 -9 -9 -9 -12 0 -12 7 0 12 -13
12 -31 0 -17 7 -37 15 -45 12 -13 15 -13 15 -2 0 8 -4 18 -10 24 -5 5 -11 97
-13 209 l-2 200 -3 -165z"/>
<path d="M2470 2480 c0 -5 5 -10 11 -10 5 0 7 5 4 10 -3 6 -8 10 -11 10 -2 0
-4 -4 -4 -10z"/>
<path d="M2000 2460 c0 -5 5 -10 10 -10 6 0 10 5 10 10 0 6 -4 10 -10 10 -5 0
-10 -4 -10 -10z"/>
<path d="M1805 2420 c-3 -5 -1 -10 4 -10 6 0 11 5 11 10 0 6 -2 10 -4 10 -3 0
-8 -4 -11 -10z"/>
<path d="M2340 2400 c0 -5 5 -10 10 -10 6 0 10 5 10 10 0 6 -4 10 -10 10 -5 0
-10 -4 -10 -10z"/>
<path d="M2405 2400 c-3 -5 -1 -10 4 -10 6 0 11 5 11 10 0 6 -2 10 -4 10 -3 0
-8 -4 -11 -10z"/>
<path d="M2160 2380 c0 -5 5 -10 10 -10 6 0 10 5 10 10 0 6 -4 10 -10 10 -5 0
-10 -4 -10 -10z"/>
<path d="M2275 2370 c-3 -5 -1 -10 4 -10 6 0 11 5 11 10 0 6 -2 10 -4 10 -3 0
-8 -4 -11 -10z"/>
<path d="M2570 2370 c0 -5 5 -10 11 -10 5 0 7 5 4 10 -3 6 -8 10 -11 10 -2 0
-4 -4 -4 -10z"/>
<path d="M2160 2350 c0 -5 5 -10 10 -10 6 0 10 5 10 10 0 6 -4 10 -10 10 -5 0
-10 -4 -10 -10z"/>
<path d="M2260 2330 c0 -5 5 -10 10 -10 6 0 10 5 10 10 0 6 -4 10 -10 10 -5 0
-10 -4 -10 -10z"/>
<path d="M2310 2329 c0 -5 5 -7 10 -4 6 3 10 8 10 11 0 2 -4 4 -10 4 -5 0 -10
-5 -10 -11z"/>
<path d="M1920 2320 c0 -5 5 -10 11 -10 5 0 7 5 4 10 -3 6 -8 10 -11 10 -2 0
-4 -4 -4 -10z"/>
<path d="M2000 2320 c0 -5 5 -10 10 -10 6 0 10 5 10 10 0 6 -4 10 -10 10 -5 0
-10 -4 -10 -10z"/>
<path d="M1810 2300 c0 -5 7 -10 15 -10 8 0 15 -4 15 -10 0 -5 5 -10 10 -10
19 0 110 -67 102 -75 -4 -4 1 -5 10 -2 10 3 20 2 23 -3 4 -6 13 -10 21 -10 8
0 12 5 9 10 -4 6 -11 7 -17 4 -6 -4 -8 2 -4 17 3 13 3 18 0 12 -9 -20 -20 -16
-99 37 -78 53 -85 56 -85 40z"/>
<path d="M2290 2290 c0 -5 5 -10 10 -10 6 0 10 5 10 10 0 6 -4 10 -10 10 -5 0
-10 -4 -10 -10z"/>
<path d="M2340 2284 c0 -8 4 -13 9 -10 5 4 12 0 14 -6 3 -7 6 -3 6 10 1 13 -5
22 -14 22 -8 0 -15 -7 -15 -16z"/>
<path d="M2390 2280 c0 -5 5 -10 10 -10 6 0 10 5 10 10 0 6 -4 10 -10 10 -5 0
-10 -4 -10 -10z"/>
<path d="M2440 2274 c0 -8 5 -12 10 -9 6 4 8 11 5 16 -9 14 -15 11 -15 -7z"/>
<path d="M1900 2270 c0 -5 5 -10 10 -10 6 0 10 5 10 10 0 6 -4 10 -10 10 -5 0
-10 -4 -10 -10z"/>
<path d="M2470 2271 c0 -5 7 -11 15 -15 8 -3 15 -1 15 3 0 5 -7 11 -15 15 -8
3 -15 1 -15 -3z"/>
<path d="M2340 2240 c0 -5 9 -10 21 -10 11 0 17 5 14 10 -3 6 -13 10 -21 10
-8 0 -14 -4 -14 -10z"/>
<path d="M2621 2234 c0 -11 3 -14 6 -6 3 7 2 16 -1 19 -3 4 -6 -2 -5 -13z"/>
<path d="M2260 2206 c0 -16 6 -26 14 -26 8 0 16 -6 19 -12 2 -7 8 -10 12 -6 4
4 1 14 -8 22 -8 8 -18 12 -22 8 -5 -4 -5 1 -2 10 3 10 2 20 -3 23 -6 4 -10 -5
-10 -19z"/>
<path d="M2390 2210 c0 -11 4 -20 8 -20 4 0 8 9 9 20 1 11 -2 20 -8 20 -5 0
-9 -9 -9 -20z"/>
<path d="M2340 2200 c0 -5 5 -10 11 -10 5 0 7 5 4 10 -3 6 -8 10 -11 10 -2 0
-4 -4 -4 -10z"/>
<path d="M2053 2186 c-22 -10 -31 -26 -15 -26 10 1 46 29 41 33 -2 2 -14 -2
-26 -7z"/>
<path d="M2130 2178 c0 -4 7 -8 15 -8 8 0 15 4 15 8 0 5 -7 9 -15 9 -8 0 -15
-4 -15 -9z"/>
<path d="M2361 2170 c-1 -21 16 -46 26 -37 4 5 3 11 -3 15 -6 4 -14 14 -17 22
-5 13 -5 13 -6 0z"/>
<path d="M2600 2170 c0 -5 5 -10 10 -10 6 0 10 5 10 10 0 6 -4 10 -10 10 -5 0
-10 -4 -10 -10z"/>
<path d="M2405 2160 c-3 -5 -1 -10 4 -10 6 0 11 5 11 10 0 6 -2 10 -4 10 -3 0
-8 -4 -11 -10z"/>
<path d="M2470 2160 c0 -5 5 -10 11 -10 5 0 7 5 4 10 -3 6 -8 10 -11 10 -2 0
-4 -4 -4 -10z"/>
<path d="M2065 2150 c3 -5 8 -10 11 -10 2 0 4 5 4 10 0 6 -5 10 -11 10 -5 0
-7 -4 -4 -10z"/>
<path d="M2245 2151 c-3 -5 2 -11 10 -15 8 -3 17 -1 20 3 3 5 -2 11 -10 15 -8
3 -17 1 -20 -3z"/>
<path d="M2630 2150 c0 -5 5 -10 10 -10 6 0 10 5 10 10 0 6 -4 10 -10 10 -5 0
-10 -4 -10 -10z"/>
<path d="M2090 2141 c0 -7 32 -20 57 -22 5 0 13 -5 20 -10 7 -7 13 -6 17 0 4
6 -9 13 -29 17 -19 3 -38 10 -41 15 -7 12 -24 12 -24 0z"/>
<path d="M2300 2140 c-13 -8 -13 -10 2 -10 9 0 20 5 23 10 8 13 -5 13 -25 0z"/>
<path d="M2440 2140 c0 -5 5 -10 11 -10 5 0 7 5 4 10 -3 6 -8 10 -11 10 -2 0
-4 -4 -4 -10z"/>
<path d="M1900 2131 c0 -5 7 -12 16 -15 24 -9 27 -7 10 9 -17 17 -26 19 -26 6z"/>
<path d="M2340 2130 c0 -5 5 -10 10 -10 6 0 10 5 10 10 0 6 -4 10 -10 10 -5 0
-10 -4 -10 -10z"/>
<path d="M2470 2120 c0 -5 5 -10 11 -10 5 0 7 5 4 10 -3 6 -8 10 -11 10 -2 0
-4 -4 -4 -10z"/>
<path d="M2280 2110 c0 -5 -12 -10 -26 -10 -15 0 -23 -4 -19 -10 4 -6 14 -9
23 -8 11 2 18 -7 23 -27 6 -26 7 -23 8 18 0 26 -1 47 -4 47 -3 0 -5 -4 -5 -10z"/>
<path d="M2375 2110 c-3 -5 -1 -10 4 -10 6 0 11 5 11 10 0 6 -2 10 -4 10 -3 0
-8 -4 -11 -10z"/>
<path d="M2070 2100 c8 -5 20 -10 25 -10 6 0 3 5 -5 10 -8 5 -19 10 -25 10 -5
0 -3 -5 5 -10z"/>
<path d="M2203 2103 c4 -3 2 -12 -4 -20 -9 -9 -8 -13 0 -13 6 0 11 -7 11 -16
0 -14 -3 -14 -15 -4 -10 8 -15 9 -15 2 0 -6 6 -15 14 -19 8 -4 16 -26 19 -48
2 -22 4 -3 4 43 0 47 -5 82 -10 82 -6 0 -7 -3 -4 -7z"/>
<path d="M1810 2091 c0 -4 53 -33 118 -64 116 -55 231 -94 350 -117 34 -7 62
-16 62 -20 0 -4 11 -5 25 -2 21 4 24 1 19 -14 -4 -14 -3 -15 4 -6 14 20 46 10
50 -15 3 -20 47 -41 60 -28 3 3 -3 5 -14 6 -18 0 -18 1 1 9 18 8 17 9 -7 9
-16 1 -28 5 -28 10 0 11 51 2 69 -13 11 -8 13 -8 7 2 -4 6 -2 12 3 12 6 0 11
-7 11 -15 0 -8 -4 -15 -10 -15 -5 0 -10 -10 -9 -22 l0 -23 9 23 c5 12 11 22
14 22 2 0 5 -66 5 -147 0 -80 3 -149 6 -152 4 -3 6 39 5 94 -2 173 -3 167 20
155 11 -6 20 -7 20 -1 0 5 -7 11 -15 15 -8 3 -15 12 -15 21 0 8 -4 15 -10 15
-5 0 -10 4 -10 9 0 6 9 9 20 8 11 -1 20 -7 20 -14 0 -19 22 -27 34 -12 13 17
76 24 76 9 0 -5 -4 -10 -10 -10 -5 0 -10 -4 -10 -8 0 -5 6 -9 14 -9 8 0 14 5
13 11 -1 7 18 10 51 10 37 -1 51 1 44 8 -6 6 -29 10 -51 10 -28 -1 -44 5 -51
16 -5 10 -10 12 -10 5 0 -20 -60 -17 -60 3 0 9 -5 12 -12 8 -6 -4 -21 -8 -33
-9 -20 -3 -22 2 -21 46 1 27 -2 49 -6 49 -5 0 -8 -21 -8 -46 l0 -47 -37 7
c-21 3 -44 6 -50 6 -7 0 -13 9 -13 20 0 11 5 20 10 20 6 0 10 10 10 22 0 21 0
21 -15 2 -8 -10 -15 -26 -15 -35 0 -11 -9 -16 -24 -16 -17 0 -23 5 -22 20 1
12 -6 21 -16 23 -10 1 -18 -2 -18 -6 0 -5 8 -14 18 -20 14 -9 10 -10 -18 -5
-19 4 -42 8 -50 10 -8 2 -17 4 -20 5 -3 0 3 5 13 11 9 5 17 22 17 36 0 21 -2
24 -15 13 -13 -11 -15 -9 -15 13 0 14 -7 27 -15 31 -8 3 -15 1 -15 -3 0 -5 5
-11 10 -13 6 -2 11 -21 13 -43 2 -42 1 -43 -53 -31 -84 18 -120 29 -120 34 0
4 -12 8 -26 9 -15 0 -82 28 -150 62 -68 33 -124 57 -124 52z m815 -251 c-3 -5
-10 -10 -16 -10 -5 0 -9 5 -9 10 0 6 7 10 16 10 8 0 12 -4 9 -10z"/>
<path d="M2458 2094 c-4 -4 -3 -13 3 -21 13 -15 39 -18 39 -3 0 5 -6 7 -14 4
-8 -3 -16 2 -18 11 -1 9 -6 13 -10 9z"/>
<path d="M2305 2080 c-3 -5 1 -10 10 -10 9 0 13 5 10 10 -3 6 -8 10 -10 10 -2
0 -7 -4 -10 -10z"/>
<path d="M2350 2080 c-13 -9 -13 -11 0 -20 10 -6 16 -6 18 0 7 20 -3 30 -18
20z"/>
<path d="M2542 2070 c-7 -12 -8 -20 -2 -20 5 0 10 -9 10 -20 0 -11 4 -20 9
-20 6 0 7 17 4 38 -7 46 -6 45 -21 22z"/>
<path d="M1905 2070 c3 -5 8 -10 11 -10 2 0 4 5 4 10 0 6 -5 10 -11 10 -5 0
-7 -4 -4 -10z"/>
<path d="M2100 2064 c0 -8 5 -12 10 -9 6 4 8 11 5 16 -9 14 -15 11 -15 -7z"/>
<path d="M2380 2060 c0 -5 5 -10 11 -10 5 0 7 5 4 10 -3 6 -8 10 -11 10 -2 0
-4 -4 -4 -10z"/>
<path d="M2000 2049 c0 -5 5 -7 10 -4 6 3 10 8 10 11 0 2 -4 4 -10 4 -5 0 -10
-5 -10 -11z"/>
<path d="M2240 2050 c0 -5 5 -10 10 -10 6 0 10 5 10 10 0 6 -4 10 -10 10 -5 0
-10 -4 -10 -10z"/>
<path d="M2428 2043 c6 -3 12 -11 12 -20 0 -12 -3 -13 -14 -4 -10 8 -16 9 -21
1 -3 -5 -1 -10 5 -10 7 0 9 -8 5 -22 -6 -17 -1 -15 24 11 36 37 36 38 1 44
-14 2 -19 2 -12 0z"/>
<path d="M2600 2039 c0 -5 5 -7 10 -4 6 3 10 8 10 11 0 2 -4 4 -10 4 -5 0 -10
-5 -10 -11z"/>
<path d="M2070 2030 c-12 -7 -10 -9 8 -7 12 0 22 5 22 9 0 11 -12 10 -30 -2z"/>
<path d="M2310 2020 c0 -5 5 -10 11 -10 5 0 7 5 4 10 -3 6 -8 10 -11 10 -2 0
-4 -4 -4 -10z"/>
<path d="M2480 2020 c0 -5 5 -10 11 -10 5 0 7 5 4 10 -3 6 -8 10 -11 10 -2 0
-4 -4 -4 -10z"/>
<path d="M2665 2020 c-3 -5 -1 -10 4 -10 6 0 11 5 11 10 0 6 -2 10 -4 10 -3 0
-8 -4 -11 -10z"/>
<path d="M2080 1999 c0 -5 5 -7 10 -4 6 3 10 8 10 11 0 2 -4 4 -10 4 -5 0 -10
-5 -10 -11z"/>
<path d="M2160 2000 c0 -5 5 -10 10 -10 6 0 10 5 10 10 0 6 -4 10 -10 10 -5 0
-10 -4 -10 -10z"/>
<path d="M2530 1990 c14 -10 27 -16 30 -13 6 6 -30 33 -44 33 -6 0 0 -9 14
-20z"/>
<path d="M2455 1990 c-3 -5 -1 -10 4 -10 6 0 11 5 11 10 0 6 -2 10 -4 10 -3 0
-8 -4 -11 -10z"/>
<path d="M2590 1989 c0 -5 -5 -7 -11 -3 -7 4 -10 1 -7 -6 7 -22 24 -22 25 0 1
11 0 20 -3 20 -2 0 -4 -5 -4 -11z"/>
<path d="M2730 1986 c0 -9 5 -16 10 -16 6 0 10 4 10 9 0 6 -4 13 -10 16 -5 3
-10 -1 -10 -9z"/>
<path d="M2250 1980 c12 -8 13 -11 1 -19 -8 -5 -9 -11 -3 -15 6 -3 14 -2 17 4
9 15 -2 40 -17 40 -9 0 -9 -3 2 -10z"/>
<path d="M2360 1980 c0 -5 5 -10 11 -10 5 0 7 5 4 10 -3 6 -8 10 -11 10 -2 0
-4 -4 -4 -10z"/>
<path d="M2494 1958 c3 -15 26 -23 26 -8 0 6 -4 9 -9 6 -5 -4 -12 -1 -14 4 -3
6 -4 5 -3 -2z"/>
<path d="M2665 1961 c-3 -5 -1 -12 5 -16 5 -3 10 1 10 9 0 18 -6 21 -15 7z"/>
<path d="M2605 1939 c-4 -10 -11 -19 -16 -19 -6 0 -7 -4 -4 -10 4 -6 11 -5 19
3 8 6 12 15 9 20 -7 12 22 8 36 -5 11 -11 13 -10 9 1 -2 8 -14 18 -26 22 -16
6 -22 4 -27 -12z"/>
<path d="M2795 1950 c-3 -5 -1 -10 4 -10 6 0 11 5 11 10 0 6 -2 10 -4 10 -3 0
-8 -4 -11 -10z"/>
<path d="M2745 1940 c-3 -5 -1 -10 4 -10 6 0 11 5 11 10 0 6 -2 10 -4 10 -3 0
-8 -4 -11 -10z"/>
<path d="M2500 1914 c0 -10 31 -36 37 -31 3 3 -2 13 -10 22 -16 15 -27 19 -27
9z"/>
<path d="M2675 1910 c3 -5 8 -10 11 -10 2 0 4 5 4 10 0 6 -5 10 -11 10 -5 0
-7 -4 -4 -10z"/>
<path d="M2212 1838 c-2 -93 -8 -98 -115 -98 -60 0 -76 -3 -81 -17 -6 -15 -8
-15 -19 0 -9 13 -33 17 -97 19 -80 3 -85 4 -88 26 -2 12 -8 22 -13 22 -12 0
-11 -4 3 -35 11 -24 15 -25 93 -25 85 0 105 -8 106 -44 0 -19 1 -18 10 4 14
36 26 40 110 40 53 0 80 4 88 14 8 9 11 43 8 93 l-3 78 -2 -77z"/>
<path d="M2700 1900 c0 -5 5 -10 11 -10 5 0 7 5 4 10 -3 6 -8 10 -11 10 -2 0
-4 -4 -4 -10z"/>
<path d="M2250 1890 c-9 -6 -10 -10 -3 -10 6 0 15 5 18 10 8 12 4 12 -15 0z"/>
<path d="M2280 1892 c0 -4 9 -15 20 -25 11 -9 20 -13 20 -9 0 4 -9 15 -20 25
-11 9 -20 13 -20 9z"/>
<path d="M2730 1892 c0 -6 18 -21 40 -32 22 -11 40 -16 40 -11 0 5 -10 13 -22
17 -13 3 -31 13 -40 22 -11 9 -18 11 -18 4z"/>
<path d="M2788 1883 c7 -3 16 -2 19 1 4 3 -2 6 -13 5 -11 0 -14 -3 -6 -6z"/>
<path d="M2065 1870 c3 -5 8 -10 11 -10 2 0 4 5 4 10 0 6 -5 10 -11 10 -5 0
-7 -4 -4 -10z"/>
<path d="M2350 1870 c-9 -6 -10 -10 -3 -10 6 0 15 5 18 10 8 12 4 12 -15 0z"/>
<path d="M2240 1846 c0 -2 7 -6 15 -10 8 -3 15 -1 15 4 0 6 -7 10 -15 10 -8 0
-15 -2 -15 -4z"/>
<path d="M2375 1840 c-3 -5 -1 -10 4 -10 6 0 11 5 11 10 0 6 -2 10 -4 10 -3 0
-8 -4 -11 -10z"/>
<path d="M2405 1840 c-3 -5 -1 -10 4 -10 6 0 11 5 11 10 0 6 -2 10 -4 10 -3 0
-8 -4 -11 -10z"/>
<path d="M2272 1825 c-11 -13 -11 -18 2 -30 11 -11 16 -12 19 -2 4 9 7 9 18 0
14 -14 43 -18 35 -5 -2 4 -1 14 5 22 7 12 9 10 9 -7 0 -25 33 -33 46 -12 4 7
0 9 -14 5 -15 -5 -21 -1 -26 19 -7 29 -26 34 -26 6 0 -29 -18 -35 -22 -9 -4
27 -28 34 -46 13z m38 -4 c0 -5 -7 -11 -15 -15 -15 -5 -20 5 -8 17 9 10 23 9
23 -2z"/>
<path d="M2080 1810 c0 -5 5 -10 10 -10 6 0 10 5 10 10 0 6 -4 10 -10 10 -5 0
-10 -4 -10 -10z"/>
<path d="M2418 1813 c7 -3 16 -2 19 1 4 3 -2 6 -13 5 -11 0 -14 -3 -6 -6z"/>
<path d="M2738 1813 c7 -3 16 -2 19 1 4 3 -2 6 -13 5 -11 0 -14 -3 -6 -6z"/>
<path d="M2494 1766 c1 -20 26 -36 26 -16 0 6 -4 9 -9 5 -5 -3 -11 3 -14 12
-3 15 -4 15 -3 -1z"/>
<path d="M2730 1779 c0 -5 5 -7 10 -4 6 3 10 8 10 11 0 2 -4 4 -10 4 -5 0 -10
-5 -10 -11z"/>
<path d="M2080 1770 c0 -5 5 -10 10 -10 6 0 10 5 10 10 0 6 -4 10 -10 10 -5 0
-10 -4 -10 -10z"/>
<path d="M2295 1760 c-3 -5 -1 -10 4 -10 6 0 11 5 11 10 0 6 -2 10 -4 10 -3 0
-8 -4 -11 -10z"/>
<path d="M2441 1753 c-1 -16 3 -21 14 -17 8 4 15 10 15 16 0 5 -4 7 -9 4 -5
-4 -12 0 -14 6 -3 7 -6 3 -6 -9z"/>
<path d="M2642 1754 c-7 -8 -8 -14 -3 -14 10 0 25 19 20 25 -2 1 -10 -3 -17
-11z"/>
<path d="M2671 1754 c0 -11 3 -14 6 -6 3 7 2 16 -1 19 -3 4 -6 -2 -5 -13z"/>
<path d="M2325 1740 c-3 -5 -1 -10 4 -10 6 0 11 5 11 10 0 6 -2 10 -4 10 -3 0
-8 -4 -11 -10z"/>
<path d="M2390 1735 c0 -8 2 -15 4 -15 2 0 6 7 10 15 3 8 1 15 -4 15 -6 0 -10
-7 -10 -15z"/>
<path d="M2570 1740 c0 -5 5 -10 11 -10 5 0 7 5 4 10 -3 6 -8 10 -11 10 -2 0
-4 -4 -4 -10z"/>
<path d="M2691 1723 c-18 -20 -6 -29 14 -10 8 9 12 18 8 20 -5 3 -14 -2 -22
-10z"/>
<path d="M2212 1705 c0 -16 2 -22 5 -12 2 9 2 23 0 30 -3 6 -5 -1 -5 -18z"/>
<path d="M2470 1720 c0 -5 5 -10 10 -10 6 0 10 5 10 10 0 6 -4 10 -10 10 -5 0
-10 -4 -10 -10z"/>
<path d="M2180 1694 c0 -8 5 -12 10 -9 6 4 8 11 5 16 -9 14 -15 11 -15 -7z"/>
<path d="M2680 1679 c0 -5 5 -7 10 -4 6 3 10 8 10 11 0 2 -4 4 -10 4 -5 0 -10
-5 -10 -11z"/>
<path d="M1766 1644 c-4 -10 -1 -14 6 -12 15 5 23 28 10 28 -5 0 -13 -7 -16
-16z"/>
<path d="M1836 1652 c-3 -6 -1 -14 5 -17 15 -10 25 3 12 16 -7 7 -13 7 -17 1z"/>
<path d="M1870 1643 c0 -18 47 -16 54 2 4 12 -1 15 -24 13 -17 -1 -30 -8 -30
-15z"/>
<path d="M1940 1644 c0 -8 11 -14 25 -14 14 0 25 4 25 9 0 5 -11 11 -25 13
-17 4 -25 1 -25 -8z"/>
<path d="M2033 1652 c-21 -2 -33 -9 -33 -18 0 -9 5 -12 11 -8 6 4 32 6 58 6
216 -2 221 -2 221 12 0 8 -18 10 -60 6 -33 -3 -60 -3 -60 0 0 5 -86 7 -137 2z"/>
<path d="M1800 1640 c0 -5 5 -10 10 -10 6 0 10 5 10 10 0 6 -4 10 -10 10 -5 0
-10 -4 -10 -10z"/>
<path d="M2600 1640 c0 -5 5 -10 10 -10 6 0 10 5 10 10 0 6 -4 10 -10 10 -5 0
-10 -4 -10 -10z"/>
<path d="M1766 1604 c-9 -24 -7 -28 9 -14 17 14 20 30 6 30 -5 0 -12 -7 -15
-16z"/>
<path d="M1835 1610 c-4 -6 -3 -16 3 -22 6 -6 12 -6 17 2 4 6 3 16 -3 22 -6 6
-12 6 -17 -2z"/>
<path d="M1870 1599 c0 -14 6 -17 27 -13 34 6 37 9 28 24 -6 9 -10 9 -16 -1
-5 -8 -9 -9 -9 -3 0 6 -7 11 -15 11 -8 0 -15 -8 -15 -18z"/>
<path d="M1941 1609 c-1 -18 17 -29 37 -22 20 7 14 26 -8 20 -10 -3 -21 0 -24
7 -2 6 -5 4 -5 -5z"/>
<path d="M2287 1613 c-3 -5 -69 -8 -146 -6 -81 1 -141 -2 -141 -8 0 -5 46 -9
103 -10 56 0 122 -1 146 -3 28 -1 45 3 48 12 6 15 -2 28 -10 15z"/>
<path d="M2680 1610 c0 -5 5 -10 10 -10 6 0 10 5 10 10 0 6 -4 10 -10 10 -5 0
-10 -4 -10 -10z"/>
<path d="M1800 1600 c0 -5 5 -10 10 -10 6 0 10 5 10 10 0 6 -4 10 -10 10 -5 0
-10 -4 -10 -10z"/>
<path d="M1568 2470 c-3 -17 0 -30 6 -30 6 0 5 -4 -2 -9 -10 -6 -8 -10 8 -14
17 -4 21 -2 18 16 -1 12 1 28 5 35 10 15 0 32 -17 32 -8 0 -16 -13 -18 -30z"/>
<path d="M135 2400 c1 -36 -3 -60 -9 -60 -6 0 -3 -7 6 -16 20 -20 35 -12 33
18 -1 13 3 26 9 31 7 5 5 12 -6 21 -10 7 -15 16 -11 20 14 14 9 46 -7 46 -13
0 -16 -11 -15 -60z"/>
<path d="M1563 2345 c-1 -30 2 -55 5 -55 21 1 31 20 30 55 -1 22 -3 34 -6 27
-6 -20 -20 -13 -15 8 3 11 1 20 -3 20 -5 0 -10 -25 -11 -55z"/>
<path d="M149 2280 c-12 -7 -16 -21 -14 -45 1 -19 -3 -35 -8 -35 -6 0 -2 -7 9
-16 10 -8 13 -13 7 -9 -7 3 -13 1 -13 -4 0 -6 9 -11 20 -11 20 0 21 14 4 68
-2 8 -1 19 3 25 7 11 14 37 10 37 -1 0 -9 -5 -18 -10z"/>
<path d="M1581 2251 c-7 -5 -10 -14 -7 -20 11 -17 23 -13 29 9 6 22 0 25 -22
11z"/>
<path d="M1568 2192 c-6 -42 2 -62 24 -62 11 0 18 5 15 13 -2 6 -11 11 -18 9
-11 -3 -12 -1 -1 9 16 17 15 46 -2 52 -9 4 -15 -3 -18 -21z"/>
<path d="M128 2133 c6 -2 10 -9 6 -14 -3 -5 0 -9 5 -9 6 0 11 -5 11 -11 0 -5
-4 -8 -9 -5 -5 4 -11 0 -14 -6 -2 -7 5 -19 17 -26 12 -7 14 -11 6 -9 -10 3
-16 -2 -16 -14 0 -11 5 -19 11 -19 5 0 4 -4 -4 -9 -9 -6 -10 -11 -2 -15 16
-10 31 2 24 19 -3 9 0 22 6 29 8 10 9 16 1 21 -5 3 -10 22 -10 41 0 29 -3 34
-22 33 -13 0 -17 -3 -10 -6z"/>
<path d="M217 2103 c5 -12 3 -14 -7 -8 -9 5 -11 4 -6 -3 12 -20 42 -14 42 8 0
12 -7 20 -18 20 -12 0 -15 -5 -11 -17z"/>
<path d="M1566 2077 c3 -56 4 -58 17 -51 9 6 9 4 1 -7 -15 -20 -15 -59 1 -59
15 0 23 49 17 109 -3 30 -9 41 -21 41 -12 0 -16 -8 -15 -33z"/>
<path d="M139 1966 c-1 -3 -2 -9 -3 -13 -1 -5 -4 -13 -8 -18 -10 -16 8 -39 24
-33 17 7 16 60 0 66 -7 2 -13 1 -13 -2z"/>
<path d="M1572 1928 c6 -18 28 -21 28 -4 0 9 -7 16 -16 16 -9 0 -14 -5 -12
-12z"/>
<path d="M1565 1900 c-9 -15 4 -30 20 -23 8 3 15 9 15 13 0 12 -29 20 -35 10z"/>
<path d="M127 1860 c-4 -15 0 -20 13 -20 13 0 18 7 17 20 -1 11 -7 20 -13 20
-6 0 -14 -9 -17 -20z"/>
<path d="M1566 1835 c-4 -11 1 -15 17 -15 16 0 18 3 8 9 -11 7 -11 9 0 14 10
4 10 6 -2 6 -9 1 -19 -6 -23 -14z"/>
<path d="M130 1810 c9 -6 11 -13 5 -17 -6 -5 -11 -25 -12 -45 -2 -35 -1 -38
25 -37 15 0 21 3 14 6 -6 2 -10 9 -7 14 4 5 7 27 8 49 2 37 1 40 -23 40 -20 0
-22 -2 -10 -10z m20 -50 c0 -5 -2 -10 -4 -10 -3 0 -8 5 -11 10 -3 6 -1 10 4
10 6 0 11 -4 11 -10z"/>
<path d="M1560 1776 c0 -9 6 -16 13 -16 7 0 8 -3 2 -8 -15 -11 -17 -32 -5 -47
8 -10 7 -14 -2 -18 -7 -3 -3 -6 10 -6 25 -1 28 8 10 28 -8 8 -8 11 -2 8 8 -5
12 7 12 36 0 23 -2 36 -5 29 -4 -10 -8 -10 -19 -1 -11 9 -14 8 -14 -5z"/>
<path d="M136 1681 c-4 -5 -1 -13 5 -17 9 -5 7 -11 -5 -19 -15 -12 -15 -13 0
-19 21 -8 21 -8 26 28 3 29 -14 47 -26 27z"/>
<path d="M1571 1643 c-13 -26 -13 -26 -2 -55 7 -19 7 -28 0 -28 -6 0 -7 -4 -4
-10 3 -5 12 -10 19 -10 16 0 17 32 2 42 -7 5 -6 8 3 8 11 0 11 3 0 17 -10 11
-10 14 -1 9 8 -5 12 -1 12 13 0 27 -17 35 -29 14z"/>
<path d="M135 1611 c3 -5 0 -13 -6 -17 -8 -4 -7 -9 2 -15 20 -13 25 -11 26 10
1 11 -5 22 -13 25 -8 3 -12 2 -9 -3z"/>
<path d="M300 1480 c13 -9 13 -11 0 -20 -11 -7 -7 -10 18 -10 27 0 33 4 30 18
-2 11 -14 18 -33 20 -23 2 -27 0 -15 -8z"/>
<path d="M467 1476 c-4 -9 -2 -16 2 -16 5 0 16 -3 25 -6 12 -4 16 0 16 15 0
12 -4 21 -10 21 -5 0 -7 -8 -3 -17 5 -16 4 -15 -9 1 -13 17 -15 17 -21 2z"/>
<path d="M630 1480 c0 -5 6 -10 13 -10 8 0 7 -4 -3 -10 -12 -8 -9 -10 13 -10
20 0 27 5 27 20 0 15 -7 20 -25 20 -14 0 -25 -4 -25 -10z"/>
<path d="M795 1480 c-4 -7 -3 -16 3 -22 14 -14 47 -6 47 12 0 18 -40 26 -50
10z m45 -10 c0 -5 -4 -10 -10 -10 -5 0 -10 5 -10 10 0 6 5 10 10 10 6 0 10 -4
10 -10z"/>
<path d="M963 1468 c-2 -16 0 -19 6 -9 6 9 11 10 15 2 11 -18 26 -13 26 9 0
30 -45 28 -47 -2z"/>
<path d="M1125 1480 c-4 -7 -3 -16 3 -22 14 -14 47 -6 47 12 0 18 -40 26 -50
10z m45 -10 c0 -5 -2 -10 -4 -10 -3 0 -8 5 -11 10 -3 6 -1 10 4 10 6 0 11 -4
11 -10z"/>
<path d="M1290 1470 c0 -12 8 -17 25 -17 17 0 25 5 25 17 0 12 -8 18 -25 18
-17 0 -25 -6 -25 -18z"/>
<path d="M1450 1470 c0 -18 5 -21 33 -18 20 2 32 8 32 18 0 10 -12 16 -32 18
-28 3 -33 0 -33 -18z"/>
<path d="M1764 1470 c0 -14 7 -20 23 -20 16 0 23 6 23 20 0 14 -7 20 -23 20
-16 0 -23 -6 -23 -20z"/>
<path d="M1925 1480 c-4 -6 -3 -16 3 -22 6 -6 12 -6 17 2 4 6 3 16 -3 22 -6 6
-12 6 -17 -2z"/>
<path d="M1954 1470 c0 -11 4 -20 8 -20 4 0 8 9 8 20 0 11 -4 20 -8 20 -4 0
-8 -9 -8 -20z"/>
<path d="M2080 1470 c0 -12 8 -17 25 -17 17 0 25 5 25 17 0 12 -8 18 -25 18
-17 0 -25 -6 -25 -18z"/>
<path d="M2245 1480 c-4 -7 -3 -16 3 -22 14 -14 47 -6 47 12 0 18 -40 26 -50
10z m45 -10 c0 -5 -4 -10 -10 -10 -5 0 -10 5 -10 10 0 6 5 10 10 10 6 0 10 -4
10 -10z"/>
<path d="M2421 1469 c14 -14 24 -18 31 -11 15 15 0 32 -28 32 l-24 0 21 -21z"/>
<path d="M2570 1470 c0 -15 7 -20 25 -20 18 0 25 5 25 20 0 15 -7 20 -25 20
-18 0 -25 -5 -25 -20z"/>
<path d="M2730 1470 c0 -12 8 -17 25 -17 17 0 25 5 25 17 0 12 -8 18 -25 18
-17 0 -25 -6 -25 -18z"/>
<path d="M2890 1470 c0 -14 7 -18 30 -18 21 1 30 6 30 18 0 12 -9 17 -30 18
-23 0 -30 -4 -30 -18z"/>
<path d="M833 1397 c-3 -5 0 -14 6 -20 6 -6 11 -7 11 -1 0 5 4 3 9 -5 7 -10
13 -11 30 -2 23 13 28 31 9 32 -7 0 -23 2 -36 3 -13 2 -25 -1 -29 -7z"/>
<path d="M2283 1398 c-9 -16 8 -29 23 -17 11 9 17 9 28 0 10 -9 16 -9 21 -1 4
6 4 14 1 17 -9 9 -67 9 -73 1z"/>
<path d="M2310 1370 c0 -5 5 -10 10 -10 6 0 10 5 10 10 0 6 -4 10 -10 10 -5 0
-10 -4 -10 -10z"/>
<path d="M676 1324 c-3 -9 -2 -23 4 -32 7 -14 9 -10 10 16 0 35 -5 41 -14 16z"/>
<path d="M727 1312 l3 -27 -11 25 c-11 22 -13 23 -17 6 -4 -17 12 -35 31 -36
10 0 9 48 -2 54 -4 3 -6 -7 -4 -22z"/>
<path d="M770 1333 c0 -6 -3 -20 -6 -30 -4 -13 -3 -15 4 -4 7 9 12 10 16 2 4
-6 12 -11 17 -11 6 0 7 5 4 10 -3 6 -1 10 4 10 6 0 11 -4 11 -9 0 -6 9 -9 20
-8 13 1 19 6 15 15 -3 7 -5 18 -5 23 0 5 -5 9 -11 9 -6 0 -8 -9 -4 -22 4 -16
4 -19 -3 -9 -5 7 -16 11 -23 9 -8 -3 -19 2 -26 11 -7 9 -12 11 -13 4z"/>
<path d="M871 1319 c-1 -16 4 -26 14 -26 8 0 12 4 9 9 -3 4 0 8 6 8 6 0 8 5 5
10 -4 6 -10 8 -15 5 -4 -3 -11 1 -13 7 -3 7 -6 1 -6 -13z"/>
<path d="M1112 1328 c-7 -7 -12 -8 -12 -4 0 5 -7 3 -15 -4 -15 -13 -12 -30 6
-30 6 0 7 6 3 13 -6 9 -5 9 7 0 11 -9 16 -7 26 13 12 26 5 32 -15 12z"/>
<path d="M1238 1334 c-8 -7 -35 -12 -70 -13 -29 -1 -41 -31 -13 -31 8 0 15 6
15 13 0 7 3 8 8 2 10 -15 104 -16 96 -2 -5 8 -2 7 7 0 19 -18 41 -16 37 4 -3
17 -45 26 -54 11 -3 -4 -10 -6 -15 -2 -5 3 -7 10 -4 15 7 10 2 12 -7 3z"/>
<path d="M1410 1318 c0 -14 -3 -18 -8 -12 -4 7 -20 14 -37 15 -22 3 -31 0 -33
-13 -4 -21 33 -26 41 -5 4 10 6 10 6 0 1 -7 10 -13 21 -13 15 0 20 7 20 25 0
14 -2 25 -5 25 -3 0 -5 -10 -5 -22z"/>
<path d="M1540 1335 c0 -9 -17 -14 -55 -17 -5 0 -16 1 -24 3 -8 2 -17 -4 -19
-13 -3 -15 4 -17 41 -15 35 1 44 5 40 17 -3 11 -1 10 10 -3 11 -14 16 -15 20
-5 4 10 6 10 6 1 1 -7 12 -13 26 -13 14 0 25 6 25 13 0 8 3 8 8 1 4 -6 28 -11
55 -13 44 -2 47 0 47 24 0 14 -4 25 -10 25 -5 0 -10 -4 -10 -9 0 -6 -9 -8 -20
-6 -11 2 -22 0 -25 -6 -4 -5 -14 -5 -23 -1 -9 5 -30 7 -47 6 -16 -2 -33 2 -37
9 -4 7 -8 7 -8 2z"/>
<path d="M1831 1318 c-1 -17 4 -28 12 -28 7 0 13 9 13 19 0 11 -3 18 -7 15 -4
-2 -10 2 -12 8 -3 7 -6 1 -6 -14z"/>
<path d="M2039 1318 c0 -13 -3 -17 -6 -10 -7 17 -99 16 -106 -2 -6 -15 1 -26
16 -26 5 0 7 7 4 15 -5 12 -2 12 19 3 20 -10 27 -9 35 3 6 10 9 10 9 2 0 -7 9
-13 20 -13 15 0 20 7 20 25 0 31 -10 33 -11 3z"/>
<path d="M2062 1314 c-1 -13 3 -24 8 -24 12 0 14 37 2 44 -4 2 -9 -6 -10 -20z"/>
<path d="M2180 1315 c0 -20 5 -25 25 -25 15 0 25 6 25 14 0 23 -18 28 -30 9
-10 -16 -11 -16 -7 5 3 12 1 22 -4 22 -5 0 -9 -11 -9 -25z"/>
<path d="M2251 1331 c-8 -5 -11 -16 -8 -25 10 -25 27 -19 27 9 0 28 0 28 -19
16z"/>
<path d="M2422 1312 c-2 -22 0 -23 15 -11 11 10 14 10 9 2 -5 -9 1 -13 18 -13
16 0 26 6 26 15 0 18 -16 20 -23 3 -4 -8 -6 -7 -6 3 -1 9 -9 19 -19 21 -13 4
-18 -1 -20 -20z"/>
<path d="M2502 1315 c0 -16 2 -22 5 -12 2 9 2 23 0 30 -3 6 -5 -1 -5 -18z"/>
<path d="M2560 1330 c0 -5 -6 -9 -12 -7 -7 1 -14 -9 -16 -22 -2 -15 0 -21 7
-16 6 3 8 12 4 18 -4 7 0 6 10 -2 15 -12 17 -11 17 13 0 14 -2 26 -5 26 -3 0
-5 -4 -5 -10z"/>
<path d="M923 1313 c-8 -20 6 -30 17 -13 7 10 10 11 10 3 0 -7 7 -13 15 -13 8
0 15 6 15 13 0 6 5 4 11 -5 5 -10 17 -18 26 -18 10 0 13 5 8 18 -5 14 -4 15 6
5 17 -17 26 -16 26 2 0 18 -35 14 -48 -6 -7 -12 -9 -11 -9 2 0 22 -70 32 -77
12z"/>
<path d="M1730 1323 c0 -13 14 -28 28 -30 13 -3 16 7 4 22 -9 12 -32 18 -32 8z"/>
<path d="M1786 1323 c-10 -10 -7 -33 5 -33 5 0 7 6 3 13 -5 8 -2 8 9 -2 15
-11 17 -11 17 2 0 16 -24 30 -34 20z"/>
<path d="M2123 1323 c-20 -3 -33 -10 -33 -19 0 -17 36 -19 43 -1 4 10 6 10 6
0 2 -21 17 -15 18 7 1 11 1 19 0 18 -1 0 -17 -3 -34 -5z"/>
<path d="M2291 1320 c-7 -4 -12 -12 -10 -18 3 -7 10 -6 22 3 20 14 9 29 -12
15z"/>
<path d="M2338 1325 c-4 -4 -4 -13 -1 -21 7 -19 43 -18 43 2 0 10 -6 14 -14
11 -8 -3 -16 -1 -18 4 -2 6 -6 7 -10 4z"/>
<path d="M2640 1323 c0 -5 -13 -8 -30 -5 -23 3 -30 0 -30 -12 0 -9 7 -16 15
-16 8 0 15 6 15 13 0 7 3 8 8 2 12 -17 41 -17 38 -1 -2 18 -16 34 -16 19z"/>
<path d="M1873 1308 c2 -7 12 -13 22 -13 10 0 20 6 23 13 2 7 -6 12 -23 12
-17 0 -25 -5 -22 -12z"/>
<path d="M2390 1300 c0 -11 4 -20 9 -20 6 0 9 9 8 20 -1 11 -5 20 -9 20 -4 0
-8 -9 -8 -20z"/>
<path d="M213 1165 c0 -17 5 -23 18 -22 11 1 19 7 19 14 0 10 127 12 610 13
l610 0 0 -505 0 -505 -600 0 -600 0 -1 48 c0 26 -1 135 -1 243 0 191 -1 197
-22 208 -21 11 -21 11 0 6 21 -5 21 -4 20 242 0 137 -2 231 -4 211 -3 -33 -6
-36 -28 -32 -26 5 -31 -5 -11 -25 10 -11 10 -13 0 -7 -7 4 -13 2 -13 -4 0 -6
11 -8 25 -6 23 4 25 2 25 -30 0 -19 -3 -33 -7 -33 -21 3 -33 -2 -33 -16 0 -14
12 -19 33 -16 4 0 7 -15 7 -34 0 -19 -3 -34 -7 -34 -30 5 -43 -25 -16 -35 9
-4 11 -1 7 6 -4 7 -3 8 4 4 7 -4 12 -23 12 -42 0 -31 -8 -39 -32 -35 -5 0 -8
-6 -8 -14 0 -8 9 -15 20 -15 16 0 20 -7 20 -35 0 -19 -3 -34 -7 -34 -36 6 -47
-29 -13 -38 14 -4 20 -14 20 -34 0 -16 -3 -28 -7 -28 -21 3 -33 -2 -33 -16 0
-14 12 -19 33 -16 4 0 7 -15 7 -34 0 -24 -5 -35 -15 -35 -18 0 -20 -26 -3 -36
7 -5 8 -3 3 6 -5 9 -4 11 3 6 18 -11 15 -76 -3 -76 -19 0 -19 -29 0 -36 21 -8
19 -54 -2 -70 -17 -13 -17 -15 -1 -25 23 -13 25 -69 3 -69 -8 0 -15 -8 -15
-17 0 -17 32 -18 547 -16 302 2 585 3 631 3 l82 0 0 515 0 515 -612 0 c-337 0
-615 0 -618 1 -3 0 -15 2 -26 4 -17 4 -21 0 -21 -20z"/>
<path d="M1647 1181 c-12 -24 0 -36 36 -33 l37 4 0 -84 0 -84 -32 -2 c-38 -3
-39 -4 -29 -20 4 -6 19 -13 34 -14 27 -2 27 -3 27 -84 0 -78 -1 -81 -22 -81
-13 -1 -28 -1 -35 -2 -17 -2 -3 -41 14 -41 13 0 13 3 2 18 -13 16 -13 16 7 -1
11 -9 24 -14 27 -10 4 3 7 -32 7 -78 0 -80 -1 -85 -22 -86 -26 -2 -41 -24 -27
-38 7 -7 15 -4 23 8 12 16 14 16 20 1 3 -8 6 -51 6 -95 0 -71 -2 -79 -19 -79
-27 0 -47 -26 -26 -34 9 -3 18 1 22 10 12 32 23 -11 23 -93 0 -67 -3 -83 -15
-83 -8 0 -15 -8 -15 -17 0 -17 20 -18 292 -16 161 2 438 3 616 3 l322 0 0 515
0 515 -602 1 c-332 1 -618 2 -636 4 -18 1 -34 -1 -35 -4z m38 -11 c3 -5 1 -10
-4 -10 -6 0 -11 5 -11 10 0 6 2 10 4 10 3 0 8 -4 11 -10z m1225 -505 l0 -505
-590 0 -590 0 0 505 0 505 590 0 590 0 0 -505z"/>
<path d="M2552 1135 c0 -16 2 -22 5 -12 2 9 2 23 0 30 -3 6 -5 -1 -5 -18z"/>
<path d="M2212 1130 c0 -14 2 -19 5 -12 2 6 2 18 0 25 -3 6 -5 1 -5 -13z"/>
<path d="M2090 1075 c0 -9 5 -15 11 -13 6 2 11 8 11 13 0 5 -5 11 -11 13 -6 2
-11 -4 -11 -13z"/>
<path d="M2160 1075 c0 -8 5 -15 10 -15 6 0 10 7 10 15 0 8 -4 15 -10 15 -5 0
-10 -7 -10 -15z"/>
<path d="M2190 1074 c0 -10 10 -14 30 -12 17 1 30 7 30 13 0 5 -13 11 -30 11
-20 1 -30 -3 -30 -12z"/>
<path d="M2260 1078 c0 -7 11 -15 25 -16 14 -1 25 3 25 8 0 6 -4 10 -9 10 -5
0 -16 3 -25 6 -10 4 -16 1 -16 -8z"/>
<path d="M2363 1082 c-17 -2 -34 -10 -37 -18 -5 -12 -1 -14 16 -8 13 4 57 6
98 5 173 -5 175 -5 178 13 3 13 -2 16 -20 12 -49 -11 -108 -15 -108 -8 0 7
-70 9 -127 4z"/>
<path d="M2130 1070 c0 -5 5 -10 10 -10 6 0 10 5 10 10 0 6 -4 10 -10 10 -5 0
-10 -4 -10 -10z"/>
<path d="M2030 1060 c0 -6 7 -10 15 -10 8 0 15 2 15 4 0 2 -7 6 -15 10 -8 3
-15 1 -15 -4z"/>
<path d="M2094 1035 c-9 -22 1 -29 15 -11 8 10 9 16 1 21 -5 3 -13 -1 -16 -10z"/>
<path d="M2130 1030 c0 -5 5 -10 10 -10 6 0 10 5 10 10 0 6 -4 10 -10 10 -5 0
-10 -4 -10 -10z"/>
<path d="M2160 1025 c0 -12 9 -15 35 -13 19 1 35 7 35 13 0 5 5 3 10 -5 8 -13
10 -12 10 3 0 12 -8 17 -29 17 -16 0 -32 -6 -34 -12 -4 -10 -6 -10 -6 0 -1 18
-21 15 -21 -3z"/>
<path d="M2260 1022 c0 -14 2 -15 10 -2 5 8 10 10 10 4 0 -6 7 -11 15 -11 26
0 16 23 -10 25 -18 1 -25 -3 -25 -16z"/>
<path d="M2325 1030 c-3 -5 -1 -11 3 -14 16 -10 292 -1 292 9 0 12 -288 17
-295 5z"/>
<path d="M2550 949 c0 -44 -2 -50 -15 -39 -8 6 -42 12 -75 12 -59 0 -67 5 -61
41 0 4 -3 7 -8 7 -5 0 -11 -10 -13 -22 -3 -21 -9 -23 -68 -26 -35 -2 -70 -8
-77 -13 -9 -8 -13 0 -16 33 -4 43 -4 42 -4 -7 -2 -256 -3 -273 -19 -279 -9 -4
-22 -3 -28 2 -6 4 -24 9 -41 11 -16 2 -33 8 -37 15 -5 7 -8 7 -8 0 0 -7 -26
-5 -79 6 -93 21 -205 34 -176 21 11 -5 48 -12 82 -16 35 -4 61 -11 58 -15 -3
-4 10 -9 28 -9 70 -3 208 -32 201 -43 -3 -4 0 -8 5 -8 7 0 11 -36 11 -100 0
-60 -4 -100 -10 -100 -5 0 -10 5 -10 11 0 5 -5 7 -10 4 -7 -4 -3 -13 9 -24 18
-16 21 -32 24 -132 2 -63 3 -9 3 118 l-1 233 35 -6 c45 -8 49 -13 27 -28 -9
-7 -17 -18 -17 -24 0 -6 -6 -12 -12 -15 -7 -2 -9 -8 -5 -13 4 -5 12 -2 17 6
33 54 66 80 54 43 -5 -15 -4 -15 5 -3 5 8 13 11 17 7 4 -3 1 -13 -6 -22 -16
-20 -3 -19 17 1 9 8 19 12 22 7 8 -11 21 -10 46 4 19 11 19 12 -8 22 -16 6
-34 11 -40 10 -7 0 -1 -5 12 -10 13 -5 22 -11 20 -14 -8 -7 -104 29 -112 43
-4 6 -13 12 -20 12 -7 0 -6 -4 3 -10 12 -8 10 -10 -8 -10 -13 0 -20 4 -17 10
3 6 -1 13 -9 16 -13 5 -16 24 -16 94 0 48 5 101 11 119 11 30 12 31 74 31 48
0 66 4 73 16 8 14 10 14 21 0 10 -11 31 -16 76 -16 62 0 63 0 69 -31 9 -46 7
-79 -4 -79 -5 0 -10 -5 -10 -11 0 -5 5 -7 10 -4 6 4 10 -10 10 -34 0 -23 -4
-41 -8 -41 -5 0 -9 -7 -9 -15 0 -8 4 -15 9 -15 13 0 9 -98 -4 -104 -10 -5 -10
-7 0 -12 6 -3 12 -12 12 -20 0 -13 -5 -12 -32 3 -18 10 -36 22 -39 27 -4 5
-12 5 -18 2 -7 -5 -11 1 -11 14 l0 21 -32 -23 c-18 -13 -36 -23 -40 -23 -3 0
-10 -3 -14 -8 -4 -4 0 -7 9 -7 8 0 18 -6 21 -12 3 -8 5 -7 3 2 -1 9 2 16 7 17
5 1 12 7 17 14 6 10 10 9 15 -6 5 -11 3 -20 -4 -23 -23 -7 -12 -19 13 -14 22
4 25 1 25 -27 0 -38 -20 -42 -21 -3 0 24 -1 25 -9 7 -5 -11 -9 -17 -9 -12 -1
4 -10 -2 -22 -14 -11 -11 -19 -23 -16 -25 3 -3 12 2 21 11 20 20 43 10 25 -11
-16 -20 5 -18 25 2 21 20 22 84 1 84 -8 0 -15 5 -15 11 0 6 3 9 8 7 83 -37 92
-43 92 -64 0 -13 -7 -24 -17 -27 -17 -4 -17 -5 0 -6 19 -1 23 -16 7 -24 -6 -3
-5 -4 2 -3 7 1 14 17 16 34 2 18 8 32 14 32 6 0 8 -3 5 -7 -4 -3 4 -12 18 -19
19 -10 31 -10 55 -1 38 14 39 28 1 21 -17 -4 -41 0 -60 10 l-31 17 -1 192 c0
105 0 216 1 245 1 28 -1 52 -4 52 -3 0 -6 -23 -6 -51z m-325 -299 c3 -5 -1
-10 -10 -10 -9 0 -13 5 -10 10 3 6 8 10 10 10 2 0 7 -4 10 -10z"/>
<path d="M2435 960 c-4 -6 -4 -10 -1 -10 2 0 11 -3 20 -6 9 -3 16 -2 16 4 0
14 -28 23 -35 12z"/>
<path d="M2160 920 c0 -5 5 -10 10 -10 6 0 10 5 10 10 0 6 -4 10 -10 10 -5 0
-10 -4 -10 -10z"/>
<path d="M2340 880 c0 -5 5 -10 11 -10 5 0 7 5 4 10 -3 6 -8 10 -11 10 -2 0
-4 -4 -4 -10z"/>
<path d="M2458 858 c-25 -31 -23 -46 2 -18 11 13 20 27 20 32 0 12 -3 10 -22
-14z"/>
<path d="M2275 860 c-3 -5 -1 -10 4 -10 6 0 11 5 11 10 0 6 -2 10 -4 10 -3 0
-8 -4 -11 -10z"/>
<path d="M1950 849 c0 -5 5 -7 10 -4 6 3 10 8 10 11 0 2 -4 4 -10 4 -5 0 -10
-5 -10 -11z"/>
<path d="M2354 839 c-19 -21 -19 -21 9 -8 15 7 27 16 27 21 0 14 -16 9 -36
-13z"/>
<path d="M2095 830 c-3 -5 -1 -10 4 -10 6 0 11 5 11 10 0 6 -2 10 -4 10 -3 0
-8 -4 -11 -10z"/>
<path d="M2274 833 c10 -10 46 -11 46 -1 0 4 -12 8 -27 8 -14 0 -23 -3 -19 -7z"/>
<path d="M1921 808 c0 -9 -7 -18 -13 -21 -7 -2 -11 -7 -8 -10 11 -12 32 11 27
29 -4 15 -5 16 -6 2z"/>
<path d="M2260 790 c0 -17 -5 -30 -12 -30 -9 0 -8 -4 2 -10 13 -8 12 -10 -2
-10 -10 0 -18 -4 -18 -9 0 -5 8 -7 19 -4 12 3 19 14 19 31 0 14 5 28 11 30 16
5 14 19 -4 26 -11 4 -15 -2 -15 -24z"/>
<path d="M2435 790 c-3 -5 -1 -10 4 -10 6 0 11 5 11 10 0 6 -2 10 -4 10 -3 0
-8 -4 -11 -10z"/>
<path d="M2350 780 c0 -5 5 -10 10 -10 6 0 10 5 10 10 0 6 -4 10 -10 10 -5 0
-10 -4 -10 -10z"/>
<path d="M2160 770 c0 -5 5 -10 10 -10 6 0 10 5 10 10 0 6 -4 10 -10 10 -5 0
-10 -4 -10 -10z"/>
<path d="M2286 764 c-8 -22 -4 -25 11 -9 7 8 9 16 4 19 -5 3 -12 -1 -15 -10z"/>
<path d="M1900 750 c0 -5 5 -10 10 -10 6 0 10 5 10 10 0 6 -4 10 -10 10 -5 0
-10 -4 -10 -10z"/>
<path d="M1950 746 c0 -9 5 -16 10 -16 6 0 10 4 10 9 0 6 -4 13 -10 16 -5 3
-10 -1 -10 -9z"/>
<path d="M2000 744 c0 -8 5 -12 10 -9 6 4 8 11 5 16 -9 14 -15 11 -15 -7z"/>
<path d="M2320 751 c0 -6 5 -11 10 -11 6 0 10 -7 10 -15 0 -8 4 -15 10 -15 13
0 -4 43 -18 48 -7 2 -12 -1 -12 -7z"/>
<path d="M2480 750 c0 -5 5 -10 10 -10 6 0 10 5 10 10 0 6 -4 10 -10 10 -5 0
-10 -4 -10 -10z"/>
<path d="M2695 740 c-3 -5 -1 -10 4 -10 6 0 11 5 11 10 0 6 -2 10 -4 10 -3 0
-8 -4 -11 -10z"/>
<path d="M2030 725 c0 -8 7 -15 15 -15 8 0 15 4 15 9 0 5 -7 11 -15 15 -9 3
-15 0 -15 -9z"/>
<path d="M2267 718 c-7 -5 -1 -8 16 -8 15 0 27 -5 27 -11 0 -6 -7 -9 -15 -6
-22 9 -30 -13 -11 -31 15 -15 16 -15 11 -1 -4 10 0 19 9 22 24 9 20 43 -4 43
-12 0 -26 -4 -33 -8z"/>
<path d="M2370 720 c0 -5 5 -10 11 -10 5 0 7 5 4 10 -3 6 -8 10 -11 10 -2 0
-4 -4 -4 -10z"/>
<path d="M2450 711 c0 -12 5 -21 10 -21 6 0 10 6 10 14 0 8 -4 18 -10 21 -5 3
-10 -3 -10 -14z"/>
<path d="M1980 710 c0 -5 5 -10 10 -10 6 0 10 5 10 10 0 6 -4 10 -10 10 -5 0
-10 -4 -10 -10z"/>
<path d="M2480 711 c0 -6 5 -13 10 -16 6 -3 10 1 10 9 0 9 -4 16 -10 16 -5 0
-10 -4 -10 -9z"/>
<path d="M2580 700 c0 -5 5 -10 10 -10 6 0 10 5 10 10 0 6 -4 10 -10 10 -5 0
-10 -4 -10 -10z"/>
<path d="M2332 679 c-9 -13 -9 -19 -1 -19 6 0 9 -9 6 -20 -3 -11 -1 -20 4 -20
5 0 9 6 9 14 0 8 6 17 13 19 7 3 5 6 -5 6 -20 1 -24 17 -6 23 7 3 8 7 2 11 -5
3 -15 -3 -22 -14z"/>
<path d="M1815 680 c-3 -5 1 -10 10 -10 9 0 13 5 10 10 -3 6 -8 10 -10 10 -2
0 -7 -4 -10 -10z"/>
<path d="M1850 680 c0 -5 5 -10 10 -10 6 0 10 5 10 10 0 6 -4 10 -10 10 -5 0
-10 -4 -10 -10z"/>
<path d="M1888 673 c7 -3 16 -2 19 1 4 3 -2 6 -13 5 -11 0 -14 -3 -6 -6z"/>
<path d="M1928 673 c7 -3 16 -2 19 1 4 3 -2 6 -13 5 -11 0 -14 -3 -6 -6z"/>
<path d="M2400 670 c0 -5 5 -10 10 -10 6 0 10 5 10 10 0 6 -4 10 -10 10 -5 0
-10 -4 -10 -10z"/>
<path d="M2458 673 c-17 -4 -34 -33 -19 -33 5 0 11 5 13 11 2 5 18 11 36 11
18 1 31 3 28 5 -6 6 -40 10 -58 6z"/>
<path d="M2580 660 c0 -5 5 -10 10 -10 6 0 10 5 10 10 0 6 -4 10 -10 10 -5 0
-10 -4 -10 -10z"/>
<path d="M2305 640 c-3 -5 -1 -10 4 -10 6 0 11 5 11 10 0 6 -2 10 -4 10 -3 0
-8 -4 -11 -10z"/>
<path d="M2685 630 c-3 -5 1 -10 9 -10 9 0 16 5 16 10 0 6 -4 10 -9 10 -6 0
-13 -4 -16 -10z"/>
<path d="M2444 618 c-5 -7 -3 -8 6 -3 7 4 16 2 21 -6 7 -11 9 -10 9 4 0 19
-25 23 -36 5z"/>
<path d="M1805 610 c3 -5 8 -10 11 -10 2 0 4 5 4 10 0 6 -5 10 -11 10 -5 0 -7
-4 -4 -10z"/>
<path d="M2615 580 c-3 -5 -1 -10 4 -10 6 0 11 5 11 10 0 6 -2 10 -4 10 -3 0
-8 -4 -11 -10z"/>
<path d="M2490 570 c0 -6 7 -10 15 -10 8 0 15 2 15 4 0 2 -7 6 -15 10 -8 3
-15 1 -15 -4z"/>
<path d="M2680 570 c0 -5 5 -10 11 -10 5 0 7 5 4 10 -3 6 -8 10 -11 10 -2 0
-4 -4 -4 -10z"/>
<path d="M2130 550 c0 -5 5 -10 11 -10 5 0 7 5 4 10 -3 6 -8 10 -11 10 -2 0
-4 -4 -4 -10z"/>
<path d="M2571 544 c0 -11 3 -14 6 -6 3 7 2 16 -1 19 -3 4 -6 -2 -5 -13z"/>
<path d="M2080 540 c0 -5 5 -10 10 -10 6 0 10 5 10 10 0 6 -4 10 -10 10 -5 0
-10 -4 -10 -10z"/>
<path d="M2273 535 c0 -10 6 -14 14 -10 8 3 17 5 19 5 3 0 2 5 -1 10 -10 16
-32 12 -32 -5z"/>
<path d="M2181 514 c0 -11 3 -14 6 -6 3 7 2 16 -1 19 -3 4 -6 -2 -5 -13z"/>
<path d="M2350 516 c-6 -9 -10 -21 -7 -28 4 -9 6 -7 6 4 1 9 7 18 14 21 6 2 9
7 6 11 -3 4 -12 0 -19 -8z"/>
<path d="M1800 510 c0 -5 5 -10 10 -10 6 0 10 5 10 10 0 6 -4 10 -10 10 -5 0
-10 -4 -10 -10z"/>
<path d="M2267 503 c-13 -12 -7 -25 6 -14 8 6 16 8 19 5 3 -3 9 -1 13 5 7 12
-27 15 -38 4z"/>
<path d="M2505 490 c3 -5 10 -10 16 -10 5 0 9 5 9 10 0 6 -7 10 -16 10 -8 0
-12 -4 -9 -10z"/>
<path d="M2780 485 c-10 -13 -9 -15 9 -15 12 0 21 6 21 15 0 8 -4 15 -9 15 -5
0 -14 -7 -21 -15z"/>
<path d="M2303 483 c-15 -5 -17 -23 -4 -23 5 0 11 7 15 15 3 8 4 15 3 14 -1 0
-8 -3 -14 -6z"/>
<path d="M2181 464 c0 -11 3 -14 6 -6 3 7 2 16 -1 19 -3 4 -6 -2 -5 -13z"/>
<path d="M2365 470 c-4 -6 -12 -7 -18 -4 -9 5 -9 4 0 -6 9 -10 15 -10 28 4 9
9 12 16 6 16 -5 0 -13 -5 -16 -10z"/>
<path d="M2695 470 c-3 -5 -1 -10 4 -10 6 0 11 5 11 10 0 6 -2 10 -4 10 -3 0
-8 -4 -11 -10z"/>
<path d="M2630 440 c-13 -11 -20 -23 -16 -27 4 -4 11 -1 16 7 8 13 13 13 31 2
11 -7 23 -11 26 -9 3 3 -5 11 -17 17 -12 6 -19 14 -16 17 9 9 76 -38 76 -53 0
-8 5 -14 11 -14 5 0 7 5 4 10 -9 15 8 12 33 -6 12 -8 22 -11 22 -7 0 8 -129
83 -142 83 -3 0 -15 -9 -28 -20z"/>
<path d="M2748 453 c7 -3 16 -2 19 1 4 3 -2 6 -13 5 -11 0 -14 -3 -6 -6z"/>
<path d="M2252 424 c-7 -8 -12 -20 -9 -27 2 -7 9 -2 16 11 15 28 11 36 -7 16z"/>
<path d="M2550 410 c-14 -11 -19 -20 -12 -20 6 0 12 -6 12 -14 0 -8 -6 -17
-12 -19 -10 -4 -9 -6 1 -6 11 -1 11 -4 1 -16 -9 -10 -9 -15 -1 -15 7 0 11 -27
11 -77 0 -42 3 -74 6 -71 3 4 6 57 5 119 0 76 4 116 12 121 6 4 9 9 7 12 -3 2
-16 -4 -30 -14z"/>
<path d="M2146 411 c-4 -7 -5 -15 -2 -18 9 -9 19 4 14 18 -4 11 -6 11 -12 0z"/>
<path d="M2485 411 c-3 -6 4 -9 15 -8 11 1 20 5 20 9 0 11 -28 10 -35 -1z"/>
<path d="M2275 400 c-3 -5 -1 -10 4 -10 6 0 11 5 11 10 0 6 -2 10 -4 10 -3 0
-8 -4 -11 -10z"/>
<path d="M2350 395 c0 -8 5 -15 10 -15 6 0 10 7 10 15 0 8 -4 15 -10 15 -5 0
-10 -7 -10 -15z"/>
<path d="M2705 400 c3 -5 8 -10 11 -10 2 0 4 5 4 10 0 6 -5 10 -11 10 -5 0 -7
-4 -4 -10z"/>
<path d="M2437 385 c-5 -11 0 -15 16 -15 12 0 18 4 12 8 -5 4 -13 11 -16 15
-4 4 -9 1 -12 -8z"/>
<path d="M2305 381 c-3 -5 -1 -12 5 -16 5 -3 10 1 10 9 0 18 -6 21 -15 7z"/>
<path d="M2510 370 c-9 -6 -10 -10 -3 -10 6 0 15 5 18 10 8 12 4 12 -15 0z"/>
<path d="M2760 370 c0 -5 5 -10 10 -10 6 0 10 5 10 10 0 6 -4 10 -10 10 -5 0
-10 -4 -10 -10z"/>
<path d="M2095 350 c-3 -5 -1 -10 4 -10 6 0 11 5 11 10 0 6 -2 10 -4 10 -3 0
-8 -4 -11 -10z"/>
<path d="M2592 346 c7 -8 15 -12 17 -11 5 6 -10 25 -20 25 -5 0 -4 -6 3 -14z"/>
<path d="M2695 350 c-3 -5 -1 -10 4 -10 6 0 11 5 11 10 0 6 -2 10 -4 10 -3 0
-8 -4 -11 -10z"/>
<path d="M2785 350 c-3 -6 1 -7 9 -4 18 7 21 14 7 14 -6 0 -13 -4 -16 -10z"/>
<path d="M2240 335 c0 -8 5 -15 10 -15 6 0 10 7 10 15 0 8 -4 15 -10 15 -5 0
-10 -7 -10 -15z"/>
<path d="M2355 340 c-3 -5 -1 -10 4 -10 6 0 11 5 11 10 0 6 -2 10 -4 10 -3 0
-8 -4 -11 -10z"/>
<path d="M2400 330 c0 -5 5 -10 10 -10 6 0 10 5 10 10 0 6 -4 10 -10 10 -5 0
-10 -4 -10 -10z"/>
<path d="M2630 329 c0 -5 5 -7 10 -4 6 3 10 8 10 11 0 2 -4 4 -10 4 -5 0 -10
-5 -10 -11z"/>
<path d="M2680 316 c0 -9 -4 -16 -10 -16 -5 0 -10 -7 -10 -16 0 -8 4 -13 9
-10 5 4 11 3 14 -1 2 -5 2 -2 0 6 -2 7 1 19 7 26 8 9 8 15 0 20 -5 3 -10 -1
-10 -9z"/>
<path d="M2790 320 c0 -5 5 -10 10 -10 6 0 10 5 10 10 0 6 -4 10 -10 10 -5 0
-10 -4 -10 -10z"/>
<path d="M2593 303 c-15 -5 -17 -33 -3 -33 6 0 10 4 10 10 0 5 8 7 18 4 10 -4
13 -2 7 3 -5 4 -12 11 -15 14 -3 4 -11 4 -17 2z"/>
<path d="M2260 240 c0 -11 4 -20 9 -20 5 0 7 9 4 20 -3 11 -7 20 -9 20 -2 0
-4 -9 -4 -20z"/>
<path d="M2610 246 c0 -8 5 -18 10 -21 6 -3 10 3 10 14 0 12 -4 21 -10 21 -5
0 -10 -6 -10 -14z"/>
<path d="M2580 210 c0 -5 5 -10 10 -10 6 0 10 5 10 10 0 6 -4 10 -10 10 -5 0
-10 -4 -10 -10z"/>
<path d="M2731 204 c0 -11 3 -14 6 -6 3 7 2 16 -1 19 -3 4 -6 -2 -5 -13z"/>
<path d="M764 970 c0 -107 2 -151 3 -97 2 53 2 141 0 195 -1 53 -3 9 -3 -98z"/>
<path d="M1113 1085 c0 -38 2 -53 4 -32 2 20 2 52 0 70 -2 17 -4 1 -4 -38z"/>
<path d="M710 1110 c0 -5 5 -10 10 -10 6 0 10 5 10 10 0 6 -4 10 -10 10 -5 0
-10 -4 -10 -10z"/>
<path d="M1566 1069 c-9 -45 -8 -49 12 -43 15 5 15 4 1 -8 -10 -8 -16 -31 -16
-65 -1 -45 1 -53 17 -53 14 0 18 8 18 38 0 20 -5 43 -11 51 -9 11 -9 15 1 18
6 3 12 11 12 18 0 7 -6 16 -12 18 -10 4 -10 6 0 6 7 1 10 6 7 11 -3 6 -1 10 4
10 6 0 11 7 11 15 0 8 -8 15 -19 15 -13 0 -20 -10 -25 -31z"/>
<path d="M910 1070 c0 -5 5 -10 10 -10 6 0 10 5 10 10 0 6 -4 10 -10 10 -5 0
-10 -4 -10 -10z"/>
<path d="M139 1068 c0 -1 -1 -34 -2 -73 -1 -56 1 -70 13 -70 17 0 20 21 8 47
-7 14 -5 16 8 11 13 -5 15 -3 8 8 -5 8 -9 27 -9 43 0 16 -6 31 -13 34 -6 2
-12 2 -13 0z"/>
<path d="M610 1041 c0 -10 30 -24 37 -17 3 2 -5 9 -16 16 -12 6 -21 7 -21 1z"/>
<path d="M545 1030 c-3 -5 -1 -10 4 -10 6 0 11 5 11 10 0 6 -2 10 -4 10 -3 0
-8 -4 -11 -10z"/>
<path d="M825 1010 c-3 -5 -1 -10 4 -10 6 0 11 5 11 10 0 6 -2 10 -4 10 -3 0
-8 -4 -11 -10z"/>
<path d="M897 993 c-12 -12 -7 -22 8 -17 8 4 15 10 15 15 0 11 -14 12 -23 2z"/>
<path d="M930 985 c0 -8 5 -15 10 -15 6 0 10 7 10 15 0 8 -4 15 -10 15 -5 0
-10 -7 -10 -15z"/>
<path d="M963 986 c5 -14 47 -17 47 -2 0 6 -11 12 -25 12 -16 1 -24 -3 -22
-10z"/>
<path d="M1020 983 c0 -15 2 -16 10 -3 7 11 10 11 10 2 0 -7 5 -10 10 -7 17
10 11 25 -10 25 -12 0 -20 -7 -20 -17z"/>
<path d="M1070 982 c0 -8 9 -12 22 -10 30 4 33 23 3 23 -14 0 -25 -6 -25 -13z"/>
<path d="M1130 985 c0 -8 7 -15 15 -15 8 0 15 4 15 9 0 5 -7 11 -15 15 -9 3
-15 0 -15 -9z"/>
<path d="M1180 992 c-5 -2 -10 -7 -10 -11 0 -4 56 -8 125 -8 84 1 125 4 125
12 0 7 -37 11 -115 10 -63 0 -119 -1 -125 -3z"/>
<path d="M831 953 c-1 -13 -5 -23 -11 -23 -5 0 -10 -9 -10 -20 0 -11 4 -20 10
-20 5 0 7 7 4 15 -4 9 5 19 28 29 27 12 29 15 11 15 -12 1 -24 7 -26 14 -3 6
-6 2 -6 -10z"/>
<path d="M646 951 c-4 -7 -5 -15 -2 -18 9 -9 19 4 14 18 -4 11 -6 11 -12 0z"/>
<path d="M595 940 c-3 -5 -1 -10 4 -10 6 0 11 5 11 10 0 6 -2 10 -4 10 -3 0
-8 -4 -11 -10z"/>
<path d="M1010 939 c0 -5 5 -7 10 -4 6 3 10 8 10 11 0 2 -4 4 -10 4 -5 0 -10
-5 -10 -11z"/>
<path d="M1112 938 c-1 -9 -8 -18 -14 -20 -10 -4 -9 -8 2 -19 12 -12 14 -40
12 -137 -3 -117 -4 -122 -23 -112 -26 14 -24 3 4 -21 19 -16 20 -20 7 -29 -10
-6 -11 -10 -2 -10 6 0 12 -5 12 -11 0 -5 -4 -7 -10 -4 -5 3 -10 2 -10 -4 0 -5
6 -11 13 -14 6 -2 9 -7 6 -11 -10 -11 -39 5 -40 23 0 9 -3 11 -5 5 -8 -19
-103 25 -97 45 4 12 3 13 -4 3 -7 -9 -25 -11 -66 -6 -54 6 -81 24 -36 24 11 0
18 4 15 8 -3 5 -15 8 -28 7 -13 -1 -28 2 -35 7 -8 6 -16 4 -23 -9 -9 -14 -21
-17 -49 -15 -34 3 -37 6 -33 28 2 14 0 24 -8 24 -7 0 -9 -8 -5 -19 5 -16 1
-19 -22 -17 -70 6 -213 29 -213 35 0 3 -25 6 -55 6 -30 0 -55 -3 -55 -7 0 -5
18 -8 39 -8 22 0 46 -7 54 -15 10 -10 17 -11 19 -4 3 8 55 3 173 -17 94 -15
172 -29 175 -31 2 -2 -2 -8 -9 -12 -8 -6 -9 -11 -3 -15 6 -3 13 3 17 14 6 20
7 20 37 3 21 -12 32 -14 35 -7 8 22 123 -19 123 -43 0 -7 -4 -13 -10 -13 -20
0 -9 -21 16 -30 21 -8 24 -13 15 -24 -8 -10 -9 -16 -1 -21 5 -3 10 0 10 9 0 8
6 17 13 19 9 4 9 8 -2 15 -11 8 -11 11 0 16 8 3 4 3 -8 0 -19 -4 -23 -1 -23
19 l0 25 45 -21 45 -21 0 -53 c0 -29 -4 -53 -10 -53 -5 0 -10 -5 -10 -11 0 -5
5 -7 10 -4 6 4 10 -37 10 -116 0 -67 2 -120 5 -118 2 3 4 90 4 194 0 341 1
380 11 383 6 2 10 8 10 13 0 6 -4 7 -10 4 -6 -4 -10 10 -10 34 0 65 6 71 66
71 33 0 54 4 54 11 0 8 4 8 13 1 7 -6 35 -12 62 -14 43 -3 50 -6 53 -25 2 -13
7 -23 12 -23 4 0 5 12 1 28 -7 24 -12 27 -60 30 -38 2 -53 8 -57 20 -15 44
-17 46 -23 17 -6 -29 -9 -30 -63 -33 l-57 -3 -4 38 c-2 21 -4 31 -5 21z m-292
-298 c12 -8 11 -10 -7 -10 -13 0 -23 5 -23 10 0 13 11 13 30 0z"/>
<path d="M545 910 c-3 -5 -1 -10 4 -10 6 0 11 5 11 10 0 6 -2 10 -4 10 -3 0
-8 -4 -11 -10z"/>
<path d="M890 910 c0 -5 5 -10 10 -10 6 0 10 5 10 10 0 6 -4 10 -10 10 -5 0
-10 -4 -10 -10z"/>
<path d="M925 910 c-3 -5 -1 -10 4 -10 6 0 11 5 11 10 0 6 -2 10 -4 10 -3 0
-8 -4 -11 -10z"/>
<path d="M620 900 c-8 -5 -11 -12 -7 -16 4 -4 13 -2 19 4 15 15 7 24 -12 12z"/>
<path d="M152 884 c-7 -7 -15 -36 -17 -64 -5 -48 -4 -50 20 -50 15 0 24 4 20
10 -4 6 -11 7 -17 4 -6 -4 -5 3 2 15 8 16 8 26 1 35 -7 9 -7 16 0 23 6 6 9 18
7 26 -2 13 -5 13 -16 1z"/>
<path d="M990 891 c0 -5 7 -12 16 -15 24 -9 28 -7 14 9 -14 17 -30 20 -30 6z"/>
<path d="M840 875 c0 -17 2 -18 24 -9 23 9 20 24 -4 24 -11 0 -20 -7 -20 -15z"/>
<path d="M595 870 c-4 -6 -4 -10 -1 -10 2 0 11 -3 20 -6 9 -3 16 -2 16 4 0 14
-28 23 -35 12z"/>
<path d="M920 871 c0 -5 9 -11 20 -14 24 -6 27 8 4 17 -21 8 -24 8 -24 -3z"/>
<path d="M1045 870 c-3 -5 -1 -10 4 -10 6 0 11 5 11 10 0 6 -2 10 -4 10 -3 0
-8 -4 -11 -10z"/>
<path d="M890 860 c0 -5 5 -10 10 -10 6 0 10 5 10 10 0 6 -4 10 -10 10 -5 0
-10 -4 -10 -10z"/>
<path d="M1582 858 c-9 -12 -15 -58 -13 -100 1 -11 9 -18 22 -18 11 0 17 5 14
10 -4 6 -12 7 -18 4 -8 -5 -8 -3 1 7 6 7 12 21 12 31 0 10 -6 18 -12 18 -10 0
-10 2 -1 8 7 4 11 18 10 30 -2 26 -1 26 -15 10z"/>
<path d="M920 840 c-8 -5 -12 -11 -9 -14 2 -3 11 -1 19 4 8 5 12 11 9 14 -2 3
-11 1 -19 -4z"/>
<path d="M1015 840 c3 -5 15 -10 26 -10 10 0 19 5 19 10 0 6 -12 10 -26 10
-14 0 -23 -4 -19 -10z"/>
<path d="M1160 840 c0 -5 5 -10 11 -10 5 0 7 5 4 10 -3 6 -8 10 -11 10 -2 0
-4 -4 -4 -10z"/>
<path d="M960 830 c0 -5 5 -10 11 -10 5 0 7 5 4 10 -3 6 -8 10 -11 10 -2 0 -4
-4 -4 -10z"/>
<path d="M350 820 c0 -5 7 -10 16 -10 8 0 12 5 9 10 -3 6 -10 10 -16 10 -5 0
-9 -4 -9 -10z"/>
<path d="M710 815 c0 -8 4 -15 8 -15 5 0 9 7 9 15 0 8 -4 15 -9 15 -4 0 -8 -7
-8 -15z"/>
<path d="M808 798 c-3 -28 -7 -33 -28 -31 -23 2 -23 2 -5 -6 27 -13 48 -13 40
-1 -3 6 -2 10 2 10 5 0 9 14 9 30 2 41 -14 38 -18 -2z"/>
<path d="M840 820 c0 -5 5 -10 10 -10 6 0 10 5 10 10 0 6 -4 10 -10 10 -5 0
-10 -4 -10 -10z"/>
<path d="M990 815 c0 -8 5 -15 10 -15 6 0 10 7 10 15 0 8 -4 15 -10 15 -5 0
-10 -7 -10 -15z"/>
<path d="M1070 820 c0 -5 5 -10 10 -10 6 0 10 5 10 10 0 6 -4 10 -10 10 -5 0
-10 -4 -10 -10z"/>
<path d="M398 813 c7 -3 16 -2 19 1 4 3 -2 6 -13 5 -11 0 -14 -3 -6 -6z"/>
<path d="M435 809 c8 -11 55 -12 55 -1 0 5 -14 9 -30 10 -17 0 -28 -4 -25 -9z"/>
<path d="M505 810 c-3 -5 1 -10 10 -10 9 0 13 5 10 10 -3 6 -8 10 -10 10 -2 0
-7 -4 -10 -10z"/>
<path d="M1025 810 c3 -5 8 -10 11 -10 2 0 4 5 4 10 0 6 -5 10 -11 10 -5 0 -7
-4 -4 -10z"/>
<path d="M545 800 c4 -6 11 -8 16 -5 14 9 11 15 -7 15 -8 0 -12 -5 -9 -10z"/>
<path d="M580 794 c0 -8 5 -12 10 -9 6 3 10 10 10 16 0 5 -4 9 -10 9 -5 0 -10
-7 -10 -16z"/>
<path d="M622 802 c-10 -3 -7 -8 7 -19 16 -11 25 -11 38 -3 16 10 16 11 -4 7
-12 -3 -23 0 -25 8 -2 6 -9 10 -16 7z"/>
<path d="M890 800 c0 -5 9 -10 21 -10 11 0 17 -4 14 -10 -3 -5 2 -10 12 -10
10 0 24 9 31 20 7 11 8 20 3 20 -5 0 -11 -6 -14 -12 -3 -10 -9 -10 -26 0 -25
15 -41 16 -41 2z"/>
<path d="M840 790 c0 -5 5 -10 10 -10 6 0 10 5 10 10 0 6 -4 10 -10 10 -5 0
-10 -4 -10 -10z"/>
<path d="M690 780 c0 -5 5 -10 10 -10 6 0 10 5 10 10 0 6 -4 10 -10 10 -5 0
-10 -4 -10 -10z"/>
<path d="M1016 778 c3 -4 9 -8 15 -8 5 0 9 4 9 8 0 5 -7 9 -15 9 -8 0 -12 -4
-9 -9z"/>
<path d="M725 770 c3 -5 10 -10 16 -10 5 0 9 5 9 10 0 6 -7 10 -16 10 -8 0
-12 -4 -9 -10z"/>
<path d="M890 770 c0 -5 5 -10 10 -10 6 0 10 5 10 10 0 6 -4 10 -10 10 -5 0
-10 -4 -10 -10z"/>
<path d="M840 755 c0 -8 -7 -15 -17 -15 -9 0 -14 -3 -10 -6 10 -10 47 7 47 22
0 8 -4 14 -10 14 -5 0 -10 -7 -10 -15z"/>
<path d="M975 760 c-4 -6 -4 -10 -1 -10 2 0 11 -3 20 -6 9 -3 16 -2 16 4 0 14
-28 23 -35 12z"/>
<path d="M465 750 c-3 -5 -1 -10 4 -10 6 0 11 5 11 10 0 6 -2 10 -4 10 -3 0
-8 -4 -11 -10z"/>
<path d="M580 750 c0 -5 5 -10 11 -10 5 0 7 5 4 10 -3 6 -8 10 -11 10 -2 0 -4
-4 -4 -10z"/>
<path d="M610 750 c0 -5 5 -10 10 -10 6 0 10 5 10 10 0 6 -4 10 -10 10 -5 0
-10 -4 -10 -10z"/>
<path d="M1050 749 c-12 -8 -12 -12 -2 -16 6 -2 12 -11 12 -18 0 -7 -6 -16
-12 -18 -8 -4 -7 -6 3 -6 11 -1 18 9 21 29 5 35 -1 43 -22 29z"/>
<path d="M124 739 c-3 -5 -1 -9 3 -9 5 0 9 -22 9 -50 0 -27 -3 -50 -8 -50 -5
0 -7 -4 -4 -9 3 -5 14 -7 25 -4 18 4 22 38 7 62 -4 5 -2 12 4 16 17 11 11 42
-10 48 -11 3 -23 1 -26 -4z"/>
<path d="M345 740 c-3 -5 1 -10 10 -10 9 0 13 5 10 10 -3 6 -8 10 -10 10 -2 0
-7 -4 -10 -10z"/>
<path d="M760 715 c0 -34 -14 -48 -23 -22 -2 6 -4 -1 -4 -17 0 -20 2 -24 8
-15 8 12 11 11 19 -1 7 -11 10 0 10 38 0 28 -2 52 -5 52 -3 0 -5 -16 -5 -35z"/>
<path d="M888 738 c23 -11 32 -44 9 -35 -6 2 -17 -1 -24 -8 -9 -10 -5 -13 19
-11 26 1 33 -4 39 -24 7 -24 7 -24 8 -2 1 21 21 33 21 11 0 -5 5 -7 10 -4 9 6
14 -8 11 -27 0 -5 6 -8 14 -8 18 0 19 17 2 34 -14 15 -57 31 -71 28 -4 -2 -6
8 -2 22 6 25 -8 37 -42 35 -13 0 -11 -3 6 -11z"/>
<path d="M952 731 c-10 -6 -7 -12 12 -24 29 -20 36 -21 36 -7 0 6 -6 10 -14
10 -8 0 -16 7 -18 15 -2 9 -8 12 -16 6z"/>
<path d="M846 721 c-3 -5 1 -11 9 -15 9 -3 15 0 15 9 0 16 -16 20 -24 6z"/>
<path d="M630 709 c0 -5 5 -7 10 -4 6 3 10 8 10 11 0 2 -4 4 -10 4 -5 0 -10
-5 -10 -11z"/>
<path d="M795 710 c-4 -6 -2 -10 4 -10 5 0 17 -7 25 -16 9 -8 16 -12 16 -7 0
15 -39 43 -45 33z"/>
<path d="M1565 655 c0 -55 3 -65 18 -65 20 0 22 11 5 29 -10 11 -10 13 0 7 7
-4 12 -1 12 8 0 9 -6 16 -12 16 -10 0 -10 2 0 9 18 11 11 55 -8 59 -12 2 -15
-10 -15 -63z"/>
<path d="M495 700 c-3 -5 -1 -10 4 -10 6 0 11 5 11 10 0 6 -2 10 -4 10 -3 0
-8 -4 -11 -10z"/>
<path d="M1010 690 c0 -5 5 -10 11 -10 5 0 7 5 4 10 -3 6 -8 10 -11 10 -2 0
-4 -4 -4 -10z"/>
<path d="M1170 685 c0 -8 5 -15 10 -15 6 0 10 7 10 15 0 8 -4 15 -10 15 -5 0
-10 -7 -10 -15z"/>
<path d="M1255 680 c-3 -5 -1 -10 4 -10 6 0 11 5 11 10 0 6 -2 10 -4 10 -3 0
-8 -4 -11 -10z"/>
<path d="M896 672 c-4 -7 0 -19 8 -28 17 -17 19 -11 7 20 -5 14 -10 16 -15 8z"/>
<path d="M1040 670 c0 -5 5 -10 11 -10 5 0 7 5 4 10 -3 6 -8 10 -11 10 -2 0
-4 -4 -4 -10z"/>
<path d="M1137 643 c-10 -10 -8 -43 2 -43 5 0 14 -12 19 -27 9 -24 11 -25 11
-7 1 12 -6 27 -14 34 -8 7 -15 16 -15 21 0 5 7 9 15 9 8 0 15 5 15 10 0 11
-23 14 -33 3z"/>
<path d="M1224 639 c-3 -6 -1 -16 5 -22 8 -8 11 -5 11 11 0 24 -5 28 -16 11z"/>
<path d="M1010 625 c-15 -8 -19 -14 -10 -14 18 -1 46 16 40 23 -3 2 -16 -2
-30 -9z"/>
<path d="M1190 620 c0 -5 5 -10 10 -10 6 0 10 5 10 10 0 6 -4 10 -10 10 -5 0
-10 -4 -10 -10z"/>
<path d="M760 531 c0 -54 -4 -81 -12 -84 -10 -4 -10 -7 -1 -14 8 -6 13 -51 16
-138 2 -87 3 -56 5 93 1 122 0 222 -3 222 -3 0 -5 -36 -5 -79z"/>
<path d="M1035 600 c3 -5 10 -10 16 -10 5 0 9 5 9 10 0 6 -7 10 -16 10 -8 0
-12 -4 -9 -10z"/>
<path d="M731 584 c0 -11 3 -14 6 -6 3 7 2 16 -1 19 -3 4 -6 -2 -5 -13z"/>
<path d="M1181 584 c-1 -22 56 -80 67 -69 4 4 -1 11 -11 16 -9 6 -17 18 -17
27 0 13 -2 14 -9 3 -6 -10 -11 -6 -19 15 -8 23 -11 25 -11 8z"/>
<path d="M1255 591 c-3 -5 -1 -12 5 -16 5 -3 10 1 10 9 0 18 -6 21 -15 7z"/>
<path d="M136 568 c-10 -38 -7 -46 14 -41 15 4 18 9 10 18 -8 9 -8 15 0 20 15
9 12 25 -4 25 -7 0 -16 -10 -20 -22z"/>
<path d="M630 580 c0 -5 5 -10 10 -10 6 0 10 5 10 10 0 6 -4 10 -10 10 -5 0
-10 -4 -10 -10z"/>
<path d="M530 570 c0 -5 5 -10 11 -10 5 0 7 5 4 10 -3 6 -8 10 -11 10 -2 0 -4
-4 -4 -10z"/>
<path d="M820 570 c-8 -5 -11 -12 -7 -16 4 -4 13 -2 19 4 15 15 7 24 -12 12z"/>
<path d="M910 563 c0 -12 -6 -23 -12 -26 -7 -2 -10 -8 -6 -12 8 -9 34 15 33
32 0 21 -15 27 -15 6z"/>
<path d="M860 560 c0 -5 5 -10 10 -10 6 0 10 5 10 10 0 6 -4 10 -10 10 -5 0
-10 -4 -10 -10z"/>
<path d="M1131 554 c0 -11 3 -14 6 -6 3 7 2 16 -1 19 -3 4 -6 -2 -5 -13z"/>
<path d="M1570 546 c0 -8 -3 -21 -6 -30 -4 -12 0 -16 15 -16 23 0 29 15 9 23
-10 4 -10 6 0 6 17 1 15 31 -3 31 -8 0 -15 -6 -15 -14z"/>
<path d="M831 515 c0 -11 3 -14 6 -7 2 6 8 10 11 8 4 -2 12 2 19 9 9 10 7 13
-13 11 -17 -1 -24 -7 -23 -21z"/>
<path d="M951 521 c-11 -7 -11 -10 0 -15 11 -5 11 -7 2 -12 -7 -3 -13 -10 -13
-15 0 -15 14 -10 27 9 14 23 3 44 -16 33z"/>
<path d="M1131 498 c0 -13 3 -17 6 -10 7 18 23 15 23 -5 0 -15 2 -16 10 -3 7
11 5 19 -7 28 -24 18 -33 15 -32 -10z"/>
<path d="M137 495 c-17 -17 -17 -19 -2 -28 21 -11 27 -5 23 24 -3 22 -4 22
-21 4z"/>
<path d="M1189 500 c-5 -13 23 -51 36 -49 3 0 32 -16 64 -36 40 -24 58 -41 56
-53 -1 -9 0 -11 2 -4 3 7 9 10 14 7 5 -4 9 3 9 15 0 12 -4 18 -10 15 -13 -8
-52 19 -42 30 4 5 1 5 -5 1 -7 -4 -13 -2 -13 4 0 6 -4 9 -10 5 -5 -3 -18 3
-29 14 -10 10 -28 22 -39 25 -12 4 -22 15 -24 24 -3 14 -5 14 -9 2z"/>
<path d="M1260 503 c0 -11 93 -93 100 -87 3 3 -6 15 -20 25 -14 11 -37 31 -52
45 -16 14 -28 22 -28 17z"/>
<path d="M693 485 c0 -8 4 -15 9 -15 4 0 8 7 8 15 0 8 -4 15 -8 15 -5 0 -9 -7
-9 -15z"/>
<path d="M1078 493 c7 -3 16 -2 19 1 4 3 -2 6 -13 5 -11 0 -14 -3 -6 -6z"/>
<path d="M640 480 c0 -5 5 -10 10 -10 6 0 10 5 10 10 0 6 -4 10 -10 10 -5 0
-10 -4 -10 -10z"/>
<path d="M804 474 c17 -16 36 -11 36 9 0 8 -3 8 -9 -2 -6 -9 -11 -10 -15 -2
-4 6 -12 11 -17 11 -6 0 -3 -7 5 -16z"/>
<path d="M990 470 c0 -5 5 -10 10 -10 6 0 10 5 10 10 0 6 -4 10 -10 10 -5 0
-10 -4 -10 -10z"/>
<path d="M1567 460 c-4 -15 0 -20 14 -20 10 0 19 5 19 10 0 6 -6 10 -12 10 -9
0 -8 4 2 10 13 8 13 10 -1 10 -9 0 -19 -9 -22 -20z"/>
<path d="M134 433 c14 -4 15 -7 6 -13 -6 -4 -13 -25 -14 -46 -1 -34 2 -39 24
-42 21 -3 22 -2 11 12 -7 9 -10 16 -5 16 5 0 9 18 10 40 0 37 -2 40 -25 39
-20 -1 -21 -2 -7 -6z m26 -47 c0 -11 -19 -15 -25 -6 -3 5 1 10 9 10 9 0 16 -2
16 -4z"/>
<path d="M1140 430 c0 -5 5 -10 10 -10 6 0 10 5 10 10 0 6 -4 10 -10 10 -5 0
-10 -4 -10 -10z"/>
<path d="M1175 430 c-4 -6 3 -10 14 -10 25 0 27 6 6 13 -8 4 -17 2 -20 -3z"/>
<path d="M790 420 c0 -5 5 -10 10 -10 6 0 10 5 10 10 0 6 -4 10 -10 10 -5 0
-10 -4 -10 -10z"/>
<path d="M832 410 c0 -14 2 -19 5 -12 2 6 2 18 0 25 -3 6 -5 1 -5 -13z"/>
<path d="M990 415 c0 -9 5 -15 11 -13 6 2 11 8 11 13 0 5 -5 11 -11 13 -6 2
-11 -4 -11 -13z"/>
<path d="M1031 414 c0 -11 3 -14 6 -6 3 7 2 16 -1 19 -3 4 -6 -2 -5 -13z"/>
<path d="M1560 401 c0 -23 1 -24 24 -15 9 3 16 14 15 23 0 11 -2 12 -6 3 -4
-10 -8 -10 -19 -1 -11 9 -14 7 -14 -10z"/>
<path d="M1160 396 c0 -16 18 -31 27 -22 3 3 -2 12 -11 21 -14 14 -16 14 -16
1z"/>
<path d="M1240 398 c0 -4 7 -8 15 -8 8 0 15 4 15 8 0 5 -7 9 -15 9 -8 0 -15
-4 -15 -9z"/>
<path d="M1290 365 c0 -8 2 -15 4 -15 2 0 6 7 10 15 3 8 1 15 -4 15 -6 0 -10
-7 -10 -15z"/>
<path d="M1572 371 c-11 -6 -10 -10 4 -15 9 -3 19 -4 22 -1 3 3 -1 5 -9 5 -11
0 -11 2 1 10 8 5 11 10 5 10 -5 0 -16 -4 -23 -9z"/>
<path d="M810 360 c0 -5 5 -10 10 -10 6 0 10 5 10 10 0 6 -4 10 -10 10 -5 0
-10 -4 -10 -10z"/>
<path d="M1140 360 c0 -5 5 -10 10 -10 6 0 10 5 10 10 0 6 -4 10 -10 10 -5 0
-10 -4 -10 -10z"/>
<path d="M1225 347 c-4 -10 -5 -21 -1 -24 10 -10 18 4 13 24 -4 17 -4 17 -12
0z"/>
<path d="M1560 341 c0 -5 6 -12 13 -14 10 -4 10 -6 0 -6 -21 -2 -14 -21 7 -21
24 0 28 35 4 44 -21 8 -24 8 -24 -3z"/>
<path d="M795 330 c-3 -5 -1 -10 4 -10 6 0 11 5 11 10 0 6 -2 10 -4 10 -3 0
-8 -4 -11 -10z"/>
<path d="M1302 326 c7 -8 15 -12 17 -11 5 6 -10 25 -20 25 -5 0 -4 -6 3 -14z"/>
<path d="M1070 315 c0 -8 5 -15 10 -15 6 0 10 7 10 15 0 8 -4 15 -10 15 -5 0
-10 -7 -10 -15z"/>
<path d="M138 303 c-2 -4 -4 -17 -4 -28 1 -11 -3 -23 -9 -27 -5 -4 4 -8 20 -8
23 0 27 3 15 10 -8 5 -10 10 -4 10 15 0 12 42 -3 47 -6 2 -13 0 -15 -4z"/>
<path d="M1240 290 c0 -5 5 -10 11 -10 5 0 7 5 4 10 -3 6 -8 10 -11 10 -2 0
-4 -4 -4 -10z"/>
<path d="M1305 270 c3 -5 8 -10 11 -10 2 0 4 5 4 10 0 6 -5 10 -11 10 -5 0 -7
-4 -4 -10z"/>
<path d="M1569 268 c-1 -7 -3 -23 -4 -35 -2 -18 3 -23 19 -22 11 0 15 3 9 6
-10 3 -9 8 2 19 8 8 12 21 9 29 -7 18 -34 20 -35 3z"/>
<path d="M1240 240 c0 -5 5 -10 11 -10 5 0 7 5 4 10 -3 6 -8 10 -11 10 -2 0
-4 -4 -4 -10z"/>
<path d="M303 110 c1 -11 7 -20 14 -20 7 0 16 0 21 0 18 0 5 33 -15 36 -16 3
-21 -1 -20 -16z"/>
<path d="M475 116 c-19 -14 -19 -15 -2 -21 22 -9 50 2 45 17 -6 18 -22 20 -43
4z"/>
<path d="M630 110 c0 -15 7 -20 26 -20 32 0 30 31 -3 36 -17 3 -23 -1 -23 -16z"/>
<path d="M795 122 c-16 -16 -3 -33 23 -30 33 4 37 32 5 34 -12 1 -25 -1 -28
-4z"/>
<path d="M963 111 c0 -11 4 -18 8 -15 4 2 10 0 14 -6 4 -6 11 -8 16 -5 12 8
12 45 -1 45 -5 0 -7 -8 -4 -17 5 -17 5 -17 -6 0 -15 23 -29 22 -27 -2z"/>
<path d="M1125 122 c-15 -16 -2 -32 26 -32 24 0 30 4 27 18 -3 16 -41 26 -53
14z"/>
<path d="M1290 109 c0 -14 7 -19 25 -19 18 0 25 5 25 19 0 13 -7 19 -25 19
-18 0 -25 -6 -25 -19z"/>
<path d="M1463 123 c-7 -3 -13 -11 -13 -19 0 -11 9 -14 33 -12 20 2 32 8 32
18 0 15 -27 21 -52 13z"/>
<path d="M1754 118 c-3 -4 1 -8 8 -8 9 0 9 -3 -2 -10 -11 -7 -7 -10 18 -10 26
0 33 4 30 17 -3 17 -45 26 -54 11z"/>
<path d="M1937 122 c-24 -5 -16 -26 11 -30 14 -2 22 2 22 12 0 18 -10 24 -33
18z"/>
<path d="M2080 110 c0 -15 7 -20 26 -20 32 0 30 31 -3 36 -17 3 -23 -1 -23
-16z"/>
<path d="M2245 121 c-14 -13 -2 -31 20 -31 18 0 25 5 25 19 0 14 -6 19 -20 18
-12 -1 -23 -3 -25 -6z"/>
<path d="M2408 107 c3 -12 7 -16 10 -9 2 6 11 12 20 12 15 0 15 -2 2 -11 -13
-9 -13 -10 0 -6 25 6 17 31 -11 34 -23 1 -26 -2 -21 -20z"/>
<path d="M2565 122 c-15 -16 -2 -32 26 -32 23 0 30 4 27 17 -3 15 -42 26 -53
15z"/>
<path d="M2726 122 c-12 -11 9 -32 31 -32 17 0 24 5 21 17 -3 15 -41 26 -52
15z"/>
<path d="M2893 123 c-22 -8 -1 -33 29 -33 22 0 29 4 26 17 -3 16 -32 25 -55
16z"/>
<path d="M837 33 c-12 -11 -8 -21 13 -26 28 -7 60 3 60 19 0 14 -60 20 -73 7z"/>
<path d="M2280 26 c0 -17 42 -29 51 -15 3 6 10 10 15 9 5 -1 10 3 12 9 2 7
-12 11 -37 11 -28 0 -41 -4 -41 -14z"/>
</g>
</svg>
