<?xml version="1.0" standalone="no"?>
<!DOCTYPE svg PUBLIC "-//W3C//DTD SVG 20010904//EN"
 "http://www.w3.org/TR/2001/REC-SVG-20010904/DTD/svg10.dtd">
<svg version="1.0" xmlns="http://www.w3.org/2000/svg"
 width="300.000000pt" height="227.000000pt" viewBox="0 0 300.000000 227.000000"
 preserveAspectRatio="xMidYMid meet">
<metadata>
Created by potrace 1.10, written by Peter Selinger 2001-2011
</metadata>
<g transform="translate(0.000000,227.000000) scale(0.100000,-0.100000)"
fill="#000000" stroke="none">
<path d="M2885 2260 c-3 -5 -1 -10 4 -10 6 0 11 5 11 10 0 6 -2 10 -4 10 -3 0
-8 -4 -11 -10z"/>
<path d="M721 2228 c0 -22 1 -22 9 -3 6 14 9 16 9 4 1 -20 118 -24 118 -4 0
10 -15 13 -54 11 -29 -1 -53 2 -53 6 0 4 -7 8 -15 8 -9 0 -15 -9 -14 -22z"/>
<path d="M895 2232 c-7 -20 -7 -22 9 -22 8 0 17 6 19 13 4 9 6 8 6 -2 1 -11 4
-11 16 -1 13 11 14 10 9 -4 -3 -9 -1 -16 5 -16 6 0 11 9 11 19 0 24 -66 35
-75 13z"/>
<path d="M2151 2229 c9 -17 13 -19 20 -8 7 11 9 11 9 1 0 -15 31 -12 42 3 5 6
8 6 8 -1 0 -6 14 -11 30 -12 23 0 30 4 30 19 0 16 -3 18 -18 10 -13 -7 -22 -7
-30 1 -8 8 -15 8 -25 0 -8 -7 -16 -9 -19 -6 -3 2 -18 7 -32 10 -25 4 -26 3
-15 -17z"/>
<path d="M2310 2230 c0 -12 9 -17 30 -18 20 0 30 4 30 14 0 15 -1 15 -37 19
-16 2 -23 -3 -23 -15z"/>
<path d="M865 2231 c-3 -5 -1 -12 4 -15 5 -3 11 1 15 9 6 16 -9 21 -19 6z"/>
<path d="M2380 2226 c0 -19 16 -21 23 -3 4 9 6 8 6 -2 1 -11 4 -11 18 0 11 10
14 10 9 2 -4 -8 -1 -13 8 -13 9 0 16 5 16 10 0 6 5 10 11 10 6 0 9 -7 5 -15
-3 -8 -1 -15 3 -15 7 0 21 23 21 34 0 2 -27 4 -60 5 -48 2 -60 -1 -60 -13z"/>
<path d="M149 2208 c-7 -25 -7 -48 1 -48 6 0 10 11 10 25 0 20 -7 35 -11 23z"/>
<path d="M175 2197 c-4 -10 -5 -21 -1 -24 10 -10 18 4 13 24 -4 17 -4 17 -12
0z"/>
<path d="M1632 2199 c-30 -11 -24 -33 9 -33 18 0 24 5 25 22 1 24 -1 25 -34
11z"/>
<path d="M215 1755 l0 -435 55 0 c75 -1 1061 -1 1133 0 l57 0 0 435 0 435
-622 0 -623 0 0 -435z m1235 3 l0 -423 -607 1 -608 1 -3 422 -2 421 610 0 610
0 0 -422z"/>
<path d="M580 2086 c0 -10 -16 -15 -55 -18 -39 -2 -55 1 -55 10 0 6 -4 12 -10
12 -5 0 -10 -7 -10 -15 0 -12 -13 -15 -55 -15 -30 0 -55 5 -55 10 0 6 -4 10
-8 10 -4 0 -8 -13 -7 -30 0 -30 10 -40 17 -19 4 12 226 34 237 24 9 -10 -18
-22 -63 -29 -25 -4 -42 -3 -44 4 -8 22 -22 9 -22 -20 0 -16 5 -30 10 -30 6 0
10 6 10 13 0 9 21 17 55 24 30 5 55 6 55 1 0 -4 5 -8 11 -8 5 0 7 5 3 12 -5 8
4 9 32 5 21 -4 49 -7 62 -7 13 0 20 -4 17 -10 -3 -5 -2 -10 3 -10 15 0 23 30
12 48 -5 10 -10 12 -10 5 0 -9 -18 -13 -58 -13 l-59 0 5 30 c3 18 0 30 -7 30
-6 0 -11 -6 -11 -14z"/>
<path d="M830 1945 c0 -10 -10 -15 -32 -15 -18 0 -44 -3 -57 -7 -17 -4 -22 -3
-17 5 4 7 1 12 -9 12 -9 0 -13 -4 -10 -10 4 -6 -17 -10 -55 -10 -38 0 -59 4
-55 10 3 6 1 10 -4 10 -6 0 -11 -11 -11 -25 0 -14 5 -25 11 -25 5 0 7 5 4 10
-4 6 16 10 53 10 57 0 59 -1 57 -25 -2 -14 1 -25 6 -25 5 0 9 4 9 10 0 10 103
1 108 -9 1 -4 31 -5 67 -3 44 3 65 1 65 -7 0 -6 5 -11 10 -11 6 0 10 9 10 19
0 11 -4 23 -10 26 -5 3 -10 1 -10 -4 0 -15 -97 -14 -106 1 -5 7 -7 27 -5 45 1
19 -2 33 -8 33 -6 0 -11 -7 -11 -15z m0 -46 c0 -20 -4 -21 -47 -14 -27 4 -52
10 -58 13 -12 8 29 20 73 21 26 1 32 -3 32 -20z"/>
<path d="M958 1821 c-5 -14 -108 -25 -108 -12 0 6 -4 11 -10 11 -5 0 -10 -11
-10 -25 0 -24 15 -35 22 -16 4 12 108 20 108 8 0 -5 6 -7 14 -4 19 7 119 -40
111 -53 -3 -5 -1 -10 4 -10 6 0 11 11 11 24 0 17 -5 24 -17 24 -28 -2 -115 40
-108 52 3 5 2 10 -4 10 -5 0 -11 -4 -13 -9z"/>
<path d="M956 1755 c-7 -18 3 -45 16 -45 5 0 6 5 3 10 -10 16 7 11 60 -18 28
-16 49 -34 47 -40 -1 -7 2 -12 8 -12 6 0 10 4 10 10 0 5 25 -2 55 -17 30 -15
55 -33 55 -40 0 -17 16 -17 23 0 6 16 -9 44 -19 35 -9 -10 -104 40 -111 58 -3
8 -12 13 -20 10 -18 -7 -116 42 -108 54 3 6 2 10 -3 10 -6 0 -12 -7 -16 -15z"/>
<path d="M1084 1595 c-1 -19 3 -35 7 -35 5 0 9 7 9 15 0 12 8 11 47 -6 25 -11
51 -18 56 -16 6 2 -15 14 -46 26 -31 13 -57 30 -57 37 0 31 -15 11 -16 -21z"/>
<path d="M1213 1545 c1 -19 5 -35 9 -35 4 0 8 5 8 10 0 6 25 -8 55 -31 30 -23
55 -48 55 -55 0 -8 4 -14 8 -14 5 0 8 14 8 30 0 22 -4 29 -13 26 -19 -8 -113
64 -113 86 0 10 -4 18 -9 18 -5 0 -8 -16 -8 -35z"/>
<path d="M1699 2134 c2 -40 -1 -59 -10 -65 -10 -6 -10 -9 -2 -9 9 0 12 -62 12
-240 0 -178 -3 -240 -12 -240 -9 0 -9 -2 1 -8 9 -6 12 -42 11 -131 l-2 -122
622 -2 621 -2 0 438 0 437 -622 0 -623 0 4 -56z m1229 -375 l-3 -421 -608 -1
-607 -2 0 423 0 422 610 0 610 0 -2 -421z"/>
<path d="M1905 2080 c3 -5 -13 -19 -35 -30 -33 -17 -45 -19 -56 -9 -12 9 -14
5 -14 -25 0 -23 4 -35 10 -31 6 4 8 10 5 15 -8 13 71 51 89 44 12 -5 16 0 16
20 0 14 -5 26 -11 26 -5 0 -8 -4 -4 -10z"/>
<path d="M2000 2041 c0 -15 -69 -51 -85 -45 -11 5 -15 -1 -15 -20 0 -14 5 -26
10 -26 6 0 10 6 10 13 0 17 65 48 85 41 11 -5 15 1 15 20 0 14 -4 26 -10 26
-5 0 -10 -4 -10 -9z"/>
<path d="M2106 1976 c4 -9 -7 -15 -38 -19 -24 -3 -44 -2 -46 4 -7 19 -17 8
-18 -21 -1 -16 2 -30 7 -30 5 0 9 7 9 15 0 8 6 15 14 15 7 0 28 3 46 6 32 7
32 7 25 -25 -6 -30 8 -45 18 -18 8 20 79 39 89 24 4 -7 8 -7 9 -2 6 43 5 55
-7 55 -7 0 -11 -6 -9 -13 3 -7 -12 -18 -41 -29 l-46 -16 4 34 c3 23 0 34 -9
34 -7 0 -10 -6 -7 -14z"/>
<path d="M2310 1900 c0 -14 -83 -35 -88 -21 -7 20 -18 11 -18 -14 0 -14 4 -25
8 -25 4 0 8 4 8 8 0 5 20 13 45 19 25 6 45 6 45 2 0 -5 4 -9 8 -9 4 0 8 11 8
25 0 14 -4 25 -8 25 -4 0 -8 -4 -8 -10z"/>
<path d="M2305 1830 c-3 -5 -2 -17 3 -26 6 -10 12 -13 16 -6 9 15 86 -7 86
-24 0 -17 17 -19 22 -3 3 8 16 10 40 5 30 -5 36 -11 36 -32 0 -28 12 -46 19
-27 8 21 80 -22 87 -52 4 -14 4 -30 1 -35 -4 -6 -1 -10 4 -10 6 0 11 4 11 10
0 5 20 -3 45 -18 25 -15 45 -33 45 -39 0 -7 3 -13 8 -13 9 0 9 107 -1 116 -8
8 -10 -7 -7 -50 l2 -28 -44 26 c-29 18 -43 33 -44 48 -2 42 -4 48 -15 48 -5 0
-7 -4 -4 -10 10 -16 -3 -12 -45 15 -32 20 -40 31 -40 55 0 17 -4 30 -10 30 -5
0 -10 -6 -10 -13 0 -9 -12 -11 -40 -9 -26 3 -40 9 -40 18 0 16 -17 19 -22 4
-4 -12 -78 7 -78 20 0 13 -17 13 -25 0z"/>
<path d="M2740 1624 c0 -10 63 -94 68 -90 2 3 -10 25 -28 50 -29 43 -40 54
-40 40z"/>
<path d="M2817 1536 c-3 -8 -2 -27 3 -43 10 -33 11 -31 14 20 2 37 -7 49 -17
23z"/>
<path d="M140 2101 c0 -16 6 -21 25 -21 18 0 25 5 25 20 0 11 -5 20 -11 20 -5
0 -8 -4 -4 -9 3 -5 1 -13 -5 -16 -6 -4 -9 -1 -8 6 2 6 -3 14 -9 16 -8 3 -13
-4 -13 -16z"/>
<path d="M1549 2098 c-6 -16 -4 -66 3 -75 6 -7 3 -15 -8 -21 -20 -11 -11 -31
14 -28 13 2 16 11 15 41 -2 21 -8 42 -14 45 -7 5 -5 9 6 14 9 3 13 10 10 16
-5 9 -23 14 -26 8z"/>
<path d="M1632 2079 c-13 -5 -22 -14 -20 -21 6 -17 49 -17 55 -1 8 21 -9 32
-35 22z"/>
<path d="M143 2010 c-1 -11 3 -20 8 -20 6 0 8 4 5 9 -3 5 1 11 9 14 10 4 12 1
8 -10 -4 -11 -2 -14 5 -9 21 12 13 36 -11 36 -16 0 -23 -6 -24 -20z"/>
<path d="M72 1905 c2 -30 1 -55 -4 -55 -4 0 -8 -6 -8 -14 0 -8 8 -13 18 -12
13 2 17 13 17 42 1 21 -3 47 -7 57 -6 10 -5 17 2 17 5 0 10 5 10 10 0 6 -7 10
-16 10 -13 0 -15 -10 -12 -55z"/>
<path d="M1540 1950 c0 -5 5 -12 10 -15 8 -5 7 -11 0 -20 -7 -8 -9 -23 -5 -34
3 -10 1 -22 -5 -26 -17 -10 -11 -35 8 -35 12 0 19 9 21 28 3 29 4 70 2 88 -1
14 -31 27 -31 14z"/>
<path d="M1613 1947 c-4 -6 0 -8 9 -5 8 4 21 2 29 -4 11 -8 11 -9 -2 -5 -9 3
-22 1 -30 -4 -10 -6 -5 -9 18 -9 25 0 31 4 30 19 -1 20 -42 27 -54 8z"/>
<path d="M146 1942 c-2 -4 -1 -14 5 -22 7 -12 9 -10 9 8 0 23 -5 28 -14 14z"/>
<path d="M170 1930 c0 -11 5 -20 10 -20 6 0 10 9 10 20 0 11 -4 20 -10 20 -5
0 -10 -9 -10 -20z"/>
<path d="M146 1845 c4 -8 8 -15 10 -15 2 0 4 7 4 15 0 8 -4 15 -10 15 -5 0 -7
-7 -4 -15z"/>
<path d="M170 1840 c0 -11 5 -20 10 -20 6 0 10 9 10 20 0 11 -4 20 -10 20 -5
0 -10 -9 -10 -20z"/>
<path d="M1613 1827 c-4 -7 1 -8 13 -4 18 7 18 7 0 -7 -17 -14 -16 -15 13 -14
22 1 31 6 31 18 0 20 -46 25 -57 7z"/>
<path d="M69 1778 c-2 -45 2 -92 7 -97 2 -3 10 1 17 9 10 10 9 11 -3 5 -13 -8
-13 -7 -1 8 10 13 10 17 1 17 -9 0 -10 3 -1 13 6 8 8 17 4 21 -4 3 -7 15 -8
25 -1 13 3 17 13 13 10 -3 13 -1 8 6 -15 24 -36 12 -37 -20z"/>
<path d="M1543 1751 c-1 -35 2 -48 11 -45 16 6 19 56 4 66 -9 5 -4 8 12 8 20
0 22 2 10 10 -28 18 -35 10 -37 -39z"/>
<path d="M146 1772 c-2 -4 -1 -14 5 -22 7 -12 9 -10 9 8 0 23 -5 28 -14 14z"/>
<path d="M174 1769 c-3 -6 -1 -16 5 -22 8 -8 11 -5 11 11 0 24 -5 28 -16 11z"/>
<path d="M1633 1709 c-30 -11 -29 -26 2 -31 29 -6 40 5 28 26 -6 9 -15 11 -30
5z"/>
<path d="M1545 1690 c-3 -5 -3 -14 0 -20 3 -5 0 -10 -7 -11 -7 0 -4 -4 7 -9
18 -8 18 -9 2 -9 -21 -1 -13 -21 8 -21 9 0 14 12 13 40 0 38 -10 51 -23 30z"/>
<path d="M147 1670 c3 -11 7 -20 9 -20 2 0 4 9 4 20 0 11 -4 20 -9 20 -5 0 -7
-9 -4 -20z"/>
<path d="M173 1670 c-1 -11 2 -20 5 -20 4 0 8 9 9 20 1 11 -2 20 -5 20 -4 0
-8 -9 -9 -20z"/>
<path d="M71 1643 c1 -16 -2 -40 -6 -55 -6 -25 -5 -28 16 -27 13 0 18 3 11 6
-6 2 -9 9 -6 15 4 6 8 28 9 49 2 28 -2 39 -11 39 -9 0 -14 -10 -13 -27z"/>
<path d="M147 1603 c-3 -5 -2 -15 2 -22 5 -7 11 -9 14 -4 3 5 2 15 -2 22 -5 7
-11 9 -14 4z"/>
<path d="M173 1590 c1 -11 5 -20 9 -20 4 0 8 9 8 20 0 11 -4 20 -9 20 -6 0 -9
-9 -8 -20z"/>
<path d="M1544 1593 c3 -7 1 -13 -5 -13 -6 0 -7 -5 -4 -10 4 -6 11 -7 17 -4 6
4 6 -1 -1 -14 -8 -15 -8 -23 0 -27 6 -5 4 -11 -7 -19 -15 -12 -15 -13 -1 -19
22 -8 29 6 28 51 -1 20 -2 44 -2 53 0 9 -7 16 -15 16 -8 0 -13 -6 -10 -14z"/>
<path d="M1633 1589 c-30 -11 -29 -26 3 -32 17 -3 28 0 31 10 8 21 -9 32 -34
22z"/>
<path d="M167 1506 c-6 -15 1 -26 15 -26 4 0 8 9 8 20 0 23 -15 27 -23 6z"/>
<path d="M1540 1469 c0 -5 10 -9 22 -9 12 0 18 3 14 7 -10 11 -36 12 -36 2z"/>
<path d="M1618 1463 c6 -2 12 -9 12 -14 0 -6 -6 -7 -12 -3 -10 5 -10 4 -1 -6
10 -11 15 -11 29 1 15 12 17 12 9 0 -5 -10 -4 -12 3 -7 25 15 12 36 -20 35
-18 0 -27 -3 -20 -6z"/>
<path d="M1533 1436 c5 -15 37 -16 37 -1 0 8 -9 13 -20 12 -11 -1 -19 -6 -17
-11z"/>
<path d="M167 1426 c-6 -15 1 -26 15 -26 4 0 8 9 8 20 0 23 -15 27 -23 6z"/>
<path d="M171 1336 c-9 -10 -8 -15 4 -20 10 -4 15 1 15 14 0 24 -4 25 -19 6z"/>
<path d="M1625 1340 c4 -7 2 -16 -6 -22 -11 -7 -9 -8 6 -6 23 4 27 29 6 36 -9
3 -11 0 -6 -8z"/>
<path d="M1654 1330 c0 -11 4 -20 8 -20 4 0 8 9 8 20 0 11 -4 20 -8 20 -4 0
-8 -9 -8 -20z"/>
<path d="M319 1295 c0 0 -2 -10 -5 -22 -5 -27 12 -31 19 -5 4 15 5 15 6 -1 0
-10 6 -17 12 -15 6 2 10 7 10 11 -1 4 -1 13 -1 20 0 9 -29 18 -41 12z"/>
<path d="M457 1292 c-9 -2 -15 -8 -12 -13 4 -5 1 -9 -6 -9 -21 0 -1 -13 24
-16 16 -1 23 3 24 17 2 22 -5 27 -30 21z"/>
<path d="M566 1291 c-9 -20 2 -35 24 -35 34 0 36 37 2 39 -13 1 -24 -1 -26 -4z"/>
<path d="M847 1294 c-4 -4 -1 -14 5 -23 8 -10 4 -9 -10 3 -12 11 -22 14 -22 8
0 -7 -1 -15 -2 -19 -2 -3 8 -7 20 -8 13 -1 26 5 29 12 6 16 -10 37 -20 27z"/>
<path d="M943 1284 c-7 -20 4 -31 29 -29 32 2 31 38 0 40 -13 1 -26 -4 -29
-11z"/>
<path d="M1103 1281 c0 -11 5 -17 9 -15 11 7 10 34 -1 34 -6 0 -9 -9 -8 -19z"/>
<path d="M1197 1293 c-2 -5 -1 -17 3 -27 6 -19 7 -19 12 2 6 21 -6 40 -15 25z"/>
<path d="M1323 1284 c-3 -9 -1 -20 5 -26 8 -8 13 -7 18 6 5 14 9 15 15 4 7
-10 9 -9 9 3 0 22 -39 32 -47 13z"/>
<path d="M1903 1289 c-30 -11 -29 -26 3 -32 17 -3 28 0 31 10 8 21 -9 32 -34
22z"/>
<path d="M2293 1284 c-3 -8 -3 -18 1 -21 10 -10 46 -11 46 -1 0 4 0 11 1 15 0
4 -9 11 -21 15 -15 5 -22 3 -27 -8z"/>
<path d="M2495 1290 c-2 -3 0 -12 6 -20 7 -13 9 -13 9 -1 0 11 4 9 14 -5 14
-18 15 -18 22 -1 3 10 4 21 0 24 -9 9 -46 11 -51 3z"/>
<path d="M2903 1284 c-7 -20 4 -31 29 -29 32 2 31 38 0 40 -13 1 -26 -4 -29
-11z"/>
<path d="M696 1281 c-4 -7 -5 -15 -2 -18 9 -9 19 4 14 18 -4 11 -6 11 -12 0z"/>
<path d="M720 1276 c0 -8 5 -18 10 -21 6 -3 10 3 10 14 0 12 -4 21 -10 21 -5
0 -10 -6 -10 -14z"/>
<path d="M1070 1276 c0 -8 5 -18 10 -21 6 -3 10 3 10 14 0 12 -4 21 -10 21 -5
0 -10 -6 -10 -14z"/>
<path d="M1227 1283 c-12 -11 -8 -23 8 -23 8 0 15 7 15 15 0 16 -12 20 -23 8z"/>
<path d="M1683 1271 c-1 -14 4 -19 20 -18 23 1 39 16 31 29 -8 13 -26 9 -18
-4 6 -10 4 -10 -7 0 -18 17 -25 15 -26 -7z"/>
<path d="M2090 1270 c0 -15 6 -19 23 -16 22 3 38 36 17 36 -6 0 -8 -6 -4 -12
6 -10 4 -10 -7 0 -19 17 -29 15 -29 -8z"/>
<path d="M2700 1270 c0 -15 6 -19 23 -16 22 3 38 36 17 36 -6 0 -8 -6 -4 -12
6 -10 4 -10 -7 0 -19 17 -29 15 -29 -8z"/>
<path d="M640 1218 c0 -11 7 -18 20 -18 11 0 20 6 20 13 0 8 4 7 11 -3 8 -11
12 -12 15 -3 4 10 10 10 25 0 16 -10 21 -9 29 3 8 12 10 12 10 1 0 -10 3 -11
14 -2 8 7 17 8 20 3 3 -5 16 -9 28 -8 13 1 26 -3 30 -9 5 -6 11 -6 19 2 6 6
17 9 24 7 6 -3 12 2 12 11 0 14 -10 19 -30 16 -36 -6 -67 -7 -67 -2 0 3 -41 6
-90 6 -80 1 -90 -1 -90 -17z m30 8 c0 -3 -4 -8 -10 -11 -5 -3 -10 -1 -10 4 0
6 5 11 10 11 6 0 10 -2 10 -4z"/>
<path d="M943 1233 c-21 -8 -15 -33 7 -33 13 0 20 7 20 20 0 20 -5 23 -27 13z"/>
<path d="M986 1224 c-8 -21 -8 -21 9 -21 8 0 15 9 15 19 0 22 -16 24 -24 2z"/>
<path d="M2116 1231 c-8 -12 1 -31 14 -31 5 0 7 7 4 15 -4 8 -1 15 5 15 6 0
11 -8 12 -17 0 -13 2 -14 6 -4 5 11 7 11 14 0 8 -12 11 -11 19 1 6 10 10 11
10 3 0 -7 4 -13 8 -13 5 0 9 7 9 15 0 8 -8 15 -17 15 -10 0 -31 3 -48 6 -17 4
-32 1 -36 -5z"/>
<path d="M2286 1223 c-7 -18 6 -24 22 -10 11 8 14 8 9 0 -5 -7 1 -14 15 -19
13 -4 24 -2 26 4 2 6 20 8 42 5 36 -5 40 -4 40 17 0 22 -1 22 -26 5 -15 -10
-23 -12 -19 -4 6 9 3 11 -8 6 -10 -3 -17 -3 -17 1 0 12 -79 8 -84 -5z"/>
<path d="M2467 1233 c-23 -22 2 -38 30 -20 9 6 11 3 7 -7 -3 -9 -1 -16 5 -16
6 0 11 4 11 10 0 5 7 7 15 4 9 -4 15 0 15 10 0 12 -8 15 -32 12 -18 -2 -36 0
-39 5 -3 5 -8 6 -12 2z"/>
<path d="M1020 1210 c0 -11 5 -20 11 -20 6 0 8 7 4 18 -5 14 -4 15 6 5 17 -17
29 -16 29 2 0 9 -9 15 -25 15 -18 0 -25 -5 -25 -20z"/>
<path d="M2225 1219 c-3 -4 -1 -10 5 -14 5 -3 10 -1 10 6 0 10 3 10 12 1 16
-16 25 -15 25 2 0 14 -44 19 -52 5z"/>
<path d="M2074 1125 c-9 -24 5 -36 27 -25 14 8 19 7 19 -1 0 -8 4 -8 13 -1 7
5 21 6 32 1 29 -11 37 -11 29 4 -6 10 -4 10 7 0 18 -18 29 -16 29 3 0 12 -7
15 -30 12 -16 -3 -30 -1 -30 3 0 5 -7 6 -15 3 -8 -3 -29 -1 -45 5 -25 8 -32 7
-36 -4z m26 -9 c0 -3 -4 -8 -10 -11 -5 -3 -10 -1 -10 4 0 6 5 11 10 11 6 0 10
-2 10 -4z"/>
<path d="M664 1113 c2 -14 13 -18 42 -19 21 -1 42 4 46 10 6 8 8 8 8 0 0 -6
14 -11 30 -12 23 0 30 4 30 19 0 17 -3 18 -20 9 -15 -8 -20 -8 -20 1 0 7 -8 9
-22 5 -39 -12 -68 -14 -68 -5 0 5 -6 9 -14 9 -8 0 -13 -8 -12 -17z"/>
<path d="M840 1110 c0 -12 10 -15 40 -13 22 1 45 5 50 8 6 3 10 1 10 -6 0 -8
4 -9 13 0 10 8 17 7 25 -1 9 -9 12 -9 12 0 0 7 5 12 11 12 6 0 9 -7 5 -15 -3
-8 -2 -15 3 -15 5 0 11 9 14 20 4 16 0 20 -21 20 -15 1 -57 2 -94 3 -56 2 -68
0 -68 -13z"/>
<path d="M2250 1105 c0 -17 2 -17 10 -5 5 8 10 10 10 5 0 -6 20 -11 45 -11 24
-1 42 3 39 7 -3 5 -1 9 5 9 5 0 11 -6 14 -12 3 -10 8 -9 22 2 10 8 16 10 12 4
-4 -8 2 -11 18 -10 34 2 32 26 -2 27 -164 6 -173 5 -173 -16z"/>
<path d="M2468 1108 c5 -21 6 -21 13 -2 6 15 8 16 8 2 1 -17 16 -19 39 -5 6 5
12 4 12 -2 0 -10 25 -9 36 1 15 15 -8 25 -41 18 -20 -4 -35 -4 -35 1 0 5 -9 9
-19 9 -15 0 -18 -5 -13 -22z"/>
<path d="M147 1083 c-3 -5 -2 -15 2 -22 5 -7 11 -9 14 -4 3 5 2 15 -2 22 -5 7
-11 9 -14 4z"/>
<path d="M173 1070 c1 -11 5 -20 9 -20 4 0 8 9 8 20 0 11 -4 20 -9 20 -6 0 -9
-9 -8 -20z"/>
<path d="M1566 1082 c-2 -4 -1 -14 5 -22 7 -12 9 -10 9 8 0 23 -5 28 -14 14z"/>
<path d="M1590 1069 c0 -10 5 -19 11 -19 5 0 8 4 5 8 -3 5 1 9 9 9 8 0 12 -4
9 -9 -3 -4 7 -8 21 -8 19 0 26 5 23 16 -2 12 -15 18 -40 19 -32 3 -38 0 -38
-16z"/>
<path d="M217 638 l2 -440 256 1 c141 0 261 3 266 6 5 4 9 3 9 -2 0 -4 81 -8
180 -8 99 0 180 3 180 7 0 3 8 4 18 2 9 -3 88 -6 175 -7 l157 -2 -2 440 -3
440 -620 2 -620 1 2 -440z m1233 2 l0 -420 -607 0 -608 0 0 420 0 420 608 0
607 0 0 -420z"/>
<path d="M1320 990 c0 -32 -10 -55 -46 -108 -56 -82 -58 -84 -52 -49 3 15 1
30 -3 33 -5 3 -9 -15 -9 -39 0 -31 -6 -49 -20 -62 -11 -10 -20 -23 -20 -29 1
-6 10 0 20 13 l20 23 0 -26 c0 -14 4 -26 8 -26 5 0 7 12 5 28 -3 20 9 47 44
102 47 74 48 75 51 43 6 -65 17 -31 17 52 0 47 -3 85 -7 85 -5 0 -8 -18 -8
-40z"/>
<path d="M1150 809 c-1 -28 -8 -39 -45 -66 -49 -37 -60 -40 -51 -18 3 9 0 15
-8 15 -8 0 -12 -8 -9 -22 3 -17 -10 -36 -51 -78 -38 -37 -56 -49 -56 -37 0 9
-4 17 -9 17 -5 0 -7 -18 -5 -40 3 -31 0 -42 -13 -47 -9 -4 -19 -1 -21 5 -5 17
-22 15 -22 -2 0 -16 -68 -31 -99 -21 -15 5 -19 1 -17 -20 1 -26 16 -36 16 -11
0 15 92 28 98 14 6 -13 22 -9 20 4 -2 7 7 14 20 16 12 2 35 10 50 18 16 8 28
10 30 4 7 -21 17 -9 17 20 1 17 -3 30 -7 30 -4 0 -8 -6 -8 -13 0 -8 -11 -19
-25 -25 -39 -18 -30 2 30 68 46 50 55 56 56 37 0 -17 3 -14 12 12 7 19 18 36
25 39 12 4 15 -14 12 -80 -1 -22 3 -38 9 -38 6 0 11 15 11 33 0 21 9 42 28 62
24 26 27 38 26 88 -1 61 -14 93 -14 36z m-19 -115 c-20 -25 -21 -26 -21 -5 0
11 -6 21 -12 21 -7 1 1 12 17 25 29 24 30 24 33 5 2 -11 -6 -32 -17 -46z"/>
<path d="M415 435 c0 -29 4 -45 12 -45 7 0 10 7 6 16 -3 9 -2 15 3 13 5 -2 31
-13 57 -23 38 -15 47 -23 44 -38 -3 -11 0 -18 8 -18 8 0 11 7 8 19 -4 15 3 20
32 25 20 4 43 10 51 13 9 3 14 -2 14 -16 0 -12 5 -21 10 -21 6 0 10 20 10 45
0 33 4 45 15 45 8 0 15 -7 15 -15 0 -8 5 -15 11 -15 6 0 9 7 5 15 -4 12 5 15
49 15 30 0 55 -4 55 -10 0 -5 5 -10 10 -10 6 0 10 11 10 25 0 14 -4 25 -10 25
-5 0 -10 -4 -10 -10 0 -15 -97 -13 -103 3 -4 9 -8 9 -14 1 -9 -13 -103 -23
-103 -12 0 5 -4 8 -10 8 -5 0 -10 -11 -10 -25 0 -14 5 -25 11 -25 5 0 8 4 5 9
-3 5 8 11 24 13 23 4 30 1 30 -13 0 -11 -14 -20 -44 -28 -57 -14 -59 -14 -52
4 3 9 0 15 -9 15 -9 0 -12 -6 -9 -15 8 -20 1 -19 -57 11 -40 20 -50 29 -46 45
3 11 0 19 -6 19 -7 0 -12 -18 -12 -45z"/>
<path d="M1698 908 c2 -131 0 -173 -10 -180 -10 -6 -10 -8 0 -8 8 0 12 -23 12
-80 0 -57 -4 -80 -12 -80 -10 0 -10 -2 0 -8 9 -7 12 -50 11 -180 -1 -95 1
-175 5 -179 3 -3 6 -1 6 6 0 7 4 9 10 6 12 -8 418 -8 430 0 6 3 10 3 10 -2 0
-4 176 -8 390 -8 l390 0 -2 440 -3 440 -620 2 -620 3 3 -172z m1232 -268 l0
-420 -610 0 -610 0 0 420 0 420 610 0 610 0 0 -420z"/>
<path d="M2811 901 c-13 -21 -38 -55 -57 -75 -38 -42 -40 -46 -19 -46 8 0 15
5 15 10 0 12 78 113 91 118 11 4 12 32 2 32 -5 0 -19 -18 -32 -39z"/>
<path d="M2714 742 c6 -10 -77 -82 -93 -82 -12 0 -15 -13 -4 -23 6 -6 113 87
121 105 2 5 -4 8 -13 8 -9 0 -14 -4 -11 -8z"/>
<path d="M2585 589 c-22 -15 -45 -26 -52 -24 -10 3 -121 -14 -132 -21 -1 -2 0
-8 4 -14 4 -7 11 -8 18 -2 20 16 87 24 87 12 0 -7 15 -2 35 10 19 12 48 28 65
36 16 9 28 20 25 25 -4 5 -7 9 -8 8 -1 0 -20 -14 -42 -30z"/>
<path d="M2395 495 c-5 -2 -32 -6 -58 -10 -27 -4 -47 -9 -44 -11 8 -9 127 8
127 17 0 9 -7 10 -25 4z"/>
<path d="M2184 438 c-10 -16 7 -29 21 -18 8 7 35 10 61 9 26 -2 49 1 51 7 4
12 -126 13 -133 2z"/>
<path d="M2080 377 c0 -6 -22 -8 -56 -4 -35 4 -54 2 -52 -4 5 -15 128 -17 128
-2 0 6 8 10 18 8 60 -12 92 -13 92 -2 0 8 -22 12 -65 13 -37 0 -65 -3 -65 -9z"/>
<path d="M1860 332 c0 -9 69 -22 111 -22 38 0 17 15 -24 17 -23 1 -52 5 -64 8
-13 3 -23 1 -23 -3z"/>
<path d="M167 900 c-3 -13 0 -20 9 -20 8 0 14 9 14 20 0 11 -4 20 -9 20 -5 0
-11 -9 -14 -20z"/>
<path d="M1590 899 c0 -22 10 -24 29 -6 11 10 13 10 7 0 -5 -9 1 -13 19 -13
19 0 26 5 23 16 -2 12 -15 18 -40 19 -32 3 -38 0 -38 -16z"/>
<path d="M1520 890 c-8 -5 -10 -10 -4 -10 6 0 11 -10 11 -22 1 -48 3 -58 16
-58 7 0 13 9 13 20 0 11 -4 20 -9 20 -5 0 -4 6 2 14 9 11 9 15 -1 19 -7 3 -4
6 7 6 17 1 17 3 5 11 -8 5 -17 10 -20 10 -3 0 -12 -5 -20 -10z"/>
<path d="M1529 778 c-1 -7 -1 -16 0 -20 0 -5 -5 -8 -11 -8 -7 0 -5 -5 5 -11
10 -6 23 -7 33 -1 15 8 15 10 0 15 -9 4 -13 13 -10 22 3 8 1 15 -5 15 -6 0
-12 -6 -12 -12z"/>
<path d="M166 741 c-8 -13 4 -42 15 -35 12 7 12 44 0 44 -6 0 -12 -4 -15 -9z"/>
<path d="M1590 729 c0 -14 7 -19 30 -19 17 0 33 0 38 0 4 0 7 7 7 16 0 12 -10
18 -37 19 -32 3 -38 0 -38 -16z"/>
<path d="M90 710 c-12 -8 -12 -10 3 -16 21 -8 35 2 21 16 -5 5 -15 6 -24 0z"/>
<path d="M1529 718 c0 -2 -2 -20 -3 -40 -2 -32 1 -38 18 -38 15 0 17 3 9 11
-8 8 -8 20 -3 34 9 23 4 35 -12 35 -4 0 -8 -1 -9 -2z"/>
<path d="M89 668 c-1 -7 0 -25 1 -40 1 -14 -4 -29 -10 -33 -15 -9 -2 -25 21
-25 12 0 19 7 19 20 0 11 -6 20 -12 20 -9 0 -8 4 2 10 12 8 12 10 1 10 -11 0
-11 3 0 17 12 15 12 16 -1 8 -13 -8 -13 -7 -1 8 12 15 11 17 -3 17 -9 0 -16
-6 -17 -12z m21 -78 c0 -5 -2 -10 -4 -10 -3 0 -8 5 -11 10 -3 6 -1 10 4 10 6
0 11 -4 11 -10z"/>
<path d="M1510 620 c0 -5 12 -10 26 -10 14 0 23 4 19 10 -3 6 -15 10 -26 10
-10 0 -19 -4 -19 -10z"/>
<path d="M1529 595 c-1 -3 -2 -15 -2 -27 -1 -13 -6 -26 -11 -30 -6 -4 -2 -8
10 -8 25 0 36 20 24 41 -6 8 -4 16 3 21 8 5 6 8 -5 8 -10 0 -18 -2 -19 -5z"/>
<path d="M167 556 c-3 -8 1 -17 9 -20 9 -4 14 1 14 14 0 23 -15 27 -23 6z"/>
<path d="M1593 546 c-1 -11 1 -15 4 -8 4 10 8 10 19 1 11 -9 18 -9 26 -1 15
15 3 30 -25 30 -16 0 -23 -6 -24 -22z"/>
<path d="M1654 550 c0 -11 4 -20 8 -20 4 0 8 9 8 20 0 11 -4 20 -8 20 -4 0 -8
-9 -8 -20z"/>
<path d="M1528 513 c7 -3 16 -2 19 1 4 3 -2 6 -13 5 -11 0 -14 -3 -6 -6z"/>
<path d="M1526 478 c1 -13 3 -29 3 -35 1 -7 7 -13 14 -13 7 0 12 14 12 35 0
25 -4 35 -16 35 -10 0 -15 -8 -13 -22z"/>
<path d="M1517 414 c-11 -11 3 -24 26 -24 16 0 18 3 8 9 -11 7 -11 9 0 14 9 3
6 6 -7 6 -11 1 -24 -2 -27 -5z"/>
<path d="M173 393 c4 -3 2 -12 -4 -20 -9 -10 -8 -13 3 -13 7 0 14 9 15 20 1
11 -3 20 -9 20 -6 0 -8 -3 -5 -7z"/>
<path d="M1590 380 c0 -14 7 -18 28 -17 16 2 27 8 27 17 0 9 -11 15 -27 17
-21 1 -28 -3 -28 -17z"/>
<path d="M1654 380 c0 -11 4 -20 8 -20 4 0 8 9 8 20 0 11 -4 20 -8 20 -4 0 -8
-9 -8 -20z"/>
<path d="M165 220 c-7 -12 2 -30 16 -30 5 0 9 9 9 20 0 21 -15 27 -25 10z"/>
<path d="M1593 211 c1 -12 6 -20 12 -18 14 5 13 29 -2 34 -7 3 -11 -4 -10 -16z"/>
<path d="M1624 210 c0 -11 5 -19 11 -17 5 2 10 10 10 17 0 7 -5 15 -10 17 -6
2 -11 -6 -11 -17z"/>
<path d="M1654 210 c0 -11 4 -20 8 -20 4 0 8 9 8 20 0 11 -4 20 -8 20 -4 0 -8
-9 -8 -20z"/>
<path d="M209 176 c-7 -8 -5 -36 3 -36 6 0 7 8 4 18 -6 16 -5 16 8 0 17 -23
38 -23 34 -1 -2 9 -13 17 -25 18 -13 1 -23 1 -24 1z"/>
<path d="M383 160 c1 -14 8 -20 25 -20 30 0 26 32 -5 36 -16 3 -21 -1 -20 -16z"/>
<path d="M581 163 c-6 -11 -11 -13 -11 -5 0 7 -5 10 -10 7 -16 -10 -1 -25 26
-25 14 0 24 6 24 14 0 23 -18 28 -29 9z"/>
<path d="M730 160 c0 -15 7 -20 25 -20 14 0 25 6 25 13 0 22 -12 28 -28 14
-13 -9 -14 -9 -8 1 4 6 2 12 -3 12 -6 0 -11 -9 -11 -20z"/>
<path d="M907 173 c-17 -16 -5 -33 23 -33 19 0 30 5 30 14 0 20 -17 29 -26 15
-5 -8 -8 -8 -13 0 -4 6 -10 8 -14 4z"/>
<path d="M1083 162 c-1 -12 7 -18 24 -20 18 -1 24 2 21 15 -4 23 -43 27 -45 5z"/>
<path d="M1255 172 c-16 -16 -3 -33 23 -30 33 4 37 31 4 33 -12 1 -24 -1 -27
-3z"/>
<path d="M1429 176 c0 -1 -2 -9 -4 -18 -2 -14 4 -18 27 -18 22 0 29 4 26 17
-2 9 -13 17 -25 18 -13 1 -23 1 -24 1z"/>
<path d="M1686 172 c-2 -4 -1 -14 5 -22 7 -12 9 -10 9 8 0 23 -5 28 -14 14z"/>
<path d="M1713 160 c1 -20 8 -25 20 -14 7 8 -3 34 -13 34 -5 0 -8 -9 -7 -20z"/>
<path d="M1839 176 c-7 -8 -5 -36 3 -36 6 0 7 8 4 18 -6 16 -5 16 8 0 17 -23
38 -23 34 -1 -2 9 -13 17 -25 18 -13 1 -23 1 -24 1z"/>
<path d="M1984 168 c-3 -4 1 -8 8 -8 9 0 9 -3 -2 -10 -11 -7 -7 -10 18 -10 26
0 33 4 30 17 -3 17 -45 26 -54 11z"/>
<path d="M2147 166 c-7 -18 1 -26 25 -26 20 0 25 25 6 36 -8 5 -9 1 -5 -12 7
-18 6 -18 -7 -1 -11 14 -15 15 -19 3z"/>
<path d="M2297 174 c-4 -4 -7 -13 -7 -21 0 -15 46 -18 55 -3 9 14 -4 32 -17
24 -6 -4 -5 -10 3 -15 10 -6 10 -9 2 -9 -7 0 -16 7 -21 15 -4 9 -11 12 -15 9z"/>
<path d="M2445 172 c-15 -16 -2 -32 26 -32 23 0 30 4 27 17 -3 15 -42 26 -53
15z"/>
<path d="M2603 162 c-1 -12 7 -18 24 -20 18 -1 24 2 21 15 -4 23 -43 27 -45 5z"/>
<path d="M2755 172 c-14 -14 -2 -32 19 -32 27 0 38 10 28 26 -7 11 -38 15 -47
6z"/>
<path d="M2905 172 c-15 -16 -2 -32 26 -32 23 0 30 4 27 17 -3 15 -42 26 -53
15z"/>
<path d="M640 100 c0 -13 7 -20 20 -20 11 0 20 6 20 13 0 8 3 7 10 -3 5 -8 13
-11 17 -6 10 10 -25 36 -49 36 -11 0 -18 -7 -18 -20z m25 0 c3 -5 1 -10 -4
-10 -6 0 -11 5 -11 10 0 6 2 10 4 10 3 0 8 -4 11 -10z"/>
<path d="M805 112 c-16 -11 -16 -32 -1 -32 8 0 17 4 20 8 7 12 -8 32 -19 24z"/>
<path d="M890 100 c0 -17 7 -20 40 -20 33 0 40 3 40 20 0 24 -13 26 -34 5 -16
-16 -30 -20 -22 -6 3 5 -1 11 -9 15 -10 4 -15 -1 -15 -14z"/>
<path d="M988 102 c-3 -10 0 -19 6 -19 6 0 19 -4 28 -8 13 -5 17 -2 15 14 -1
23 -13 28 -20 9 -3 -8 -6 -6 -6 5 -1 23 -17 22 -23 -1z"/>
<path d="M2115 110 c-7 -11 2 -30 13 -30 4 0 8 9 8 20 0 21 -11 26 -21 10z"/>
<path d="M2150 101 c0 -25 6 -27 13 -6 4 8 2 17 -3 20 -6 4 -10 -3 -10 -14z"/>
<path d="M2287 106 c-3 -8 -2 -18 3 -21 13 -8 20 9 11 24 -6 10 -10 9 -14 -3z"/>
<path d="M2352 113 c-6 -3 -10 -9 -7 -13 3 -5 1 -12 -5 -15 -6 -4 -9 -1 -8 6
2 6 -2 13 -8 16 -6 2 -11 -3 -11 -12 0 -17 32 -30 49 -19 7 5 27 7 45 5 27 -2
33 1 33 18 0 14 -5 19 -15 15 -8 -4 -15 -10 -15 -15 0 -5 -5 -9 -11 -9 -5 0
-7 5 -3 12 5 7 2 9 -9 5 -9 -3 -17 -2 -19 2 -2 4 -9 6 -16 4z"/>
<path d="M2467 113 c-23 -22 2 -38 30 -20 9 6 11 3 7 -7 -3 -9 -1 -16 5 -16 6
0 11 4 11 10 0 5 7 7 15 4 9 -4 15 0 15 10 0 12 -8 15 -32 12 -18 -2 -36 0
-39 5 -3 5 -8 6 -12 2z"/>
<path d="M716 95 c7 -18 44 -20 44 -2 0 9 3 8 9 -2 6 -9 11 -10 15 -2 11 17
-22 25 -41 10 -12 -10 -15 -10 -9 -1 4 7 1 12 -8 12 -10 0 -13 -6 -10 -15z"/>
<path d="M833 93 c0 -7 6 -12 14 -9 7 3 13 1 13 -4 0 -6 5 -10 10 -10 6 0 10
8 10 19 0 13 -7 19 -23 19 -14 0 -24 -6 -24 -15z"/>
<path d="M1047 104 c-8 -8 1 -24 14 -24 5 0 9 7 9 15 0 15 -12 20 -23 9z"/>
<path d="M2175 99 c-4 -6 -4 -13 0 -17 3 -3 10 0 15 8 7 10 10 11 10 3 0 -18
37 -16 44 2 7 18 -5 20 -23 3 -11 -10 -13 -10 -7 0 9 15 -30 17 -39 1z"/>
<path d="M2257 103 c-11 -11 -8 -23 6 -23 8 0 14 7 14 15 0 16 -9 19 -20 8z"/>
</g>
</svg>
