<?xml version="1.0" standalone="no"?>
<!DOCTYPE svg PUBLIC "-//W3C//DTD SVG 20010904//EN"
 "http://www.w3.org/TR/2001/REC-SVG-20010904/DTD/svg10.dtd">
<svg version="1.0" xmlns="http://www.w3.org/2000/svg"
 width="300.000000pt" height="279.000000pt" viewBox="0 0 300.000000 279.000000"
 preserveAspectRatio="xMidYMid meet">
<metadata>
Created by potrace 1.10, written by Peter Selinger 2001-2011
</metadata>
<g transform="translate(0.000000,279.000000) scale(0.100000,-0.100000)"
fill="#000000" stroke="none">
<path d="M2967 2783 c-4 -3 -7 -11 -7 -17 0 -6 5 -5 12 2 6 6 9 14 7 17 -3 3
-9 2 -12 -2z"/>
<path d="M239 2758 c-7 -19 -5 -757 2 -753 5 4 9 46 9 95 0 61 4 90 13 93 10
4 10 6 0 6 -18 1 -18 191 -1 191 9 0 9 3 0 12 -17 17 -16 195 1 201 10 4 10 6
0 6 -9 1 -13 22 -13 72 l0 71 578 -5 c317 -3 577 -6 578 -6 1 -1 0 -54 -2
-118 -1 -65 -3 -310 -3 -545 -1 -362 -3 -428 -15 -428 -8 0 -17 6 -19 13 -4
10 -6 10 -6 0 -1 -18 -147 -18 -154 0 -4 9 -6 9 -6 0 -1 -9 -22 -13 -70 -13
-46 0 -71 4 -74 13 -4 10 -6 10 -6 0 -1 -9 -22 -13 -70 -13 -46 0 -71 4 -75
13 -5 10 -7 10 -12 0 -4 -9 -29 -13 -74 -13 -45 0 -70 4 -73 13 -4 10 -6 10
-6 0 -1 -9 -22 -13 -70 -13 -46 0 -71 4 -75 13 -5 10 -7 10 -12 0 -8 -18 -140
-18 -147 0 -4 9 -6 9 -6 0 -1 -9 -22 -13 -70 -13 -46 0 -71 4 -75 13 -5 10 -7
10 -12 0 -3 -7 -12 -13 -20 -13 -11 0 -14 16 -14 65 0 45 4 65 13 65 8 0 8 3
-2 9 -11 7 -12 25 -8 79 9 93 -9 142 -50 139 -21 -2 -29 -8 -31 -25 -3 -20 0
-22 32 -19 l36 4 0 -86 c0 -84 -11 -124 -27 -107 -4 5 -2 11 5 13 23 9 12 22
-15 19 -20 -2 -29 -10 -31 -25 -3 -19 0 -21 32 -18 l36 4 0 -63 0 -64 213 0
c116 0 382 -3 589 -7 l376 -6 4 149 c2 82 4 336 4 564 l-1 415 -587 3 c-324 1
-588 1 -589 0z"/>
<path d="M1789 2746 c-5 -6 -9 -83 -9 -173 0 -174 1 -170 -49 -164 -7 2 -10
-3 -6 -9 4 -6 1 -17 -5 -25 -10 -12 -9 -15 4 -15 10 0 15 4 11 9 -3 5 -1 12 5
16 5 3 10 -1 10 -9 0 -9 4 -16 9 -16 5 0 7 10 5 23 -4 20 -4 21 5 2 5 -11 10
-57 10 -102 1 -69 -1 -81 -14 -77 -10 4 -15 0 -16 -12 0 -18 -1 -18 -8 1 -8
19 -8 19 -20 -3 -8 -14 -8 -22 -1 -23 5 -1 15 -3 20 -4 6 -1 17 -3 25 -4 12
-1 15 -17 15 -83 0 -93 -12 -125 -34 -95 -19 24 -38 21 -34 -5 2 -19 9 -23 36
-22 l32 0 0 -83 c0 -69 -2 -81 -15 -77 -8 4 -15 2 -15 -4 0 -6 6 -13 13 -15 9
-4 9 -6 -1 -6 -7 -1 -15 6 -18 14 -10 24 -36 18 -32 -7 2 -19 9 -23 36 -22
l33 0 -1 -50 c-1 -28 -1 -57 -1 -64 1 -10 123 -12 594 -10 l592 3 3 553 c2
437 0 554 -10 557 -26 10 -1159 10 -1169 1z m1167 -19 c2 -1 0 -246 -3 -545
-5 -444 -9 -542 -20 -542 -7 0 -13 6 -14 13 0 10 -2 10 -6 0 -7 -18 -143 -18
-143 -1 0 9 -3 9 -12 0 -16 -16 -130 -16 -146 0 -8 8 -12 8 -12 1 0 -14 -132
-12 -143 2 -6 7 -10 7 -13 0 -6 -14 -137 -6 -146 8 -6 9 -8 9 -8 0 0 -17 -131
-18 -148 -1 -9 9 -12 9 -12 0 0 -17 -140 -17 -141 1 0 10 -2 10 -6 0 -3 -9
-29 -13 -79 -13 -52 0 -74 4 -75 13 0 9 -2 9 -6 0 -2 -7 -11 -13 -19 -13 -19
0 -21 130 -1 131 10 0 10 2 0 6 -9 3 -13 33 -13 99 0 68 3 94 13 95 10 0 10 2
0 6 -9 3 -13 33 -13 99 0 68 3 94 13 95 10 0 10 2 0 6 -9 3 -13 34 -13 104 0
72 3 99 13 99 9 0 9 3 -1 9 -11 6 -12 24 -7 77 4 38 6 114 6 168 l-1 99 577
-7 c317 -3 578 -8 579 -9z"/>
<path d="M2300 2665 c0 -23 2 -26 15 -15 8 7 12 16 9 21 -3 5 0 9 5 9 6 0 11
-10 11 -22 0 -17 3 -19 9 -9 7 11 9 11 13 0 5 -12 9 -12 28 -1 17 10 25 11 34
2 8 -8 6 -9 -9 -4 -11 4 -17 3 -12 -2 4 -4 42 -7 83 -5 51 2 74 -1 74 -9 0
-17 17 -3 23 20 3 11 2 18 -2 16 -4 -3 -13 -1 -21 4 -9 5 -19 5 -27 -2 -9 -7
-13 -7 -13 0 0 14 -61 7 -70 -9 -6 -8 -9 -8 -12 2 -2 7 -22 14 -44 15 -21 2
-51 6 -66 10 -25 6 -28 4 -28 -21z"/>
<path d="M2666 2681 c-4 -5 -2 -20 3 -33 9 -21 10 -21 10 10 1 32 -3 39 -13
23z"/>
<path d="M2707 2660 c6 -21 43 -28 43 -8 0 6 7 4 18 -5 25 -23 41 -21 39 3 -1
22 -13 27 -20 8 -4 -9 -6 -8 -6 2 -1 9 -10 16 -21 16 -11 0 -20 -7 -20 -16 -1
-12 -3 -12 -11 3 -14 23 -28 22 -22 -3z"/>
<path d="M2605 2660 c-3 -5 3 -10 14 -10 12 0 21 5 21 10 0 6 -6 10 -14 10 -8
0 -18 -4 -21 -10z"/>
<path d="M1830 2609 c0 -15 7 -29 15 -33 34 -13 113 -18 132 -8 14 8 34 7 71
-3 29 -7 50 -9 47 -5 -8 12 58 3 112 -15 24 -8 63 -15 88 -15 24 0 64 -9 90
-20 57 -24 75 -25 75 -3 0 14 2 14 18 2 9 -8 41 -28 70 -43 51 -27 54 -27 67
-9 9 10 14 13 15 6 0 -7 5 -13 12 -13 6 0 25 -11 42 -23 54 -41 77 -51 87 -36
5 9 26 -5 76 -51 l68 -64 7 40 c6 39 -8 64 -36 64 -6 0 0 -9 14 -20 14 -11 19
-20 12 -20 -7 0 -10 -4 -7 -10 3 -5 1 -10 -5 -10 -7 0 -9 7 -6 15 4 11 0 15
-11 13 -10 -2 -18 2 -18 9 0 7 -9 19 -20 27 -11 9 -15 16 -9 16 6 0 14 -3 18
-7 7 -7 66 -14 66 -8 0 2 -27 12 -61 24 -33 11 -69 30 -79 43 -12 14 -19 18
-20 10 0 -10 -9 -12 -32 -8 -25 5 -28 4 -13 -3 18 -8 18 -10 2 -10 -10 -1 -20
6 -23 14 -4 8 -12 15 -18 15 -7 0 -25 14 -41 30 -16 17 -38 30 -49 29 -20 0
-20 -1 2 -9 27 -11 31 -50 5 -50 -15 0 -16 2 -4 9 16 10 10 14 -73 43 -32 11
-47 24 -63 56 0 2 -27 -1 -58 -7 -59 -11 -97 -2 -92 22 1 7 -7 11 -18 10 -11
-1 -46 -5 -77 -9 -50 -6 -58 -4 -58 10 0 13 -10 16 -47 14 l-48 -1 45 -7 c56
-9 43 -13 -30 -11 -37 2 -60 8 -70 19 -12 13 -32 17 -93 17 -77 0 -77 0 -77
-26z m40 -4 c-7 -8 -18 -15 -24 -14 -6 0 -5 3 3 6 11 5 11 7 0 14 -10 6 -7 9
10 9 20 0 21 -2 11 -15z m65 5 c-3 -5 -15 -10 -26 -10 -11 0 -17 5 -14 10 3 6
15 10 26 10 11 0 17 -4 14 -10z m50 0 c-3 -5 -13 -10 -21 -10 -8 0 -12 5 -9
10 3 6 13 10 21 10 8 0 12 -4 9 -10z m-82 -27 c-7 -2 -19 -2 -25 0 -7 3 -2 5
12 5 14 0 19 -2 13 -5z m57 -3 c-20 -13 -40 -13 -40 0 0 6 12 10 28 10 21 0
24 -2 12 -10z m335 -11 c6 -6 -3 -7 -23 -3 -20 4 -38 2 -47 -6 -10 -8 -15 -9
-15 -2 0 28 58 35 85 11z m-15 -19 c0 -5 -4 -10 -9 -10 -6 0 -13 5 -16 10 -3
6 1 10 9 10 9 0 16 -4 16 -10z m148 4 c12 -4 22 -10 22 -14 0 -8 -77 4 -87 14
-8 8 35 8 65 0z m7 -42 c-3 -3 -11 0 -18 7 -9 10 -8 11 6 5 10 -3 15 -9 12
-12z m331 -87 c16 -16 7 -19 -20 -9 -18 7 -22 24 -5 24 6 0 17 -7 25 -15z"/>
<path d="M750 2675 c0 -14 5 -25 10 -25 9 0 12 8 9 26 0 4 5 11 13 15 9 6 7 9
-9 9 -18 0 -23 -6 -23 -25z"/>
<path d="M1107 2685 c-8 -20 3 -47 17 -42 6 2 11 14 11 27 0 27 -20 38 -28 15z
m23 -15 c0 -5 -2 -10 -4 -10 -3 0 -8 5 -11 10 -3 6 -1 10 4 10 6 0 11 -4 11
-10z"/>
<path d="M1163 2680 c3 -11 0 -20 -6 -20 -7 0 -7 -4 1 -12 10 -10 15 -10 21 1
10 16 3 51 -11 51 -6 0 -8 -9 -5 -20z"/>
<path d="M793 2673 c-3 -8 -3 -17 1 -20 3 -4 6 0 6 8 0 11 2 11 10 -1 8 -12
13 -13 30 -2 16 10 20 10 18 0 -4 -17 84 -11 94 6 6 8 8 8 8 -1 0 -7 11 -13
24 -13 13 0 26 -6 29 -12 3 -8 9 -3 15 12 8 21 6 26 -12 31 -11 3 -27 1 -33
-4 -9 -6 -13 -6 -13 1 0 15 -64 6 -69 -9 -2 -8 -6 -8 -11 2 -11 18 -90 19 -97
2z"/>
<path d="M1200 2669 c0 -14 7 -19 25 -19 14 0 25 5 25 11 0 6 7 3 16 -5 8 -9
21 -16 28 -16 14 0 16 39 1 41 -71 9 -95 6 -95 -12z m40 1 c0 -5 -5 -10 -11
-10 -5 0 -7 5 -4 10 3 6 8 10 11 10 2 0 4 -4 4 -10z m45 0 c3 -5 1 -10 -4 -10
-6 0 -11 5 -11 10 0 6 2 10 4 10 3 0 8 -4 11 -10z"/>
<path d="M1050 2670 c0 -5 7 -10 15 -10 8 0 15 5 15 10 0 6 -7 10 -15 10 -8 0
-15 -4 -15 -10z"/>
<path d="M184 2617 c-8 -21 1 -47 16 -47 19 0 23 31 7 48 -15 14 -17 14 -23
-1z"/>
<path d="M280 2601 c0 -24 6 -31 43 -44 67 -26 108 -32 117 -17 7 11 19 11 67
-2 32 -9 66 -20 76 -23 12 -5 17 -2 17 10 0 18 -3 18 105 -1 23 -4 26 -3 15 5
-11 8 -11 11 -2 11 7 0 15 -7 18 -15 4 -8 19 -15 34 -15 57 0 314 -64 387 -96
31 -14 68 -26 83 -27 16 -1 26 -5 24 -8 -3 -6 39 -38 94 -72 10 -7 13 4 11 52
-2 59 -3 61 -35 71 -18 6 -53 27 -78 46 -42 32 -46 33 -46 14 0 -11 -2 -20 -5
-20 -11 0 -111 53 -129 69 -18 15 -19 15 -14 -6 4 -13 5 -23 3 -23 -2 0 -36
13 -76 30 -85 34 -86 35 -91 17 -2 -11 -18 -9 -73 9 -38 12 -72 19 -75 14 -3
-5 -41 -3 -85 5 -44 7 -138 16 -209 20 -71 4 -140 11 -153 16 -21 8 -23 6 -23
-20z m47 -8 c-9 -2 -15 -9 -12 -14 3 -5 -1 -6 -10 -2 -13 5 -14 7 -3 14 7 5
20 8 28 8 11 -1 10 -3 -3 -6z m53 -18 c-7 -8 -22 -14 -34 -14 -19 2 -18 2 3 6
19 4 21 7 10 14 -10 6 -8 9 10 9 20 0 21 -2 11 -15z m60 5 c0 -5 -9 -10 -21
-10 -11 0 -17 5 -14 10 3 6 13 10 21 10 8 0 14 -4 14 -10z m150 1 c0 -8 -79
-3 -89 5 -2 2 17 4 42 4 26 0 47 -4 47 -9z m-175 -31 c-3 -5 -12 -7 -20 -3
-21 7 -19 13 6 13 11 0 18 -4 14 -10z m145 0 c0 -5 8 -10 17 -10 9 0 14 -3 10
-6 -10 -10 -58 5 -52 16 8 13 25 13 25 0z m236 -5 c10 -8 31 -15 47 -15 15 0
27 -4 27 -10 0 -5 7 -10 17 -10 9 0 14 -3 10 -6 -5 -5 -57 7 -97 24 -8 3 -21
6 -29 6 -19 1 -27 26 -9 26 8 0 23 -7 34 -15z m164 -21 c22 -9 40 -20 40 -25
0 -5 11 -9 25 -9 16 0 25 -6 25 -15 0 -8 -5 -15 -11 -15 -5 0 -7 5 -3 11 4 7
0 9 -14 5 -12 -4 -22 -1 -25 8 -3 8 -24 17 -46 21 -25 4 -41 12 -41 21 0 18 1
17 50 -2z m201 -67 c27 -17 49 -35 49 -39 0 -13 -15 -9 -36 10 -11 11 -40 26
-64 34 -24 8 -46 20 -48 28 -7 20 43 4 99 -33z m112 -19 c4 1 7 -2 7 -8 0 -5
-6 -10 -12 -10 -7 0 7 -12 32 -26 49 -28 65 -41 38 -31 -46 17 -50 17 -15 -3
20 -11 37 -25 37 -30 0 -6 -18 2 -40 16 -22 15 -37 30 -35 35 6 8 -33 24 -50
21 -6 -1 -11 12 -11 28 -2 27 0 29 20 18 11 -7 24 -11 29 -10z m49 -30 c-12
-12 -35 -1 -27 12 3 5 13 6 21 3 10 -4 12 -9 6 -15z m33 -8 c3 -5 1 -10 -4
-10 -6 0 -11 5 -11 10 0 6 2 10 4 10 3 0 8 -4 11 -10z"/>
<path d="M1733 2604 c-8 -21 13 -42 28 -27 13 13 5 43 -11 43 -6 0 -13 -7 -17
-16z"/>
<path d="M79 2448 c-1 -2 -3 -27 -4 -55 -2 -52 -2 -53 26 -53 15 0 31 4 34 10
3 5 0 7 -7 5 -10 -4 -13 4 -10 35 2 22 8 40 14 40 5 0 6 5 3 10 -5 9 -52 15
-56 8z m28 -30 c2 -18 0 -20 -7 -8 -12 18 -13 30 -2 30 4 0 9 -10 9 -22z"/>
<path d="M1627 2433 c-2 -5 -3 -21 -3 -38 1 -21 8 -33 26 -43 l25 -14 -28 7
c-19 4 -26 2 -22 -5 3 -5 17 -10 29 -10 22 0 23 3 18 45 -3 31 -1 45 7 45 7 0
9 5 6 10 -7 12 -52 14 -58 3z m40 -9 c-3 -3 -12 -4 -19 -1 -8 3 -5 6 6 6 11 1
17 -2 13 -5z"/>
<path d="M165 2409 c-4 -5 -1 -9 6 -9 8 0 8 -4 -1 -15 -11 -13 -7 -15 24 -15
33 0 37 3 34 21 -2 15 -11 23 -30 25 -15 1 -30 -2 -33 -7z"/>
<path d="M70 2309 c0 -5 4 -8 8 -5 5 3 7 -17 6 -45 -1 -36 2 -49 12 -49 8 0
14 -4 14 -10 0 -5 -9 -10 -20 -10 -11 0 -20 -4 -20 -10 0 -5 11 -10 24 -10 23
0 24 2 23 75 -1 71 -2 75 -24 75 -13 0 -23 -5 -23 -11z"/>
<path d="M1626 2302 c5 -4 10 -27 10 -51 -1 -26 4 -45 12 -48 19 -8 14 -21
-10 -26 -20 -4 -19 -4 5 -6 24 -1 27 3 27 29 0 17 -5 30 -12 30 -9 0 -8 4 2
10 13 9 13 11 0 20 -10 6 -11 10 -2 10 6 0 12 9 12 20 0 15 -7 20 -27 20 -16
0 -23 -4 -17 -8z"/>
<path d="M170 2195 c-16 -20 -2 -33 33 -31 26 1 38 46 13 46 -9 0 -16 -6 -16
-12 0 -10 -2 -10 -9 0 -6 10 -11 10 -21 -3z"/>
<path d="M89 2158 c-8 -20 -11 -74 -6 -125 3 -25 0 -43 -6 -43 -5 0 -5 -6 2
-14 9 -11 9 -15 -1 -19 -7 -3 1 -6 17 -6 23 -1 27 2 15 9 -10 7 -11 13 -5 18
6 4 12 26 14 49 2 33 -1 42 -16 46 -16 4 -16 5 0 6 9 0 17 6 17 11 0 6 -8 10
-17 11 -14 0 -12 3 5 10 27 10 26 42 -1 47 -9 2 -18 2 -18 0z"/>
<path d="M1633 2115 c3 -19 0 -35 -5 -35 -5 0 -4 -8 1 -19 6 -10 7 -21 3 -25
-3 -4 0 -11 8 -16 12 -8 12 -10 1 -10 -7 0 -11 -6 -8 -14 3 -8 1 -17 -6 -20
-8 -3 -8 -5 2 -5 11 -1 11 -4 1 -16 -11 -13 -8 -15 16 -15 23 0 26 2 14 10 -9
6 -11 13 -5 18 6 4 11 26 13 49 2 32 -2 43 -15 46 -17 4 -17 5 0 6 20 1 23 17
5 24 -10 4 -10 6 0 6 7 1 10 6 7 11 -3 6 -1 10 4 10 6 0 11 7 11 15 0 9 -9 15
-25 15 -23 0 -25 -3 -22 -35z"/>
<path d="M650 2055 c0 -18 6 -21 50 -22 46 -1 50 1 50 23 0 27 -27 34 -36 10
-3 -9 -12 -12 -21 -9 -11 4 -14 2 -9 -5 5 -8 2 -10 -10 -5 -14 5 -13 8 7 19
l24 13 -27 -1 c-21 -2 -28 -8 -28 -23z m90 0 c0 -8 -4 -15 -10 -15 -5 0 -10 7
-10 15 0 8 5 15 10 15 6 0 10 -7 10 -15z"/>
<path d="M770 2057 c0 -20 5 -22 50 -23 29 0 50 4 50 10 0 6 5 4 11 -4 8 -12
10 -11 7 5 -4 22 -48 31 -60 11 -5 -7 -8 -5 -8 7 0 9 -4 17 -9 17 -5 0 -12 -8
-14 -17 -4 -17 -5 -17 -6 0 -2 26 -21 21 -21 -6z"/>
<path d="M418 2063 c29 -2 74 -2 100 0 26 2 2 3 -53 3 -55 0 -76 -1 -47 -3z"/>
<path d="M240 1990 c0 -5 5 -10 10 -10 6 0 10 5 10 10 0 6 -4 10 -10 10 -5 0
-10 -4 -10 -10z"/>
<path d="M650 1975 c0 -18 7 -21 50 -22 43 -2 50 0 50 17 0 28 -21 36 -37 15
-11 -17 -13 -17 -13 -2 0 12 -7 16 -25 15 -18 -2 -25 -8 -25 -23z m35 -13 c-3
-3 -11 0 -18 7 -9 10 -8 11 6 5 10 -3 15 -9 12 -12z m55 8 c0 -5 -4 -10 -10
-10 -5 0 -10 5 -10 10 0 6 5 10 10 10 6 0 10 -4 10 -10z"/>
<path d="M771 1993 c-1 -6 2 -19 5 -27 5 -13 9 -14 20 -5 8 6 14 18 14 26 0
12 -3 13 -14 4 -11 -9 -15 -9 -19 1 -4 9 -6 9 -6 1z"/>
<path d="M820 1993 c0 -6 -3 -20 -6 -30 -4 -13 -3 -15 4 -4 7 9 12 10 16 2 10
-15 46 -14 46 2 0 8 4 7 10 -3 5 -8 10 -12 10 -8 0 3 2 13 5 20 4 11 -4 14
-32 12 -21 0 -41 4 -45 10 -6 8 -8 8 -8 -1z"/>
<path d="M1750 1989 c0 -5 5 -7 10 -4 6 3 10 8 10 11 0 2 -4 4 -10 4 -5 0 -10
-5 -10 -11z"/>
<path d="M390 1982 c0 -5 14 -9 30 -9 17 0 30 4 30 9 0 4 -13 8 -30 8 -16 0
-30 -4 -30 -8z"/>
<path d="M460 1980 c0 -5 5 -10 10 -10 6 0 10 5 10 10 0 6 -4 10 -10 10 -5 0
-10 -4 -10 -10z"/>
<path d="M490 1980 c0 -5 5 -10 10 -10 6 0 10 5 10 10 0 6 -4 10 -10 10 -5 0
-10 -4 -10 -10z"/>
<path d="M520 1980 c0 -5 5 -10 10 -10 6 0 10 5 10 10 0 6 -4 10 -10 10 -5 0
-10 -4 -10 -10z"/>
<path d="M920 1976 c-17 -17 -11 -26 15 -24 14 1 25 7 25 13 0 5 5 3 11 -5 8
-12 10 -12 7 4 -3 21 -41 29 -58 12z"/>
<path d="M367 1831 c-3 -42 -2 -80 3 -85 5 -5 48 -9 97 -10 l88 -1 3 83 c2 61
0 82 -10 84 -7 0 -50 2 -94 4 l-81 2 -6 -77z m38 49 c-10 -11 -21 -17 -24 -14
-3 3 3 12 13 20 28 20 32 17 11 -6z m20 -20 c-16 -16 -33 -30 -39 -30 -5 0 3
14 19 30 16 17 33 30 39 30 5 0 -3 -13 -19 -30z m40 0 c-16 -16 -33 -30 -39
-30 -5 0 3 14 19 30 16 17 33 30 39 30 5 0 -3 -13 -19 -30z m40 0 c-16 -16
-33 -30 -39 -30 -5 0 3 14 19 30 16 17 33 30 39 30 5 0 -3 -13 -19 -30z m43
-4 c0 -18 -6 -23 -25 -23 l-24 0 22 23 c12 13 23 24 24 24 2 0 3 -11 3 -24z
m2 -76 l0 -30 -85 0 -85 0 0 30 0 30 85 0 85 0 0 -30z"/>
<path d="M650 1856 c0 -23 2 -24 79 -23 l79 1 -11 24 c-10 22 -12 22 -24 7 -6
-10 -26 -19 -43 -21 -23 -3 -30 0 -30 14 0 12 -9 18 -25 20 -20 1 -25 -3 -25
-22z m35 -6 c-3 -5 -12 -10 -18 -10 -7 0 -6 4 3 10 19 12 23 12 15 0z"/>
<path d="M725 1871 c-3 -5 -1 -12 5 -16 12 -7 30 2 30 16 0 12 -27 12 -35 0z"/>
<path d="M820 1858 c0 -21 5 -23 61 -26 53 -2 60 0 57 15 -2 13 -12 18 -36 17
-17 -1 -32 3 -32 7 0 16 -18 9 -23 -8 -4 -17 -5 -17 -6 0 -2 25 -21 21 -21 -5z"/>
<path d="M653 1784 c-7 -20 5 -47 18 -38 8 5 8 9 -1 14 -8 5 -7 9 5 13 9 4 14
3 11 -2 -12 -19 20 -30 59 -21 21 5 43 6 49 3 5 -4 7 1 3 11 -4 10 -7 20 -7
22 0 2 -4 4 -10 4 -5 0 -10 -6 -10 -13 0 -8 -14 -14 -35 -15 -25 -2 -35 2 -35
12 0 19 -40 28 -47 10z"/>
<path d="M728 1778 c9 -9 15 -9 24 0 9 9 7 12 -12 12 -19 0 -21 -3 -12 -12z"/>
<path d="M820 1778 c0 -9 5 -20 10 -23 13 -8 13 5 0 25 -8 13 -10 13 -10 -2z"/>
<path d="M840 1784 c0 -3 7 -12 15 -20 16 -17 18 -14 9 10 -6 15 -24 23 -24
10z"/>
<path d="M870 1784 c0 -3 4 -14 10 -24 10 -19 48 -17 62 4 6 8 8 8 8 0 0 -7 9
-14 20 -17 11 -3 20 -1 20 5 0 5 5 6 10 3 6 -3 10 0 11 7 0 7 4 4 9 -7 8 -20
9 -20 9 1 1 19 -5 21 -54 22 -39 0 -53 -3 -48 -11 5 -9 3 -9 -8 -1 -18 14 -49
25 -49 18z"/>
<path d="M253 1566 c3 -7 0 -19 -6 -25 -8 -8 0 -10 26 -9 32 1 37 5 37 25 0
19 -5 23 -31 23 -22 0 -30 -4 -26 -14z m25 -21 c-3 -3 -9 2 -12 12 -6 14 -5
15 5 6 7 -7 10 -15 7 -18z"/>
<path d="M400 1568 c0 -5 5 -6 10 -3 6 3 10 1 10 -4 0 -6 -5 -11 -11 -11 -5 0
-8 -4 -4 -9 3 -6 18 -9 33 -8 19 2 28 9 30 24 3 18 -2 21 -32 21 -20 0 -36 -4
-36 -10z m60 -8 c0 -5 -5 -10 -11 -10 -5 0 -7 5 -4 10 3 6 8 10 11 10 2 0 4
-4 4 -10z"/>
<path d="M566 1564 c-9 -23 -1 -30 31 -29 21 0 28 5 28 19 0 11 -6 21 -13 24
-8 2 -10 -3 -6 -15 5 -17 5 -17 -6 0 -14 21 -26 22 -34 1z"/>
<path d="M717 1573 c-4 -3 -1 -13 6 -21 10 -13 9 -14 -2 -7 -9 5 -12 4 -7 -3
3 -6 19 -10 34 -9 20 2 28 8 30 25 4 24 -22 32 -31 10 -4 -10 -6 -10 -6 0 -1
13 -14 16 -24 5z m50 -25 c-3 -8 -6 -5 -6 6 -1 11 2 17 5 13 3 -3 4 -12 1 -19z"/>
<path d="M870 1555 c0 -29 23 -34 40 -7 11 16 11 16 6 -1 -4 -12 -2 -17 6 -15
7 3 13 13 13 24 0 14 -8 19 -32 21 -29 2 -33 0 -33 -22z"/>
<path d="M1026 1574 c7 -3 10 -15 7 -27 -4 -18 -3 -19 6 -7 16 23 13 40 -6 39
-10 0 -13 -3 -7 -5z"/>
<path d="M1060 1556 c0 -17 5 -26 16 -26 10 0 14 7 12 22 -5 32 -28 35 -28 4z"/>
<path d="M1180 1563 c0 -7 0 -16 -1 -20 0 -4 5 -9 12 -12 7 -2 9 1 4 9 -6 9
-3 9 13 1 29 -15 32 -14 32 12 0 20 -5 24 -30 24 -18 0 -30 -6 -30 -14z"/>
<path d="M1336 1573 c-11 -11 -6 -24 7 -17 8 5 8 2 -2 -9 -12 -15 -10 -17 20
-14 26 2 34 7 34 22 0 14 -8 20 -27 22 -14 1 -29 -1 -32 -4z m54 -23 c0 -5 -4
-10 -10 -10 -5 0 -10 5 -10 10 0 6 5 10 10 10 6 0 10 -4 10 -10z"/>
<path d="M1805 1571 c-3 -2 3 -10 13 -18 11 -8 12 -12 3 -11 -7 2 -15 -2 -18
-9 -5 -13 34 -12 55 1 23 14 9 41 -21 41 -15 1 -30 -1 -32 -4z"/>
<path d="M1956 1571 c-3 -5 1 -11 9 -15 9 -3 15 0 15 9 0 16 -16 20 -24 6z"/>
<path d="M1990 1560 c-6 -11 -18 -20 -26 -20 -8 0 -12 -5 -9 -10 5 -8 11 -8
20 0 9 8 15 8 20 0 9 -15 25 -2 25 20 0 28 -17 34 -30 10z"/>
<path d="M2153 1550 c0 -26 2 -29 14 -17 8 7 11 21 7 30 -10 27 -21 20 -21
-13z"/>
<path d="M2270 1565 c0 -8 5 -15 10 -15 6 0 10 7 10 15 0 8 -4 15 -10 15 -5 0
-10 -7 -10 -15z"/>
<path d="M2301 1561 c-7 -12 -19 -21 -27 -21 -8 0 -13 -4 -9 -9 9 -16 60 -5
63 14 6 28 -14 40 -27 16z"/>
<path d="M2583 1548 c0 -29 17 -29 18 0 0 12 3 11 9 -5 12 -30 30 -29 30 1 0
18 -6 25 -28 28 -26 4 -29 1 -29 -24z"/>
<path d="M2114 1559 c-10 -17 13 -36 27 -22 12 12 4 33 -11 33 -5 0 -12 -5
-16 -11z"/>
<path d="M2420 1552 c0 -10 3 -22 7 -25 10 -11 32 13 26 29 -8 20 -33 17 -33
-4z"/>
<path d="M2470 1560 c13 -9 13 -11 0 -19 -16 -11 -7 -27 9 -16 18 11 13 45 -6
45 -15 0 -16 -2 -3 -10z"/>
<path d="M2734 1547 c1 -17 7 -22 31 -22 23 0 31 5 33 22 3 18 -2 21 -31 21
-29 0 -34 -3 -33 -21z"/>
<path d="M2890 1547 c0 -20 5 -24 30 -24 25 0 30 4 30 24 0 25 -18 30 -39 11
-11 -10 -13 -10 -7 0 4 6 2 12 -3 12 -6 0 -11 -10 -11 -23z"/>
<path d="M776 1494 c-9 -23 -7 -36 4 -29 5 3 19 0 30 -7 13 -8 23 -9 28 -3 4
6 14 10 22 10 8 0 15 7 15 15 0 18 -56 24 -67 7 -5 -8 -8 -6 -8 6 0 21 -16 22
-24 1z"/>
<path d="M2332 1493 c-15 -26 -17 -56 -2 -33 7 12 12 11 30 -5 16 -15 23 -16
29 -7 4 7 14 12 21 10 8 -2 15 4 17 13 3 12 -5 18 -26 21 -17 3 -31 1 -31 -4
0 -4 5 -8 12 -8 6 0 9 -2 6 -5 -9 -10 -37 6 -40 23 -3 14 -6 13 -16 -5z"/>
<path d="M227 1343 c-8 -14 -7 -321 1 -342 5 -15 11 -18 22 -11 10 6 11 10 3
10 -10 0 -12 41 -12 168 l0 167 577 -3 c317 -2 578 -5 580 -7 2 -2 1 -247 -4
-544 -5 -427 -10 -541 -20 -541 -7 0 -15 6 -17 13 -4 9 -6 9 -6 0 -1 -18 -147
-18 -154 0 -4 9 -6 9 -6 0 -1 -18 -137 -18 -144 0 -4 9 -6 9 -6 0 -1 -18 -137
-18 -145 0 -5 9 -7 9 -12 0 -8 -18 -140 -18 -147 0 -4 9 -6 9 -6 0 -1 -17
-132 -18 -149 -1 -9 9 -12 9 -12 0 0 -17 -136 -17 -144 1 -5 9 -7 9 -12 0 -8
-18 -140 -18 -147 0 -4 9 -6 9 -6 0 -1 -7 -8 -13 -16 -13 -12 0 -15 14 -15 69
0 46 4 71 13 74 10 4 10 6 0 6 -18 1 -18 187 0 194 9 4 9 8 1 14 -7 4 -13 49
-16 105 -2 54 -1 93 3 87 5 -8 8 -8 13 0 4 6 4 11 -1 11 -4 0 -6 39 -4 86 2
62 0 85 -8 80 -7 -4 -11 -39 -11 -86 0 -66 -2 -78 -15 -74 -9 4 -15 0 -15 -7
0 -11 -2 -11 -9 -1 -6 10 -11 10 -21 -3 -17 -20 0 -34 36 -30 24 2 24 1 24
-81 0 -70 -2 -82 -15 -78 -8 4 -15 1 -15 -5 0 -6 5 -11 10 -11 6 0 10 -4 10
-10 0 -18 -19 -10 -25 11 -8 25 -29 20 -33 -10 -3 -19 0 -21 32 -18 l36 4 -1
-96 c0 -53 -3 -90 -6 -83 -8 20 -18 14 -18 -13 0 -16 4 -23 13 -20 9 3 12 -10
11 -55 -1 -33 0 -62 2 -64 2 -2 268 -6 590 -9 l586 -7 6 158 c4 86 7 338 7
558 l0 402 -42 5 c-74 8 -1136 8 -1141 0z"/>
<path d="M1776 1332 c-7 -11 -7 -301 0 -329 4 -13 13 -23 23 -22 10 0 11 2 4
6 -9 3 -13 34 -13 103 0 69 4 100 13 103 10 4 10 6 0 6 -9 1 -13 21 -13 67 l0
66 580 -3 580 -4 0 -547 c0 -466 -2 -548 -14 -548 -8 0 -17 6 -20 13 -5 9 -7
9 -12 0 -8 -18 -140 -18 -147 0 -4 9 -6 9 -6 0 -1 -18 -137 -18 -145 0 -5 9
-7 9 -12 0 -8 -18 -140 -18 -147 0 -4 9 -6 9 -6 0 -1 -18 -147 -18 -154 0 -4
9 -6 9 -6 0 -1 -18 -137 -18 -145 0 -5 9 -7 9 -12 0 -8 -18 -140 -18 -147 0
-4 9 -6 9 -6 0 -1 -18 -137 -18 -145 0 -5 9 -7 9 -12 0 -3 -7 -12 -13 -20 -13
-19 0 -20 136 -1 143 10 4 10 6 0 6 -18 1 -18 187 0 194 9 4 9 7 0 14 -8 6
-12 39 -11 100 1 76 4 93 17 96 14 4 14 5 0 6 -13 1 -15 14 -11 86 3 59 1 85
-7 85 -6 0 -11 8 -11 18 0 26 -11 34 -27 21 -9 -9 -13 -8 -13 0 0 6 -5 11 -11
11 -6 0 -9 -7 -6 -15 4 -8 2 -17 -4 -20 -11 -7 -3 -25 12 -25 5 0 9 8 9 18 1
16 1 16 11 -1 6 -9 14 -15 20 -12 5 4 9 -27 9 -74 0 -67 -3 -81 -16 -81 -10 0
-14 -7 -12 -22 2 -13 9 -22 16 -20 9 1 12 -21 12 -83 0 -71 -2 -83 -15 -79 -8
4 -15 3 -15 -1 0 -3 7 -13 15 -21 11 -11 15 -39 15 -103 l0 -88 -36 4 c-32 3
-35 1 -32 -18 2 -15 11 -23 31 -25 15 -1 27 2 27 7 0 5 -4 9 -10 9 -5 0 -10 5
-10 11 0 8 5 8 15 -1 11 -9 15 -32 15 -81 l0 -69 468 -1 c257 -1 522 -3 589
-5 68 -1 124 0 127 4 2 4 5 257 7 562 l4 555 -592 3 c-325 1 -594 -2 -597 -6z"/>
<path d="M747 1283 c-10 -9 -9 -43 1 -43 5 0 14 11 20 25 9 20 9 25 -2 25 -7
0 -16 -3 -19 -7z"/>
<path d="M1104 1255 c-1 -14 2 -25 7 -25 5 0 9 4 9 9 0 5 3 16 6 25 4 10 1 16
-7 16 -8 0 -15 -11 -15 -25z"/>
<path d="M1150 1261 c0 -12 5 -21 10 -21 6 0 10 6 10 14 0 8 -4 18 -10 21 -5
3 -10 -3 -10 -14z"/>
<path d="M1180 1255 c0 -14 3 -16 9 -7 6 10 10 10 21 -3 18 -21 36 -19 36 5 0
22 -12 27 -19 8 -4 -9 -6 -8 -6 2 -1 24 -41 20 -41 -5z"/>
<path d="M2299 1278 c-7 -25 -7 -48 1 -48 9 0 12 8 9 26 0 4 5 11 13 15 10 7
9 9 -4 9 -10 0 -18 -1 -19 -2z"/>
<path d="M2660 1265 c-12 -14 -12 -18 1 -25 10 -7 15 -5 17 5 6 28 -3 38 -18
20z"/>
<path d="M2700 1258 c0 -21 5 -28 19 -28 11 0 22 6 25 13 5 10 7 10 12 0 9
-21 40 -15 41 7 2 25 -14 27 -20 3 -3 -12 -5 -10 -6 7 -1 20 -3 22 -11 10 -9
-13 -11 -13 -20 0 -8 12 -10 10 -10 -10 l-1 -25 -14 25 -14 25 -1 -27z"/>
<path d="M781 1252 c0 -12 2 -13 6 -3 5 11 7 11 14 0 7 -11 12 -12 29 -1 11 6
23 12 27 12 5 0 2 -4 -5 -9 -10 -6 -10 -10 3 -21 10 -8 15 -9 15 -1 0 6 14 11
30 11 20 0 30 5 30 15 0 17 -30 17 -42 0 -5 -6 -8 -6 -8 2 0 7 -19 11 -50 11
-41 1 -50 -2 -49 -16z"/>
<path d="M940 1255 c0 -8 2 -15 4 -15 2 0 6 7 10 15 3 8 1 15 -4 15 -6 0 -10
-7 -10 -15z"/>
<path d="M964 1259 c-3 -6 -1 -15 7 -19 18 -12 35 0 18 12 -11 8 -11 9 1 5 8
-2 14 -13 12 -23 -2 -18 -2 -18 13 0 8 11 15 23 15 26 0 11 -59 10 -66 -1z"/>
<path d="M1050 1260 c0 -5 7 -10 15 -10 8 0 15 5 15 10 0 6 -7 10 -15 10 -8 0
-15 -4 -15 -10z"/>
<path d="M2333 1253 c-3 -7 -3 -17 1 -20 3 -4 6 -1 6 7 0 10 3 10 15 0 9 -7
18 -10 22 -7 3 4 14 2 23 -3 13 -7 20 -5 24 7 9 22 2 27 -45 29 -27 1 -42 -3
-46 -13z"/>
<path d="M2444 1253 c-19 -19 -18 -20 11 -20 14 0 25 5 25 11 0 6 5 4 10 -4 9
-13 10 -13 10 0 0 9 3 11 8 4 5 -7 15 -6 32 3 29 15 30 14 -33 18 -32 2 -53
-2 -63 -12z"/>
<path d="M2565 1251 c-4 -14 -11 -18 -23 -14 -14 6 -15 5 -2 -9 14 -16 16 -16
28 0 12 15 17 42 8 42 -3 0 -7 -9 -11 -19z"/>
<path d="M2600 1255 c0 -8 7 -15 15 -15 8 0 15 7 15 15 0 8 -7 15 -15 15 -8 0
-15 -7 -15 -15z"/>
<path d="M385 1240 c-16 -4 -49 -8 -72 -9 -41 -1 -43 -3 -43 -31 0 -36 26 -46
106 -36 30 3 54 3 54 -2 0 -4 26 -13 58 -20 71 -15 82 -15 82 -2 0 6 -11 8
-26 4 -19 -5 -25 -4 -20 5 11 18 44 13 56 -8 11 -22 109 -62 155 -63 16 -1 50
-13 75 -28 62 -38 90 -46 90 -25 0 12 10 8 43 -17 44 -36 93 -68 102 -68 3 0
5 8 5 19 0 11 -12 23 -30 31 -17 7 -44 25 -61 41 -16 15 -35 30 -42 33 -6 4 6
4 28 1 22 -3 53 -5 68 -5 19 0 30 -6 34 -18 2 -11 31 -30 70 -47 36 -16 86
-44 111 -62 24 -19 41 -30 37 -24 -3 6 -1 11 5 11 6 0 8 5 5 11 -4 6 -13 8
-21 5 -8 -3 -13 0 -11 6 1 7 -4 12 -12 13 -8 0 -15 8 -17 17 -2 13 7 10 37
-14 21 -17 36 -35 33 -39 -3 -5 1 -7 8 -4 19 7 53 -26 55 -54 2 -23 2 -23 -20
-5 -12 11 -26 25 -30 32 -10 16 -28 16 -24 0 2 -11 70 -68 82 -68 3 0 5 17 4
38 0 35 -5 41 -78 93 -63 46 -79 53 -89 42 -7 -7 -18 -13 -25 -13 -7 0 -3 7 7
15 11 8 15 15 8 15 -6 0 -36 9 -67 21 -46 17 -55 24 -55 45 0 25 -2 25 -60 23
-33 -1 -63 1 -67 4 -12 13 -43 7 -43 -8 0 -8 -4 -15 -10 -15 -5 0 -10 3 -10 8
0 4 -12 7 -28 8 -24 1 -23 0 11 -14 39 -15 48 -36 21 -46 -26 -10 -30 -6 -10
9 20 15 20 15 0 17 -10 0 -25 1 -31 1 -7 -1 -10 3 -7 8 3 5 0 9 -6 9 -6 0 -27
16 -46 36 -19 20 -34 32 -34 26 0 -8 -8 -9 -26 -2 -14 6 -35 10 -47 9 -12 0
-1 -7 26 -15 26 -8 47 -17 47 -19 0 -2 -9 -9 -20 -15 -16 -9 -19 -8 -13 6 5
14 2 16 -21 10 -18 -4 -25 -3 -21 4 6 10 -14 15 -45 10 -10 -1 -8 5 7 19 16
16 35 21 73 21 44 0 50 2 50 21 0 20 -3 21 -51 15 -29 -4 -65 -10 -80 -13 -25
-5 -29 -2 -29 17 0 22 -2 23 -75 17 -62 -6 -77 -4 -81 8 -4 8 -9 14 -13 14 -3
-1 -19 -5 -36 -9z m38 -29 c-6 -24 -63 -52 -63 -32 0 5 12 12 27 16 21 5 24 8
13 15 -9 5 -19 5 -27 -1 -6 -6 -20 -9 -30 -6 -15 3 -14 6 7 14 13 6 36 10 51
11 21 0 26 -3 22 -17z m-108 -1 c-3 -5 -13 -10 -21 -10 -8 0 -14 5 -14 10 0 6
9 10 21 10 11 0 17 -4 14 -10z m253 3 c-10 -2 -26 -2 -35 0 -10 3 -2 5 17 5
19 0 27 -2 18 -5z m-40 -14 c48 -1 52 -2 28 -9 -34 -11 -128 -1 -120 12 3 5
13 7 21 4 8 -3 40 -6 71 -7z m202 -9 c0 -5 -2 -10 -4 -10 -3 0 -8 5 -11 10 -3
6 -1 10 4 10 6 0 11 -4 11 -10z m-385 -10 c-3 -5 -12 -7 -20 -3 -21 7 -19 13
6 13 11 0 18 -4 14 -10z m232 -6 c-3 -3 -12 -4 -19 -1 -8 3 -5 6 6 6 11 1 17
-2 13 -5z m43 -4 c0 -5 -2 -10 -4 -10 -3 0 -8 5 -11 10 -3 6 -1 10 4 10 6 0
11 -4 11 -10z m-107 -7 c-7 -2 -19 -2 -25 0 -7 3 -2 5 12 5 14 0 19 -2 13 -5z
m512 -83 c-28 -12 -47 -12 -40 0 3 6 18 10 33 9 24 0 25 -1 7 -9z"/>
<path d="M1959 1226 c-3 -3 -23 -6 -46 -7 -29 -2 -39 -7 -36 -16 3 -8 -3 -13
-17 -13 -19 0 -20 2 -10 15 10 13 9 15 -9 15 -18 0 -21 -6 -21 -41 l0 -41 80
4 c76 3 80 2 80 -18 0 -17 11 -25 55 -39 31 -9 65 -15 75 -12 13 3 20 0 20 -8
0 -7 16 -23 36 -36 30 -18 38 -20 45 -8 8 11 9 10 7 -5 -4 -29 65 -55 96 -36
18 11 19 11 9 -2 -10 -12 -4 -20 35 -50 64 -48 89 -61 94 -47 5 15 178 -166
260 -272 36 -46 94 -127 128 -179 76 -114 69 -105 76 -98 11 12 -164 255 -293
407 -21 25 -32 41 -24 36 11 -6 13 -4 8 8 -12 31 8 18 73 -48 60 -61 85 -74
85 -47 0 7 3 12 8 12 4 0 10 0 13 0 4 0 1 -7 -6 -15 -10 -12 -1 -26 56 -85 37
-38 71 -70 76 -70 4 0 8 15 8 33 0 26 -9 39 -46 70 -35 27 -50 34 -60 27 -8
-8 -14 -8 -19 0 -6 9 1 14 18 11 14 -2 6 14 -23 47 -32 35 -46 41 -36 16 15
-40 -10 -26 -76 43 -72 73 -73 74 -81 49 -5 -14 -13 -26 -19 -26 -6 0 -8 6 -5
13 3 8 -22 37 -58 70 -59 53 -84 70 -71 48 3 -5 -1 -12 -10 -15 -8 -3 -12 -11
-8 -17 4 -8 3 -9 -5 -5 -8 5 -9 12 -2 20 10 12 -120 115 -213 168 l-51 29 70
-3 c66 -3 70 -2 73 20 3 21 1 22 -77 22 -74 0 -81 2 -81 20 0 18 -7 20 -75 20
-68 0 -75 2 -75 20 0 18 -19 27 -31 16z m21 -26 c0 -4 -21 -8 -47 -8 -33 -1
-43 2 -33 8 17 11 80 10 80 0z m-111 -31 c9 5 23 6 30 1 8 -4 28 -4 45 1 40
12 41 12 26 -6 -19 -23 -148 -16 -133 8 5 8 8 8 11 -1 2 -8 9 -9 21 -3z m221
1 c-28 -4 -36 -8 -20 -9 14 -2 19 -5 12 -8 -18 -7 -62 5 -62 17 0 6 26 9 58 8
l57 -1 -45 -7z m67 -35 c45 1 80 -2 78 -6 -3 -4 -37 -6 -76 -5 -41 1 -62 -1
-50 -6 25 -9 27 -24 5 -32 -25 -10 -34 -7 -28 8 4 10 -10 19 -45 31 -61 20
-69 39 -8 21 23 -7 79 -12 124 -11z m-30 19 c-3 -3 -12 -4 -19 -1 -8 3 -5 6 6
6 11 1 17 -2 13 -5z m153 -24 c0 -5 -7 -10 -15 -10 -8 0 -15 5 -15 10 0 6 7
10 15 10 8 0 15 -4 15 -10z m-250 -15 c0 -2 -9 -3 -19 -2 -11 0 -18 5 -15 9 4
6 34 0 34 -7z m35 -15 c-3 -5 -11 -10 -16 -10 -6 0 -7 5 -4 10 3 6 11 10 16
10 6 0 7 -4 4 -10z m157 -40 c47 -28 65 -45 62 -55 -4 -8 -13 -15 -21 -15 -11
0 -13 3 -5 13 8 9 -4 20 -54 46 -35 18 -64 37 -64 42 0 15 11 11 82 -31z m148
-104 c0 -3 -4 -8 -10 -11 -5 -3 -10 -1 -10 4 0 6 5 11 10 11 6 0 10 -2 10 -4z
m30 -26 c0 -5 -2 -10 -4 -10 -3 0 -8 5 -11 10 -3 6 -1 10 4 10 6 0 11 -4 11
-10z m441 -303 c-13 -13 -26 -3 -16 12 3 6 11 8 17 5 6 -4 6 -10 -1 -17z m39
-16 c0 -12 -20 -25 -27 -18 -7 7 6 27 18 27 5 0 9 -4 9 -9z m22 -29 c-7 -2 -9
-9 -6 -14 4 -7 2 -8 -4 -4 -6 4 -9 13 -6 21 4 8 11 12 17 8 8 -5 7 -8 -1 -11z"/>
<path d="M174 1205 c-4 -8 -3 -23 0 -32 6 -15 8 -15 23 -1 16 17 12 48 -7 48
-6 0 -13 -7 -16 -15z"/>
<path d="M1723 1194 c-8 -21 13 -42 28 -27 13 13 5 43 -11 43 -6 0 -13 -7 -17
-16z"/>
<path d="M813 1163 c-24 -2 -43 -9 -43 -15 0 -6 13 -9 33 -6 17 3 46 1 62 -3
l30 -8 -30 1 c-68 1 -75 -1 -68 -19 4 -11 8 -12 11 -5 2 7 22 12 48 12 40 0
44 2 44 25 0 27 4 26 -87 18z"/>
<path d="M2292 1075 c2 -16 13 -21 58 -26 30 -4 62 -10 71 -14 17 -6 32 7 35
33 3 17 -7 20 -94 24 -68 3 -73 2 -70 -17z m148 2 c-10 -8 -120 -17 -120 -9 0
4 28 9 62 10 35 2 61 2 58 -1z m-3 -23 c-3 -3 -12 -4 -19 -1 -8 3 -5 6 6 6 11
1 17 -2 13 -5z"/>
<path d="M988 1027 c23 -13 76 -55 117 -95 75 -73 105 -88 105 -52 0 11 5 20
11 20 6 0 8 -8 4 -18 -4 -14 9 -34 45 -70 28 -29 60 -56 70 -62 18 -9 20 -7
20 17 0 22 -11 36 -49 64 -30 23 -53 33 -58 28 -6 -6 -10 -4 -10 5 0 8 4 13 8
10 4 -2 10 0 14 6 3 5 2 10 -3 10 -5 0 -21 12 -36 26 -14 15 -26 24 -26 20 0
-3 -54 21 -119 54 -66 33 -123 60 -128 60 -4 -1 11 -11 35 -23z m212 -125 c0
-8 -17 -1 -44 18 -64 43 -68 58 -7 24 28 -16 51 -35 51 -42z m84 -73 c-3 -5
-10 -7 -15 -3 -5 3 -7 10 -3 15 3 5 10 7 15 3 5 -3 7 -10 3 -15z m36 -17 c0
-13 -12 -22 -22 -16 -10 6 -1 24 13 24 5 0 9 -4 9 -8z m21 -35 c-13 -13 -26
-3 -16 12 3 6 11 8 17 5 6 -4 6 -10 -1 -17z"/>
<path d="M67 1033 c-12 -25 0 -68 23 -81 l25 -14 -28 7 c-19 4 -26 2 -22 -5 8
-13 52 -13 60 0 3 6 1 10 -4 10 -6 0 -11 16 -11 35 0 19 5 35 11 35 5 0 7 5 4
10 -7 12 -52 14 -58 3z m40 -9 c-3 -3 -12 -4 -19 -1 -8 3 -5 6 6 6 11 1 17 -2
13 -5z"/>
<path d="M1633 1032 c-16 -11 -21 -35 -11 -61 6 -17 5 -27 -3 -32 -8 -4 -4 -9
9 -14 12 -3 30 -1 39 5 16 10 15 11 -5 6 -13 -2 -21 -2 -18 1 3 3 1 14 -5 24
-6 12 -6 19 0 19 5 0 11 -8 13 -17 3 -12 6 -9 10 10 4 23 1 31 -16 38 -19 8
-18 9 7 6 15 -3 27 -3 27 -1 0 9 -37 22 -47 16z"/>
<path d="M2440 1012 c0 -17 14 -24 76 -43 52 -16 78 -28 81 -40 6 -21 120 -92
134 -83 6 3 2 12 -8 21 -16 13 -16 13 5 3 18 -9 21 -14 12 -25 -8 -10 -8 -15
2 -22 7 -4 47 -45 88 -90 40 -46 77 -83 82 -83 4 0 8 17 8 38 -1 34 -8 43 -76
102 -41 36 -111 84 -155 108 -65 35 -79 47 -79 67 0 19 -7 26 -27 30 -68 14
-112 25 -127 31 -11 4 -16 0 -16 -14z m144 -28 c16 -6 12 -24 -5 -24 -6 0 -8
4 -4 9 3 5 -3 12 -12 14 -10 3 -13 5 -6 6 6 0 18 -2 27 -5z m201 -177 c1 -7 6
-11 13 -9 7 1 11 -4 10 -10 -2 -7 3 -12 10 -10 22 4 87 -59 89 -86 2 -25 1
-24 -32 8 -19 19 -34 40 -32 48 1 8 -4 17 -12 20 -9 3 -11 0 -6 -9 5 -8 -5 -2
-22 14 -16 15 -30 34 -30 42 0 17 12 9 12 -8z"/>
<path d="M2862 730 c7 -11 19 -22 28 -25 8 -4 4 5 -9 19 -29 31 -36 33 -19 6z"/>
<path d="M166 998 c3 -5 0 -15 -6 -23 -10 -12 -9 -15 3 -15 9 0 18 8 20 18 4
15 5 15 6 -1 1 -25 25 -16 29 11 3 17 -2 21 -27 20 -17 -1 -28 -5 -25 -10z
m41 -20 c-3 -8 -6 -5 -6 6 -1 11 2 17 5 13 3 -3 4 -12 1 -19z"/>
<path d="M66 902 c6 -4 10 -26 9 -50 -1 -30 4 -46 14 -52 13 -8 12 -9 -6 -10
-13 0 -23 -4 -23 -10 0 -5 11 -10 25 -10 21 0 25 5 25 30 0 17 -5 30 -12 30
-9 0 -8 4 2 10 13 9 13 11 0 20 -10 6 -11 10 -2 10 6 0 12 9 12 20 0 15 -7 20
-27 20 -16 0 -23 -4 -17 -8z"/>
<path d="M1305 890 c10 -11 23 -20 28 -20 6 0 2 9 -8 20 -10 11 -23 20 -28 20
-6 0 -2 -9 8 -20z"/>
<path d="M1610 900 c0 -5 5 -10 11 -10 5 0 8 -4 5 -8 -2 -4 -1 -14 4 -22 5 -8
4 -22 -1 -32 -7 -14 -6 -20 6 -24 22 -9 18 -22 -7 -27 -20 -4 -19 -4 5 -6 22
-1 27 3 27 22 0 13 -5 28 -12 35 -9 9 -9 12 3 12 12 0 12 2 -1 10 -10 6 -11
10 -2 10 6 0 12 11 12 25 0 20 -5 25 -25 25 -14 0 -25 -4 -25 -10z"/>
<path d="M1712 788 c-16 -16 -15 -28 3 -28 8 0 15 9 15 20 0 23 -2 24 -18 8z"/>
<path d="M79 757 c-3 -3 -8 -42 -9 -62 -1 -40 3 -60 14 -67 7 -5 7 -8 -3 -8
-7 0 -11 -6 -8 -14 3 -8 1 -17 -6 -20 -9 -3 -8 -7 2 -14 11 -8 11 -10 0 -15
-8 -3 0 -6 16 -6 23 -1 26 2 15 9 -8 5 -10 10 -5 10 14 0 15 93 1 102 -8 6 -7
8 2 8 19 0 14 20 -5 21 -14 0 -13 2 5 9 27 12 29 36 2 43 -11 3 -21 4 -21 4z"/>
<path d="M1627 743 c-3 -5 -3 -19 -2 -33 1 -14 -2 -28 -7 -31 -5 -3 -2 -13 6
-22 12 -11 13 -17 3 -20 -9 -4 -9 -8 2 -15 9 -7 10 -12 2 -16 -6 -4 -9 -12 -6
-17 4 -5 0 -9 -7 -9 -9 0 -9 -3 2 -10 13 -9 13 -11 0 -20 -12 -7 -8 -10 15
-10 23 0 27 3 15 10 -9 6 -11 13 -5 18 6 4 11 26 13 49 2 32 -2 43 -15 46 -17
4 -17 5 0 6 20 1 23 17 5 24 -10 4 -9 6 1 6 11 1 11 4 1 16 -7 9 -10 18 -6 22
3 3 6 1 6 -5 0 -7 5 -12 10 -12 6 0 10 7 10 15 0 15 -35 21 -43 8z"/>
<path d="M1704 585 c-8 -21 2 -32 30 -32 24 0 25 0 8 23 -20 27 -30 30 -38 9z"/>
<path d="M150 375 c0 -20 4 -26 18 -23 9 2 17 12 17 23 0 11 -8 21 -17 23 -14
3 -18 -3 -18 -23z"/>
<path d="M234 158 c-3 -4 0 -8 7 -8 9 0 8 -4 -1 -15 -10 -12 -7 -14 24 -13 30
1 36 5 36 24 0 19 -5 23 -30 22 -17 -1 -33 -5 -36 -10z m53 -20 c-3 -8 -6 -5
-6 6 -1 11 2 17 5 13 3 -3 4 -12 1 -19z"/>
<path d="M390 162 c0 -4 6 -14 13 -21 10 -11 10 -13 0 -7 -7 4 -13 2 -13 -3 0
-6 15 -10 33 -8 24 2 32 7 32 22 0 15 -8 20 -32 22 -18 2 -33 -1 -33 -5z"/>
<path d="M552 150 c-7 -11 -9 -20 -5 -21 5 0 20 -3 34 -5 29 -5 43 14 28 37
-8 12 -12 11 -23 -4 -13 -16 -15 -16 -18 -2 -2 13 -5 12 -16 -5z"/>
<path d="M707 163 c-4 -3 -7 -15 -7 -25 0 -14 7 -17 33 -15 24 2 32 7 32 21 0
11 -6 21 -12 24 -7 2 -13 -1 -13 -7 0 -6 5 -11 10 -11 6 0 10 -5 10 -10 0 -6
-8 -5 -19 2 -11 7 -17 16 -15 20 6 10 -10 11 -19 1z"/>
<path d="M860 144 c0 -15 7 -23 25 -26 29 -6 35 -2 35 27 0 17 -6 22 -30 22
-24 0 -30 -5 -30 -23z"/>
<path d="M1010 160 c0 -5 4 -10 9 -10 5 0 7 -10 5 -22 -4 -21 -4 -22 5 -3 14
30 13 45 -4 45 -8 0 -15 -4 -15 -10z"/>
<path d="M1056 161 c-4 -6 -2 -11 3 -11 6 0 11 -5 11 -11 0 -5 -4 -7 -10 -4
-5 3 -10 1 -10 -4 0 -17 20 -13 27 5 7 19 -11 41 -21 25z"/>
<path d="M1197 148 c-11 -15 -14 -17 -11 -5 4 10 1 17 -6 17 -6 0 -10 -10 -8
-22 4 -29 51 -32 56 -4 6 30 -13 39 -31 14z"/>
<path d="M1325 158 c-10 -27 -2 -41 27 -44 26 -2 44 18 32 37 -10 16 -24 9
-17 -8 4 -11 -2 -9 -15 7 -18 22 -21 23 -27 8z"/>
<path d="M2451 147 c-6 -15 -16 -27 -23 -26 -10 0 -10 2 0 6 6 2 12 11 12 20
0 22 -25 10 -28 -14 -3 -18 2 -21 32 -21 38 0 46 16 26 48 -7 11 -11 9 -19
-13z"/>
<path d="M1793 135 c0 -19 4 -23 28 -23 48 2 47 42 -2 46 -22 1 -26 -3 -26
-23z m25 -10 c-3 -3 -9 2 -12 12 -6 14 -5 15 5 6 7 -7 10 -15 7 -18z"/>
<path d="M1954 145 c3 -8 1 -15 -5 -15 -26 0 4 -17 31 -18 25 -1 30 3 30 24 0
15 -6 24 -15 24 -8 0 -15 -6 -15 -14 0 -8 -4 -17 -9 -20 -5 -4 -7 3 -4 14 3
12 0 20 -7 20 -7 0 -10 -7 -6 -15z m43 -17 c-3 -8 -6 -5 -6 6 -1 11 2 17 5 13
3 -3 4 -12 1 -19z"/>
<path d="M2110 145 c-15 -19 -11 -24 24 -31 18 -3 28 1 33 11 6 18 -13 43 -24
31 -4 -4 -1 -11 7 -16 9 -6 10 -10 3 -10 -7 0 -16 7 -21 16 -8 14 -10 14 -22
-1z"/>
<path d="M2260 149 c0 -14 30 -38 48 -39 6 0 12 11 12 25 0 27 -9 32 -28 13
-9 -9 -12 -9 -12 0 0 7 -4 12 -10 12 -5 0 -10 -5 -10 -11z m47 -21 c-3 -8 -6
-5 -6 6 -1 11 2 17 5 13 3 -3 4 -12 1 -19z"/>
<path d="M2575 134 c0 -28 11 -32 18 -6 4 16 5 16 6 0 1 -19 26 -25 35 -9 11
18 -5 38 -32 39 -22 0 -27 -4 -27 -24z"/>
<path d="M2727 139 c-6 -23 0 -29 35 -29 23 0 28 4 28 23 0 19 -5 24 -29 24
-20 0 -31 -6 -34 -18z"/>
<path d="M2887 154 c-12 -12 -8 -26 6 -18 8 5 8 2 -2 -9 -12 -15 -11 -17 2
-17 9 0 19 5 23 11 8 13 -19 43 -29 33z"/>
<path d="M2924 135 c1 -25 10 -32 20 -16 7 11 -3 41 -14 41 -4 0 -7 -11 -6
-25z"/>
<path d="M761 74 c-10 -23 -10 -26 4 -20 9 3 25 0 37 -7 16 -9 22 -9 25 0 2 7
11 9 19 6 8 -3 14 0 14 6 0 6 0 14 0 19 0 11 -43 11 -57 0 -10 -8 -13 -6 -13
6 0 24 -15 19 -29 -10z"/>
<path d="M2321 71 c-15 -28 -14 -36 4 -21 9 7 15 8 15 2 0 -14 32 -24 43 -13
5 5 16 7 23 4 9 -3 14 2 14 15 0 17 -6 20 -31 20 -19 -1 -26 -4 -17 -9 7 -4 9
-12 4 -16 -4 -4 -16 2 -26 15 -18 22 -19 22 -29 3z"/>
</g>
</svg>
